<svg xmlns="http://www.w3.org/2000/svg" width="1200" height="405" viewBox="0 0 1200 405">
<rect width="1200" height="405" fill="white"/>
<style>text{font:13px sans-serif;fill:#111}.title{font:bold 15px sans-serif}.axis{stroke:#111;stroke-width:1}.series{fill:none;stroke:#111;stroke-width:3}</style>
<text class="title" x="55" y="28">Inference accuracy vs generated tokens</text>
<line class="axis" x1="55" y1="300" x2="365" y2="300"/>
<line class="axis" x1="55" y1="60" x2="55" y2="300"/>
<text x="47" y="304" text-anchor="end">0</text>
<text x="47" y="64" text-anchor="end">1</text>
<polyline class="series" style="" points="55.0,204.8 114.0,151.2 177.3,98.6 240.9,69.6 302.9,60.6 365.0,60.0"/>
<text x="63" y="338">1. exact-verifier coverage</text>
<polyline class="series" style="stroke-dasharray:9 5" points="55.0,204.8 114.0,204.2 177.3,184.6 240.9,169.2 302.9,165.2 365.0,160.0"/>
<text x="63" y="355">2. plurality</text>
<polyline class="series" style="stroke-dasharray:2 5" points="55.0,204.8 114.0,167.6 177.3,143.4 240.9,128.6 302.9,127.6 365.0,124.4"/>
<text x="63" y="372">3. noisy verifier</text>
<line class="axis" x1="55.0" y1="300" x2="55.0" y2="305"/>
<text x="55.0" y="320" text-anchor="middle">9</text>
<line class="axis" x1="114.0" y1="300" x2="114.0" y2="305"/>
<text x="114.0" y="320" text-anchor="middle">17</text>
<line class="axis" x1="177.3" y1="300" x2="177.3" y2="305"/>
<text x="177.3" y="320" text-anchor="middle">34</text>
<line class="axis" x1="240.9" y1="300" x2="240.9" y2="305"/>
<text x="240.9" y="320" text-anchor="middle">68</text>
<line class="axis" x1="302.9" y1="300" x2="302.9" y2="305"/>
<text x="302.9" y="320" text-anchor="middle">136</text>
<line class="axis" x1="365.0" y1="300" x2="365.0" y2="305"/>
<text x="365.0" y="320" text-anchor="middle">271</text>
<text class="title" x="455" y="28">GRPO objective vs true accuracy</text>
<line class="axis" x1="455" y1="300" x2="765" y2="300"/>
<line class="axis" x1="455" y1="60" x2="455" y2="300"/>
<text x="447" y="304" text-anchor="end">0</text>
<text x="447" y="64" text-anchor="end">1</text>
<polyline class="series" style="" points="455.0,205.7 480.8,141.2 532.5,85.6 610.0,68.3 687.5,66.9 765.0,64.3"/>
<text x="463" y="338">1. exact-RLVR accuracy</text>
<polyline class="series" style="stroke-dasharray:9 5" points="455.0,205.7 480.8,163.8 532.5,139.2 610.0,236.8 687.5,291.2 765.0,295.6"/>
<text x="463" y="355">2. proxy-run accuracy</text>
<polyline class="series" style="stroke-dasharray:2 5" points="455.0,185.7 480.8,154.4 532.5,107.6 610.0,75.4 687.5,63.3 765.0,62.0"/>
<text x="463" y="372">3. proxy objective / maximum</text>
<line class="axis" x1="455.0" y1="300" x2="455.0" y2="305"/>
<text x="455.0" y="320" text-anchor="middle">0</text>
<line class="axis" x1="480.8" y1="300" x2="480.8" y2="305"/>
<text x="480.8" y="320" text-anchor="middle">10</text>
<line class="axis" x1="532.5" y1="300" x2="532.5" y2="305"/>
<text x="532.5" y="320" text-anchor="middle">30</text>
<line class="axis" x1="610.0" y1="300" x2="610.0" y2="305"/>
<text x="610.0" y="320" text-anchor="middle">60</text>
<line class="axis" x1="687.5" y1="300" x2="687.5" y2="305"/>
<text x="687.5" y="320" text-anchor="middle">90</text>
<line class="axis" x1="765.0" y1="300" x2="765.0" y2="305"/>
<text x="765.0" y="320" text-anchor="middle">120</text>
<text class="title" x="855" y="28">Exploration during GRPO</text>
<line class="axis" x1="855" y1="300" x2="1165" y2="300"/>
<line class="axis" x1="855" y1="60" x2="855" y2="300"/>
<text x="847" y="304" text-anchor="end">0</text>
<text x="847" y="64" text-anchor="end">1</text>
<polyline class="series" style="" points="855.0,79.7 880.8,100.7 932.5,157.3 1010.0,202.5 1087.5,207.9 1165.0,219.6"/>
<text x="863" y="338">1. exact-RLVR entropy</text>
<polyline class="series" style="stroke-dasharray:9 5" points="855.0,79.7 880.8,76.3 932.5,128.8 1010.0,196.6 1087.5,266.5 1165.0,279.1"/>
<text x="863" y="355">2. proxy-run entropy</text>
<line class="axis" x1="855.0" y1="300" x2="855.0" y2="305"/>
<text x="855.0" y="320" text-anchor="middle">0</text>
<line class="axis" x1="880.8" y1="300" x2="880.8" y2="305"/>
<text x="880.8" y="320" text-anchor="middle">10</text>
<line class="axis" x1="932.5" y1="300" x2="932.5" y2="305"/>
<text x="932.5" y="320" text-anchor="middle">30</text>
<line class="axis" x1="1010.0" y1="300" x2="1010.0" y2="305"/>
<text x="1010.0" y="320" text-anchor="middle">60</text>
<line class="axis" x1="1087.5" y1="300" x2="1087.5" y2="305"/>
<text x="1087.5" y="320" text-anchor="middle">90</text>
<line class="axis" x1="1165.0" y1="300" x2="1165.0" y2="305"/>
<text x="1165.0" y="320" text-anchor="middle">120</text>
<text x="175" y="398">Generated tokens (log2 spacing; labels show tokens)</text>
<text x="590" y="398">Training step</text>
<text x="990" y="398">Training step</text>
</svg>