<svg xmlns="http://www.w3.org/2000/svg" width="1140" height="360" viewBox="0 0 1140 360">
<rect width="100%" height="100%" fill="white"/>
<title>Illustrative request roofline, fixture calibration, and abstention trade-off</title>
<text x="55.0" y="42.0" font-family="Arial,sans-serif" font-size="14" font-weight="bold" text-anchor="start" fill="#111">A  One-request roofline (illustrative)</text>
<line x1="55.0" y1="55.0" x2="55.0" y2="290.0" stroke="#111" stroke-width="1"/>
<line x1="55.0" y1="290.0" x2="355.0" y2="290.0" stroke="#111" stroke-width="1"/>
<text x="205.0" y="324.0" font-family="Arial,sans-serif" font-size="11" font-weight="normal" text-anchor="middle" fill="#111">arithmetic intensity (FLOP/byte, log₂)</text>
<text x="47.0" y="294.0" font-family="Arial,sans-serif" font-size="10" font-weight="normal" text-anchor="end" fill="#111">0</text>
<text x="47.0" y="59.0" font-family="Arial,sans-serif" font-size="10" font-weight="normal" text-anchor="end" fill="#111">80</text>
<text x="20.0" y="172.5" font-family="Arial,sans-serif" font-size="10" font-weight="normal" text-anchor="middle" fill="#111">TFLOP/s</text>
<polyline points="55.0,284.1 200.1,55.0 355.0,55.0" fill="none" stroke="#111" stroke-width="2.5"/>
<line x1="200.1" y1="55.0" x2="200.1" y2="290.0" stroke="#111" stroke-width="1" stroke-dasharray="4 4"/>
<text x="204.1" y="71.0" font-family="Arial,sans-serif" font-size="10" font-weight="normal" text-anchor="start" fill="#111">ridge = 40</text>
<circle cx="55.0" cy="284.1" r="5" fill="#111" stroke="#111" stroke-width="1.5"/>
<text x="62.0" y="277.1" font-family="Arial,sans-serif" font-size="10" font-weight="normal" text-anchor="start" fill="#111">decode</text>
<rect x="241.9" y="51.0" width="8" height="8" fill="#777" stroke="#111"/>
<text x="245.9" y="46.0" font-family="Arial,sans-serif" font-size="9" font-weight="normal" text-anchor="middle" fill="#111">128</text>
<rect x="296.5" y="51.0" width="8" height="8" fill="#777" stroke="#111"/>
<text x="300.5" y="46.0" font-family="Arial,sans-serif" font-size="9" font-weight="normal" text-anchor="middle" fill="#111">512</text>
<rect x="351.0" y="51.0" width="8" height="8" fill="#777" stroke="#111"/>
<text x="355.0" y="46.0" font-family="Arial,sans-serif" font-size="9" font-weight="normal" text-anchor="middle" fill="#111">2048</text>
<text x="353.0" y="86.0" font-family="Arial,sans-serif" font-size="10" font-weight="normal" text-anchor="end" fill="#111">prefill prompt tokens</text>
<text x="430.0" y="42.0" font-family="Arial,sans-serif" font-size="14" font-weight="bold" text-anchor="start" fill="#111">B  Reliability on synthetic QA fixture</text>
<line x1="430.0" y1="55.0" x2="430.0" y2="290.0" stroke="#111" stroke-width="1"/>
<line x1="430.0" y1="290.0" x2="730.0" y2="290.0" stroke="#111" stroke-width="1"/>
<text x="580.0" y="324.0" font-family="Arial,sans-serif" font-size="11" font-weight="normal" text-anchor="middle" fill="#111">reported confidence</text>
<line x1="430.0" y1="290.0" x2="730.0" y2="55.0" stroke="#111" stroke-width="1" stroke-dasharray="4 4"/>
<text x="422.0" y="294.0" font-family="Arial,sans-serif" font-size="10" font-weight="normal" text-anchor="end" fill="#111">0</text>
<text x="422.0" y="59.0" font-family="Arial,sans-serif" font-size="10" font-weight="normal" text-anchor="end" fill="#111">1</text>
<text x="430.0" y="306.0" font-family="Arial,sans-serif" font-size="10" font-weight="normal" text-anchor="middle" fill="#111">0</text>
<text x="730.0" y="306.0" font-family="Arial,sans-serif" font-size="10" font-weight="normal" text-anchor="middle" fill="#111">1</text>
<text x="395.0" y="172.5" font-family="Arial,sans-serif" font-size="10" font-weight="normal" text-anchor="middle" fill="#111">accuracy</text>
<polyline points="595.0,172.5 625.0,149.0 655.0,125.5 685.0,102.0 715.0,90.2" fill="none" stroke="#111" stroke-width="2"/>
<polyline points="590.1,172.5 610.7,149.0 632.9,125.5 658.6,102.0 693.5,90.2" fill="none" stroke="#111" stroke-width="2" stroke-dasharray="6 3"/>
<circle cx="595.0" cy="172.5" r="4" fill="#fff" stroke="#111" stroke-width="1.5"/>
<circle cx="625.0" cy="149.0" r="4" fill="#fff" stroke="#111" stroke-width="1.5"/>
<circle cx="655.0" cy="125.5" r="4" fill="#fff" stroke="#111" stroke-width="1.5"/>
<circle cx="685.0" cy="102.0" r="4" fill="#fff" stroke="#111" stroke-width="1.5"/>
<circle cx="715.0" cy="90.2" r="4" fill="#fff" stroke="#111" stroke-width="1.5"/>
<rect x="586.1" y="168.5" width="8" height="8" fill="#777" stroke="#111"/>
<rect x="606.7" y="145.0" width="8" height="8" fill="#777" stroke="#111"/>
<rect x="628.9" y="121.5" width="8" height="8" fill="#777" stroke="#111"/>
<rect x="654.6" y="98.0" width="8" height="8" fill="#777" stroke="#111"/>
<rect x="689.5" y="86.2" width="8" height="8" fill="#777" stroke="#111"/>
<text x="438.0" y="73.0" font-family="Arial,sans-serif" font-size="10" font-weight="normal" text-anchor="start" fill="#111">○ raw</text>
<text x="438.0" y="89.0" font-family="Arial,sans-serif" font-size="10" font-weight="normal" text-anchor="start" fill="#111">■ calibrated</text>
<text x="805.0" y="42.0" font-family="Arial,sans-serif" font-size="14" font-weight="bold" text-anchor="start" fill="#111">C  Abstention changes two risks</text>
<line x1="805.0" y1="55.0" x2="805.0" y2="290.0" stroke="#111" stroke-width="1"/>
<line x1="805.0" y1="290.0" x2="1105.0" y2="290.0" stroke="#111" stroke-width="1"/>
<text x="955.0" y="324.0" font-family="Arial,sans-serif" font-size="11" font-weight="normal" text-anchor="middle" fill="#111">coverage (fraction answered)</text>
<text x="797.0" y="294.0" font-family="Arial,sans-serif" font-size="10" font-weight="normal" text-anchor="end" fill="#111">0</text>
<text x="797.0" y="59.0" font-family="Arial,sans-serif" font-size="10" font-weight="normal" text-anchor="end" fill="#111">0.35</text>
<text x="805.0" y="306.0" font-family="Arial,sans-serif" font-size="10" font-weight="normal" text-anchor="middle" fill="#111">0</text>
<text x="1105.0" y="306.0" font-family="Arial,sans-serif" font-size="10" font-weight="normal" text-anchor="middle" fill="#111">1</text>
<text x="765.0" y="172.5" font-family="Arial,sans-serif" font-size="10" font-weight="normal" text-anchor="middle" fill="#111">error rate</text>
<polyline points="865.0,189.3 925.0,172.5 985.0,144.5 1045.0,113.7 1105.0,81.9" fill="none" stroke="#111" stroke-width="2"/>
<polyline points="865.0,269.9 925.0,243.0 985.0,202.7 1045.0,149.0 1105.0,81.9" fill="none" stroke="#111" stroke-width="2" stroke-dasharray="6 3"/>
<circle cx="865.0" cy="189.3" r="4" fill="#fff" stroke="#111" stroke-width="1.5"/>
<circle cx="925.0" cy="172.5" r="4" fill="#fff" stroke="#111" stroke-width="1.5"/>
<circle cx="985.0" cy="144.5" r="4" fill="#fff" stroke="#111" stroke-width="1.5"/>
<circle cx="1045.0" cy="113.7" r="4" fill="#fff" stroke="#111" stroke-width="1.5"/>
<circle cx="1105.0" cy="81.9" r="4" fill="#fff" stroke="#111" stroke-width="1.5"/>
<rect x="861.0" y="265.9" width="8" height="8" fill="#777" stroke="#111"/>
<rect x="921.0" y="239.0" width="8" height="8" fill="#777" stroke="#111"/>
<rect x="981.0" y="198.7" width="8" height="8" fill="#777" stroke="#111"/>
<rect x="1041.0" y="145.0" width="8" height="8" fill="#777" stroke="#111"/>
<rect x="1101.0" y="77.9" width="8" height="8" fill="#777" stroke="#111"/>
<circle cx="925.0" cy="243.0" r="8" fill="#fff" stroke="#111" stroke-width="1.5"/>
<text x="935.0" y="236.0" font-family="Arial,sans-serif" font-size="10" font-weight="normal" text-anchor="start" fill="#111">CRC α=0.10</text>
<text x="813.0" y="73.0" font-family="Arial,sans-serif" font-size="10" font-weight="normal" text-anchor="start" fill="#111">○ selective risk</text>
<text x="813.0" y="89.0" font-family="Arial,sans-serif" font-size="10" font-weight="normal" text-anchor="start" fill="#111">■ marginal error</text>
<text x="570.0" y="351.0" font-family="Arial,sans-serif" font-size="10" font-weight="normal" text-anchor="middle" fill="#111">All values are deterministic analytical or synthetic fixtures; they are not measurements of a deployed model or accelerator.</text>
</svg>