<?xml version="1.0" encoding="utf-8" standalone="no"?>
<!DOCTYPE svg PUBLIC "-//W3C//DTD SVG 1.1//EN"
  "http://www.w3.org/Graphics/SVG/1.1/DTD/svg11.dtd">
<svg xmlns:xlink="http://www.w3.org/1999/xlink" width="554.651562pt" height="223.2pt" viewBox="0 0 554.651562 223.2" xmlns="http://www.w3.org/2000/svg" version="1.1">
 <metadata>
  <rdf:RDF xmlns:dc="http://purl.org/dc/elements/1.1/" xmlns:cc="http://creativecommons.org/ns#" xmlns:rdf="http://www.w3.org/1999/02/22-rdf-syntax-ns#">
   <cc:Work>
    <dc:type rdf:resource="http://purl.org/dc/dcmitype/StillImage"/>
    <dc:date>2026-07-20T08:35:34.917845</dc:date>
    <dc:format>image/svg+xml</dc:format>
    <dc:creator>
     <cc:Agent>
      <dc:title>Matplotlib v3.11.1, https://matplotlib.org/</dc:title>
     </cc:Agent>
    </dc:creator>
   </cc:Work>
  </rdf:RDF>
 </metadata>
 <defs>
  <style type="text/css">*{stroke-linejoin: round; stroke-linecap: butt}</style>
 </defs>
 <g id="figure_1">
  <g id="patch_1">
   <path d="M 0 223.2 
L 554.651562 223.2 
L 554.651562 0 
L 0 0 
z
" style="fill: #ffffff"/>
  </g>
  <g id="axes_1">
   <g id="patch_2">
    <path d="M 44.103906 185 
L 272.051562 185 
L 272.051562 7.2 
L 44.103906 7.2 
z
" style="fill: #ffffff"/>
   </g>
   <g id="matplotlib.axis_1">
    <g id="xtick_1">
     <g id="line2d_1">
      <defs>
       <path id="m0b7251b302" d="M 0 0 
L 0 3.5 
" style="stroke: #000000; stroke-width: 0.8"/>
      </defs>
      <g>
       <use xlink:href="#m0b7251b302" x="50.236079" y="185" style="stroke: #000000; stroke-width: 0.8"/>
      </g>
     </g>
     <g id="text_1">
      <!-- 0 -->
      <g transform="translate(47.054829 199.597656) scale(0.1 -0.1)">
       <defs>
        <path id="DejaVuSans-13" d="M 2034 4250 
Q 1547 4250 1301 3770 
Q 1056 3291 1056 2328 
Q 1056 1369 1301 889 
Q 1547 409 2034 409 
Q 2525 409 2770 889 
Q 3016 1369 3016 2328 
Q 3016 3291 2770 3770 
Q 2525 4250 2034 4250 
z
M 2034 4750 
Q 2819 4750 3233 4129 
Q 3647 3509 3647 2328 
Q 3647 1150 3233 529 
Q 2819 -91 2034 -91 
Q 1250 -91 836 529 
Q 422 1150 422 2328 
Q 422 3509 836 4129 
Q 1250 4750 2034 4750 
z
" transform="scale(0.015625)"/>
       </defs>
       <use xlink:href="#DejaVuSans-13"/>
      </g>
     </g>
    </g>
    <g id="xtick_2">
     <g id="line2d_2">
      <g>
       <use xlink:href="#m0b7251b302" x="92.526924" y="185" style="stroke: #000000; stroke-width: 0.8"/>
      </g>
     </g>
     <g id="text_2">
      <!-- 10 -->
      <g transform="translate(86.164424 199.597656) scale(0.1 -0.1)">
       <defs>
        <path id="DejaVuSans-14" d="M 794 531 
L 1825 531 
L 1825 4091 
L 703 3866 
L 703 4441 
L 1819 4666 
L 2450 4666 
L 2450 531 
L 3481 531 
L 3481 0 
L 794 0 
L 794 531 
z
" transform="scale(0.015625)"/>
       </defs>
       <use xlink:href="#DejaVuSans-14"/>
       <use xlink:href="#DejaVuSans-13" transform="translate(63.625 0)"/>
      </g>
     </g>
    </g>
    <g id="xtick_3">
     <g id="line2d_3">
      <g>
       <use xlink:href="#m0b7251b302" x="134.817769" y="185" style="stroke: #000000; stroke-width: 0.8"/>
      </g>
     </g>
     <g id="text_3">
      <!-- 20 -->
      <g transform="translate(128.455269 199.597656) scale(0.1 -0.1)">
       <defs>
        <path id="DejaVuSans-15" d="M 1228 531 
L 3431 531 
L 3431 0 
L 469 0 
L 469 531 
Q 828 903 1448 1529 
Q 2069 2156 2228 2338 
Q 2531 2678 2651 2914 
Q 2772 3150 2772 3378 
Q 2772 3750 2511 3984 
Q 2250 4219 1831 4219 
Q 1534 4219 1204 4116 
Q 875 4013 500 3803 
L 500 4441 
Q 881 4594 1212 4672 
Q 1544 4750 1819 4750 
Q 2544 4750 2975 4387 
Q 3406 4025 3406 3419 
Q 3406 3131 3298 2873 
Q 3191 2616 2906 2266 
Q 2828 2175 2409 1742 
Q 1991 1309 1228 531 
z
" transform="scale(0.015625)"/>
       </defs>
       <use xlink:href="#DejaVuSans-15"/>
       <use xlink:href="#DejaVuSans-13" transform="translate(63.625 0)"/>
      </g>
     </g>
    </g>
    <g id="xtick_4">
     <g id="line2d_4">
      <g>
       <use xlink:href="#m0b7251b302" x="177.108615" y="185" style="stroke: #000000; stroke-width: 0.8"/>
      </g>
     </g>
     <g id="text_4">
      <!-- 30 -->
      <g transform="translate(170.746115 199.597656) scale(0.1 -0.1)">
       <defs>
        <path id="DejaVuSans-16" d="M 2597 2516 
Q 3050 2419 3304 2112 
Q 3559 1806 3559 1356 
Q 3559 666 3084 287 
Q 2609 -91 1734 -91 
Q 1441 -91 1130 -33 
Q 819 25 488 141 
L 488 750 
Q 750 597 1062 519 
Q 1375 441 1716 441 
Q 2309 441 2620 675 
Q 2931 909 2931 1356 
Q 2931 1769 2642 2001 
Q 2353 2234 1838 2234 
L 1294 2234 
L 1294 2753 
L 1863 2753 
Q 2328 2753 2575 2939 
Q 2822 3125 2822 3475 
Q 2822 3834 2567 4026 
Q 2313 4219 1838 4219 
Q 1578 4219 1281 4162 
Q 984 4106 628 3988 
L 628 4550 
Q 988 4650 1302 4700 
Q 1616 4750 1894 4750 
Q 2613 4750 3031 4423 
Q 3450 4097 3450 3541 
Q 3450 3153 3228 2886 
Q 3006 2619 2597 2516 
z
" transform="scale(0.015625)"/>
       </defs>
       <use xlink:href="#DejaVuSans-16"/>
       <use xlink:href="#DejaVuSans-13" transform="translate(63.625 0)"/>
      </g>
     </g>
    </g>
    <g id="xtick_5">
     <g id="line2d_5">
      <g>
       <use xlink:href="#m0b7251b302" x="219.39946" y="185" style="stroke: #000000; stroke-width: 0.8"/>
      </g>
     </g>
     <g id="text_5">
      <!-- 40 -->
      <g transform="translate(213.03696 199.597656) scale(0.1 -0.1)">
       <defs>
        <path id="DejaVuSans-17" d="M 2419 4116 
L 825 1625 
L 2419 1625 
L 2419 4116 
z
M 2253 4666 
L 3047 4666 
L 3047 1625 
L 3713 1625 
L 3713 1100 
L 3047 1100 
L 3047 0 
L 2419 0 
L 2419 1100 
L 313 1100 
L 313 1709 
L 2253 4666 
z
" transform="scale(0.015625)"/>
       </defs>
       <use xlink:href="#DejaVuSans-17"/>
       <use xlink:href="#DejaVuSans-13" transform="translate(63.625 0)"/>
      </g>
     </g>
    </g>
    <g id="xtick_6">
     <g id="line2d_6">
      <g>
       <use xlink:href="#m0b7251b302" x="261.690305" y="185" style="stroke: #000000; stroke-width: 0.8"/>
      </g>
     </g>
     <g id="text_6">
      <!-- 50 -->
      <g transform="translate(255.327805 199.597656) scale(0.1 -0.1)">
       <defs>
        <path id="DejaVuSans-18" d="M 691 4666 
L 3169 4666 
L 3169 4134 
L 1269 4134 
L 1269 2991 
Q 1406 3038 1543 3061 
Q 1681 3084 1819 3084 
Q 2600 3084 3056 2656 
Q 3513 2228 3513 1497 
Q 3513 744 3044 326 
Q 2575 -91 1722 -91 
Q 1428 -91 1123 -41 
Q 819 9 494 109 
L 494 744 
Q 775 591 1075 516 
Q 1375 441 1709 441 
Q 2250 441 2565 725 
Q 2881 1009 2881 1497 
Q 2881 1984 2565 2268 
Q 2250 2553 1709 2553 
Q 1456 2553 1204 2497 
Q 953 2441 691 2322 
L 691 4666 
z
" transform="scale(0.015625)"/>
       </defs>
       <use xlink:href="#DejaVuSans-18"/>
       <use xlink:href="#DejaVuSans-13" transform="translate(63.625 0)"/>
      </g>
     </g>
    </g>
    <g id="text_7">
     <!-- turn -->
     <g transform="translate(147.812109 213.597656) scale(0.1 -0.1)">
      <defs>
       <path id="DejaVuSans-57" d="M 1172 4494 
L 1172 3500 
L 2356 3500 
L 2356 3053 
L 1172 3053 
L 1172 1153 
Q 1172 725 1289 603 
Q 1406 481 1766 481 
L 2356 481 
L 2356 0 
L 1766 0 
Q 1100 0 847 248 
Q 594 497 594 1153 
L 594 3053 
L 172 3053 
L 172 3500 
L 594 3500 
L 594 4494 
L 1172 4494 
z
" transform="scale(0.015625)"/>
       <path id="DejaVuSans-58" d="M 544 1381 
L 544 3500 
L 1119 3500 
L 1119 1403 
Q 1119 906 1312 657 
Q 1506 409 1894 409 
Q 2359 409 2629 706 
Q 2900 1003 2900 1516 
L 2900 3500 
L 3475 3500 
L 3475 0 
L 2900 0 
L 2900 538 
Q 2691 219 2414 64 
Q 2138 -91 1772 -91 
Q 1169 -91 856 284 
Q 544 659 544 1381 
z
M 1991 3584 
L 1991 3584 
z
" transform="scale(0.015625)"/>
       <path id="DejaVuSans-55" d="M 2631 2963 
Q 2534 3019 2420 3045 
Q 2306 3072 2169 3072 
Q 1681 3072 1420 2755 
Q 1159 2438 1159 1844 
L 1159 0 
L 581 0 
L 581 3500 
L 1159 3500 
L 1159 2956 
Q 1341 3275 1631 3429 
Q 1922 3584 2338 3584 
Q 2397 3584 2469 3576 
Q 2541 3569 2628 3553 
L 2631 2963 
z
" transform="scale(0.015625)"/>
       <path id="DejaVuSans-51" d="M 3513 2113 
L 3513 0 
L 2938 0 
L 2938 2094 
Q 2938 2591 2744 2837 
Q 2550 3084 2163 3084 
Q 1697 3084 1428 2787 
Q 1159 2491 1159 1978 
L 1159 0 
L 581 0 
L 581 3500 
L 1159 3500 
L 1159 2956 
Q 1366 3272 1645 3428 
Q 1925 3584 2291 3584 
Q 2894 3584 3203 3211 
Q 3513 2838 3513 2113 
z
" transform="scale(0.015625)"/>
      </defs>
      <use xlink:href="#DejaVuSans-57"/>
      <use xlink:href="#DejaVuSans-58" transform="translate(39.203125 0)"/>
      <use xlink:href="#DejaVuSans-55" transform="translate(102.578125 0)"/>
      <use xlink:href="#DejaVuSans-51" transform="translate(141.9375 0)"/>
     </g>
    </g>
   </g>
   <g id="matplotlib.axis_2">
    <g id="ytick_1">
     <g id="line2d_7">
      <defs>
       <path id="m88434c8219" d="M 0 0 
L -3.5 0 
" style="stroke: #000000; stroke-width: 0.8"/>
      </defs>
      <g>
       <use xlink:href="#m88434c8219" x="44.103906" y="171.413064" style="stroke: #000000; stroke-width: 0.8"/>
      </g>
     </g>
     <g id="text_8">
      <!-- 0.6 -->
      <g transform="translate(21.200781 175.211893) scale(0.1 -0.1)">
       <defs>
        <path id="DejaVuSans-11" d="M 684 794 
L 1344 794 
L 1344 0 
L 684 0 
L 684 794 
z
" transform="scale(0.015625)"/>
        <path id="DejaVuSans-19" d="M 2113 2584 
Q 1688 2584 1439 2293 
Q 1191 2003 1191 1497 
Q 1191 994 1439 701 
Q 1688 409 2113 409 
Q 2538 409 2786 701 
Q 3034 994 3034 1497 
Q 3034 2003 2786 2293 
Q 2538 2584 2113 2584 
z
M 3366 4563 
L 3366 3988 
Q 3128 4100 2886 4159 
Q 2644 4219 2406 4219 
Q 1781 4219 1451 3797 
Q 1122 3375 1075 2522 
Q 1259 2794 1537 2939 
Q 1816 3084 2150 3084 
Q 2853 3084 3261 2657 
Q 3669 2231 3669 1497 
Q 3669 778 3244 343 
Q 2819 -91 2113 -91 
Q 1303 -91 875 529 
Q 447 1150 447 2328 
Q 447 3434 972 4092 
Q 1497 4750 2381 4750 
Q 2619 4750 2861 4703 
Q 3103 4656 3366 4563 
z
" transform="scale(0.015625)"/>
       </defs>
       <use xlink:href="#DejaVuSans-13"/>
       <use xlink:href="#DejaVuSans-11" transform="translate(63.625 0)"/>
       <use xlink:href="#DejaVuSans-19" transform="translate(95.40625 0)"/>
      </g>
     </g>
    </g>
    <g id="ytick_2">
     <g id="line2d_8">
      <g>
       <use xlink:href="#m88434c8219" x="44.103906" y="137.77068" style="stroke: #000000; stroke-width: 0.8"/>
      </g>
     </g>
     <g id="text_9">
      <!-- 0.8 -->
      <g transform="translate(21.200781 141.569508) scale(0.1 -0.1)">
       <defs>
        <path id="DejaVuSans-1b" d="M 2034 2216 
Q 1584 2216 1326 1975 
Q 1069 1734 1069 1313 
Q 1069 891 1326 650 
Q 1584 409 2034 409 
Q 2484 409 2743 651 
Q 3003 894 3003 1313 
Q 3003 1734 2745 1975 
Q 2488 2216 2034 2216 
z
M 1403 2484 
Q 997 2584 770 2862 
Q 544 3141 544 3541 
Q 544 4100 942 4425 
Q 1341 4750 2034 4750 
Q 2731 4750 3128 4425 
Q 3525 4100 3525 3541 
Q 3525 3141 3298 2862 
Q 3072 2584 2669 2484 
Q 3125 2378 3379 2068 
Q 3634 1759 3634 1313 
Q 3634 634 3220 271 
Q 2806 -91 2034 -91 
Q 1263 -91 848 271 
Q 434 634 434 1313 
Q 434 1759 690 2068 
Q 947 2378 1403 2484 
z
M 1172 3481 
Q 1172 3119 1398 2916 
Q 1625 2713 2034 2713 
Q 2441 2713 2670 2916 
Q 2900 3119 2900 3481 
Q 2900 3844 2670 4047 
Q 2441 4250 2034 4250 
Q 1625 4250 1398 4047 
Q 1172 3844 1172 3481 
z
" transform="scale(0.015625)"/>
       </defs>
       <use xlink:href="#DejaVuSans-13"/>
       <use xlink:href="#DejaVuSans-11" transform="translate(63.625 0)"/>
       <use xlink:href="#DejaVuSans-1b" transform="translate(95.40625 0)"/>
      </g>
     </g>
    </g>
    <g id="ytick_3">
     <g id="line2d_9">
      <g>
       <use xlink:href="#m88434c8219" x="44.103906" y="104.128296" style="stroke: #000000; stroke-width: 0.8"/>
      </g>
     </g>
     <g id="text_10">
      <!-- 1.0 -->
      <g transform="translate(21.200781 107.927124) scale(0.1 -0.1)">
       <use xlink:href="#DejaVuSans-14"/>
       <use xlink:href="#DejaVuSans-11" transform="translate(63.625 0)"/>
       <use xlink:href="#DejaVuSans-13" transform="translate(95.40625 0)"/>
      </g>
     </g>
    </g>
    <g id="ytick_4">
     <g id="line2d_10">
      <g>
       <use xlink:href="#m88434c8219" x="44.103906" y="70.485912" style="stroke: #000000; stroke-width: 0.8"/>
      </g>
     </g>
     <g id="text_11">
      <!-- 1.2 -->
      <g transform="translate(21.200781 74.28474) scale(0.1 -0.1)">
       <use xlink:href="#DejaVuSans-14"/>
       <use xlink:href="#DejaVuSans-11" transform="translate(63.625 0)"/>
       <use xlink:href="#DejaVuSans-15" transform="translate(95.40625 0)"/>
      </g>
     </g>
    </g>
    <g id="ytick_5">
     <g id="line2d_11">
      <g>
       <use xlink:href="#m88434c8219" x="44.103906" y="36.843528" style="stroke: #000000; stroke-width: 0.8"/>
      </g>
     </g>
     <g id="text_12">
      <!-- 1.4 -->
      <g transform="translate(21.200781 40.642356) scale(0.1 -0.1)">
       <use xlink:href="#DejaVuSans-14"/>
       <use xlink:href="#DejaVuSans-11" transform="translate(63.625 0)"/>
       <use xlink:href="#DejaVuSans-17" transform="translate(95.40625 0)"/>
      </g>
     </g>
    </g>
    <g id="text_13">
     <!-- context utilization -->
     <g transform="translate(14.798438 141.096875) rotate(-90) scale(0.1 -0.1)">
      <defs>
       <path id="DejaVuSans-46" d="M 3122 3366 
L 3122 2828 
Q 2878 2963 2633 3030 
Q 2388 3097 2138 3097 
Q 1578 3097 1268 2742 
Q 959 2388 959 1747 
Q 959 1106 1268 751 
Q 1578 397 2138 397 
Q 2388 397 2633 464 
Q 2878 531 3122 666 
L 3122 134 
Q 2881 22 2623 -34 
Q 2366 -91 2075 -91 
Q 1284 -91 818 406 
Q 353 903 353 1747 
Q 353 2603 823 3093 
Q 1294 3584 2113 3584 
Q 2378 3584 2631 3529 
Q 2884 3475 3122 3366 
z
" transform="scale(0.015625)"/>
       <path id="DejaVuSans-52" d="M 1959 3097 
Q 1497 3097 1228 2736 
Q 959 2375 959 1747 
Q 959 1119 1226 758 
Q 1494 397 1959 397 
Q 2419 397 2687 759 
Q 2956 1122 2956 1747 
Q 2956 2369 2687 2733 
Q 2419 3097 1959 3097 
z
M 1959 3584 
Q 2709 3584 3137 3096 
Q 3566 2609 3566 1747 
Q 3566 888 3137 398 
Q 2709 -91 1959 -91 
Q 1206 -91 779 398 
Q 353 888 353 1747 
Q 353 2609 779 3096 
Q 1206 3584 1959 3584 
z
" transform="scale(0.015625)"/>
       <path id="DejaVuSans-48" d="M 3597 1894 
L 3597 1613 
L 953 1613 
Q 991 1019 1311 708 
Q 1631 397 2203 397 
Q 2534 397 2845 478 
Q 3156 559 3463 722 
L 3463 178 
Q 3153 47 2828 -22 
Q 2503 -91 2169 -91 
Q 1331 -91 842 396 
Q 353 884 353 1716 
Q 353 2575 817 3079 
Q 1281 3584 2069 3584 
Q 2775 3584 3186 3129 
Q 3597 2675 3597 1894 
z
M 3022 2063 
Q 3016 2534 2758 2815 
Q 2500 3097 2075 3097 
Q 1594 3097 1305 2825 
Q 1016 2553 972 2059 
L 3022 2063 
z
" transform="scale(0.015625)"/>
       <path id="DejaVuSans-5b" d="M 3513 3500 
L 2247 1797 
L 3578 0 
L 2900 0 
L 1881 1375 
L 863 0 
L 184 0 
L 1544 1831 
L 300 3500 
L 978 3500 
L 1906 2253 
L 2834 3500 
L 3513 3500 
z
" transform="scale(0.015625)"/>
       <path id="DejaVuSans-3" transform="scale(0.015625)"/>
       <path id="DejaVuSans-4c" d="M 603 3500 
L 1178 3500 
L 1178 0 
L 603 0 
L 603 3500 
z
M 603 4863 
L 1178 4863 
L 1178 4134 
L 603 4134 
L 603 4863 
z
" transform="scale(0.015625)"/>
       <path id="DejaVuSans-4f" d="M 603 4863 
L 1178 4863 
L 1178 0 
L 603 0 
L 603 4863 
z
" transform="scale(0.015625)"/>
       <path id="DejaVuSans-5d" d="M 353 3500 
L 3084 3500 
L 3084 2975 
L 922 459 
L 3084 459 
L 3084 0 
L 275 0 
L 275 525 
L 2438 3041 
L 353 3041 
L 353 3500 
z
" transform="scale(0.015625)"/>
       <path id="DejaVuSans-44" d="M 2194 1759 
Q 1497 1759 1228 1600 
Q 959 1441 959 1056 
Q 959 750 1161 570 
Q 1363 391 1709 391 
Q 2188 391 2477 730 
Q 2766 1069 2766 1631 
L 2766 1759 
L 2194 1759 
z
M 3341 1997 
L 3341 0 
L 2766 0 
L 2766 531 
Q 2569 213 2275 61 
Q 1981 -91 1556 -91 
Q 1019 -91 701 211 
Q 384 513 384 1019 
Q 384 1609 779 1909 
Q 1175 2209 1959 2209 
L 2766 2209 
L 2766 2266 
Q 2766 2663 2505 2880 
Q 2244 3097 1772 3097 
Q 1472 3097 1187 3025 
Q 903 2953 641 2809 
L 641 3341 
Q 956 3463 1253 3523 
Q 1550 3584 1831 3584 
Q 2591 3584 2966 3190 
Q 3341 2797 3341 1997 
z
" transform="scale(0.015625)"/>
      </defs>
      <use xlink:href="#DejaVuSans-46"/>
      <use xlink:href="#DejaVuSans-52" transform="translate(54.984375 0)"/>
      <use xlink:href="#DejaVuSans-51" transform="translate(116.171875 0)"/>
      <use xlink:href="#DejaVuSans-57" transform="translate(179.546875 0)"/>
      <use xlink:href="#DejaVuSans-48" transform="translate(218.75 0)"/>
      <use xlink:href="#DejaVuSans-5b" transform="translate(278.53125 0)"/>
      <use xlink:href="#DejaVuSans-57" transform="translate(337.71875 0)"/>
      <use xlink:href="#DejaVuSans-3" transform="translate(376.921875 0)"/>
      <use xlink:href="#DejaVuSans-58" transform="translate(408.703125 0)"/>
      <use xlink:href="#DejaVuSans-57" transform="translate(472.078125 0)"/>
      <use xlink:href="#DejaVuSans-4c" transform="translate(511.28125 0)"/>
      <use xlink:href="#DejaVuSans-4f" transform="translate(539.0625 0)"/>
      <use xlink:href="#DejaVuSans-4c" transform="translate(566.84375 0)"/>
      <use xlink:href="#DejaVuSans-5d" transform="translate(594.625 0)"/>
      <use xlink:href="#DejaVuSans-44" transform="translate(647.109375 0)"/>
      <use xlink:href="#DejaVuSans-57" transform="translate(708.390625 0)"/>
      <use xlink:href="#DejaVuSans-4c" transform="translate(747.59375 0)"/>
      <use xlink:href="#DejaVuSans-52" transform="translate(775.375 0)"/>
      <use xlink:href="#DejaVuSans-51" transform="translate(836.5625 0)"/>
     </g>
    </g>
   </g>
   <g id="line2d_12">
    <path d="M 54.465163 176.918182 
L 58.694248 173.401023 
L 62.923332 169.883865 
L 67.152417 166.366707 
L 71.381501 162.849548 
L 75.610586 159.33239 
L 79.839671 155.815232 
L 84.068755 154.438952 
L 88.29784 150.921794 
L 92.526924 147.404636 
L 96.756009 143.887477 
L 100.985093 140.370319 
L 105.214178 136.853161 
L 109.443262 133.336002 
L 113.672347 131.806803 
L 117.901431 128.289645 
L 122.130516 124.772486 
L 126.3596 121.255328 
L 130.588685 117.73817 
L 134.817769 114.221011 
L 139.046854 110.703853 
L 143.275939 109.480494 
L 147.505023 105.963335 
L 151.734108 102.446177 
L 155.963192 98.929019 
L 160.192277 95.41186 
L 164.421361 91.894702 
L 168.650446 88.377544 
L 172.87953 84.860385 
L 177.108615 81.343227 
L 181.337699 79.814028 
L 185.566784 76.296869 
L 189.795868 72.779711 
L 194.024953 69.262553 
L 198.254037 65.745394 
L 202.483122 62.228236 
L 206.712206 58.711078 
L 210.941291 55.193919 
L 215.170376 51.676761 
L 219.39946 50.606321 
L 223.628545 47.089163 
L 227.857629 43.572005 
L 232.086714 40.054846 
L 236.315798 36.537688 
L 240.544883 33.02053 
L 244.773967 29.503371 
L 249.003052 25.986213 
L 253.232136 22.469055 
L 257.461221 18.951896 
L 261.690305 15.434738 
" clip-path="url(#p04cc852fba)" style="fill: none; stroke: #1f77b4; stroke-width: 1.5; stroke-linecap: square"/>
   </g>
   <g id="line2d_13">
    <path d="M 54.465163 176.765262 
L 58.694248 173.248104 
L 62.923332 169.730945 
L 67.152417 166.213787 
L 71.381501 162.696629 
L 75.610586 159.17947 
L 79.839671 155.662312 
L 84.068755 154.286033 
L 88.29784 150.768874 
L 92.526924 147.251716 
L 96.756009 143.734557 
L 100.985093 140.217399 
L 105.214178 136.700241 
L 109.443262 133.183082 
L 113.672347 131.653883 
L 117.901431 128.136725 
L 122.130516 124.619567 
L 126.3596 121.102408 
L 130.588685 117.58525 
L 134.817769 114.068092 
L 139.046854 110.550933 
L 143.275939 109.327574 
L 147.505023 105.810415 
L 151.734108 102.293257 
L 155.963192 98.776099 
L 160.192277 95.25894 
L 164.421361 91.741782 
L 168.650446 88.224624 
L 172.87953 84.707465 
L 177.108615 81.190307 
L 181.337699 79.661108 
L 185.566784 76.143949 
L 189.795868 72.626791 
L 194.024953 69.109633 
L 198.254037 65.592474 
L 202.483122 62.075316 
L 206.712206 58.558158 
L 210.941291 55.040999 
L 215.170376 51.523841 
L 219.39946 50.453402 
L 223.628545 46.936243 
L 227.857629 43.419085 
L 232.086714 39.901927 
L 236.315798 36.384768 
L 240.544883 32.86761 
L 244.773967 29.350452 
L 249.003052 25.833293 
L 253.232136 22.316135 
L 257.461221 18.798977 
L 261.690305 15.281818 
" clip-path="url(#p04cc852fba)" style="fill: none; stroke-dasharray: 5.55,2.4; stroke-dashoffset: 0; stroke: #ff7f0e; stroke-width: 1.5"/>
   </g>
   <g id="line2d_14">
    <path d="M 54.465163 176.918182 
L 58.694248 173.401023 
L 62.923332 169.883865 
L 67.152417 166.366707 
L 71.381501 162.849548 
L 75.610586 159.33239 
L 79.839671 155.815232 
L 84.068755 154.438952 
L 88.29784 150.921794 
L 92.526924 147.404636 
L 96.756009 143.887477 
L 100.985093 140.370319 
L 105.214178 136.853161 
L 109.443262 133.336002 
L 113.672347 131.806803 
L 117.901431 169.119266 
L 122.130516 165.602107 
L 126.3596 162.084949 
L 130.588685 158.56779 
L 134.817769 155.050632 
L 139.046854 151.533474 
L 143.275939 150.310114 
L 147.505023 146.792956 
L 151.734108 143.275798 
L 155.963192 139.758639 
L 160.192277 136.241481 
L 164.421361 132.724323 
L 168.650446 164.378748 
L 172.87953 160.861589 
L 177.108615 157.344431 
L 181.337699 155.815232 
L 185.566784 152.298073 
L 189.795868 148.780915 
L 194.024953 145.263757 
L 198.254037 141.746598 
L 202.483122 138.22944 
L 206.712206 134.712282 
L 210.941291 131.195123 
L 215.170376 162.849548 
L 219.39946 161.779109 
L 223.628545 158.261951 
L 227.857629 154.744792 
L 232.086714 151.227634 
L 236.315798 147.710476 
L 240.544883 144.193317 
L 244.773967 140.676159 
L 249.003052 137.159001 
L 253.232136 133.641842 
L 257.461221 161.779109 
L 261.690305 158.261951 
" clip-path="url(#p04cc852fba)" style="fill: none; stroke: #2ca02c; stroke-width: 1.5; stroke-linecap: square"/>
   </g>
   <g id="line2d_15">
    <path d="M 54.465163 176.765262 
L 58.694248 173.248104 
L 62.923332 169.730945 
L 67.152417 166.213787 
L 71.381501 162.696629 
L 75.610586 159.17947 
L 79.839671 155.662312 
L 84.068755 154.286033 
L 88.29784 150.768874 
L 92.526924 147.251716 
L 96.756009 143.734557 
L 100.985093 140.217399 
L 105.214178 136.700241 
L 109.443262 133.183082 
L 113.672347 131.653883 
L 117.901431 168.966346 
L 122.130516 165.449187 
L 126.3596 161.932029 
L 130.588685 158.414871 
L 134.817769 154.897712 
L 139.046854 151.380554 
L 143.275939 150.157194 
L 147.505023 146.640036 
L 151.734108 143.122878 
L 155.963192 139.605719 
L 160.192277 136.088561 
L 164.421361 132.571403 
L 168.650446 164.225828 
L 172.87953 160.708669 
L 177.108615 157.191511 
L 181.337699 155.662312 
L 185.566784 152.145154 
L 189.795868 148.627995 
L 194.024953 145.110837 
L 198.254037 141.593679 
L 202.483122 138.07652 
L 206.712206 134.559362 
L 210.941291 131.042203 
L 215.170376 162.696629 
L 219.39946 161.626189 
L 223.628545 158.109031 
L 227.857629 154.591872 
L 232.086714 151.074714 
L 236.315798 147.557556 
L 240.544883 144.040397 
L 244.773967 140.523239 
L 249.003052 137.006081 
L 253.232136 133.488922 
L 257.461221 161.626189 
L 261.690305 158.109031 
" clip-path="url(#p04cc852fba)" style="fill: none; stroke-dasharray: 5.55,2.4; stroke-dashoffset: 0; stroke: #d62728; stroke-width: 1.5"/>
   </g>
   <g id="line2d_16">
    <path d="M 44.103906 104.128296 
L 272.051562 104.128296 
" clip-path="url(#p04cc852fba)" style="fill: none; stroke-dasharray: 1.5,2.475; stroke-dashoffset: 0; stroke: #808080; stroke-width: 1.5"/>
   </g>
   <g id="patch_3">
    <path d="M 44.103906 185 
L 44.103906 7.2 
" style="fill: none; stroke: #000000; stroke-width: 0.8; stroke-linejoin: miter; stroke-linecap: square"/>
   </g>
   <g id="patch_4">
    <path d="M 272.051562 185 
L 272.051562 7.2 
" style="fill: none; stroke: #000000; stroke-width: 0.8; stroke-linejoin: miter; stroke-linecap: square"/>
   </g>
   <g id="patch_5">
    <path d="M 44.103906 185 
L 272.051562 185 
" style="fill: none; stroke: #000000; stroke-width: 0.8; stroke-linejoin: miter; stroke-linecap: square"/>
   </g>
   <g id="patch_6">
    <path d="M 44.103906 7.2 
L 272.051562 7.2 
" style="fill: none; stroke: #000000; stroke-width: 0.8; stroke-linejoin: miter; stroke-linecap: square"/>
   </g>
   <g id="legend_1">
    <g id="patch_7">
     <path d="M 49.003906 54.802188 
L 111.314844 54.802188 
Q 112.714844 54.802188 112.714844 53.402188 
L 112.714844 12.1 
Q 112.714844 10.7 111.314844 10.7 
L 49.003906 10.7 
Q 47.603906 10.7 47.603906 12.1 
L 47.603906 53.402188 
Q 47.603906 54.802188 49.003906 54.802188 
z
" style="fill: #ffffff; opacity: 0.8; stroke: #cccccc; stroke-linejoin: miter"/>
    </g>
    <g id="line2d_17">
     <path d="M 50.403906 16.368906 
L 57.403906 16.368906 
L 64.403906 16.368906 
" style="fill: none; stroke: #1f77b4; stroke-width: 1.5; stroke-linecap: square"/>
    </g>
    <g id="text_14">
     <!-- off / stable -->
     <g transform="translate(70.003906 18.818906) scale(0.07 -0.07)">
      <defs>
       <path id="DejaVuSans-13ae" d="M 4531 4863 
L 4531 4384 
L 3981 4384 
Q 3672 4384 3551 4259 
Q 3431 4134 3431 3809 
L 3431 3500 
L 4378 3500 
L 4378 3053 
L 3431 3053 
L 3431 0 
L 2853 0 
L 2853 3053 
L 1275 3053 
L 1275 0 
L 697 0 
L 697 3053 
L 147 3053 
L 147 3500 
L 697 3500 
L 697 3744 
Q 697 4328 969 4595 
Q 1241 4863 1831 4863 
L 2375 4863 
L 2375 4384 
L 1825 4384 
Q 1516 4384 1394 4259 
Q 1275 4134 1275 3809 
L 1275 3500 
L 2853 3500 
L 2853 3744 
Q 2853 4328 3125 4595 
Q 3397 4863 3988 4863 
L 4531 4863 
z
" transform="scale(0.015625)"/>
       <path id="DejaVuSans-12" d="M 1625 4666 
L 2156 4666 
L 531 -594 
L 0 -594 
L 1625 4666 
z
" transform="scale(0.015625)"/>
       <path id="DejaVuSans-56" d="M 2834 3397 
L 2834 2853 
Q 2591 2978 2328 3040 
Q 2066 3103 1784 3103 
Q 1356 3103 1142 2972 
Q 928 2841 928 2578 
Q 928 2378 1081 2264 
Q 1234 2150 1697 2047 
L 1894 2003 
Q 2506 1872 2764 1633 
Q 3022 1394 3022 966 
Q 3022 478 2636 193 
Q 2250 -91 1575 -91 
Q 1294 -91 989 -36 
Q 684 19 347 128 
L 347 722 
Q 666 556 975 473 
Q 1284 391 1588 391 
Q 1994 391 2212 530 
Q 2431 669 2431 922 
Q 2431 1156 2273 1281 
Q 2116 1406 1581 1522 
L 1381 1569 
Q 847 1681 609 1914 
Q 372 2147 372 2553 
Q 372 3047 722 3315 
Q 1072 3584 1716 3584 
Q 2034 3584 2315 3537 
Q 2597 3491 2834 3397 
z
" transform="scale(0.015625)"/>
       <path id="DejaVuSans-45" d="M 3116 1747 
Q 3116 2381 2855 2742 
Q 2594 3103 2138 3103 
Q 1681 3103 1420 2742 
Q 1159 2381 1159 1747 
Q 1159 1113 1420 752 
Q 1681 391 2138 391 
Q 2594 391 2855 752 
Q 3116 1113 3116 1747 
z
M 1159 2969 
Q 1341 3281 1617 3432 
Q 1894 3584 2278 3584 
Q 2916 3584 3314 3078 
Q 3713 2572 3713 1747 
Q 3713 922 3314 415 
Q 2916 -91 2278 -91 
Q 1894 -91 1617 61 
Q 1341 213 1159 525 
L 1159 0 
L 581 0 
L 581 4863 
L 1159 4863 
L 1159 2969 
z
" transform="scale(0.015625)"/>
      </defs>
      <use xlink:href="#DejaVuSans-52"/>
      <use xlink:href="#DejaVuSans-13ae" transform="translate(61.1875 0)"/>
      <use xlink:href="#DejaVuSans-3" transform="translate(130.078125 0)"/>
      <use xlink:href="#DejaVuSans-12" transform="translate(161.859375 0)"/>
      <use xlink:href="#DejaVuSans-3" transform="translate(195.546875 0)"/>
      <use xlink:href="#DejaVuSans-56" transform="translate(227.328125 0)"/>
      <use xlink:href="#DejaVuSans-57" transform="translate(279.421875 0)"/>
      <use xlink:href="#DejaVuSans-44" transform="translate(318.625 0)"/>
      <use xlink:href="#DejaVuSans-45" transform="translate(379.90625 0)"/>
      <use xlink:href="#DejaVuSans-4f" transform="translate(443.390625 0)"/>
      <use xlink:href="#DejaVuSans-48" transform="translate(471.171875 0)"/>
     </g>
    </g>
    <g id="line2d_18">
     <path d="M 50.403906 26.869453 
L 57.403906 26.869453 
L 64.403906 26.869453 
" style="fill: none; stroke-dasharray: 5.55,2.4; stroke-dashoffset: 0; stroke: #ff7f0e; stroke-width: 1.5"/>
    </g>
    <g id="text_15">
     <!-- off / broken -->
     <g transform="translate(70.003906 29.319453) scale(0.07 -0.07)">
      <defs>
       <path id="DejaVuSans-4e" d="M 581 4863 
L 1159 4863 
L 1159 1991 
L 2875 3500 
L 3609 3500 
L 1753 1863 
L 3688 0 
L 2938 0 
L 1159 1709 
L 1159 0 
L 581 0 
L 581 4863 
z
" transform="scale(0.015625)"/>
      </defs>
      <use xlink:href="#DejaVuSans-52"/>
      <use xlink:href="#DejaVuSans-13ae" transform="translate(61.1875 0)"/>
      <use xlink:href="#DejaVuSans-3" transform="translate(130.078125 0)"/>
      <use xlink:href="#DejaVuSans-12" transform="translate(161.859375 0)"/>
      <use xlink:href="#DejaVuSans-3" transform="translate(195.546875 0)"/>
      <use xlink:href="#DejaVuSans-45" transform="translate(227.328125 0)"/>
      <use xlink:href="#DejaVuSans-55" transform="translate(290.8125 0)"/>
      <use xlink:href="#DejaVuSans-52" transform="translate(329.71875 0)"/>
      <use xlink:href="#DejaVuSans-4e" transform="translate(390.90625 0)"/>
      <use xlink:href="#DejaVuSans-48" transform="translate(445.25 0)"/>
      <use xlink:href="#DejaVuSans-51" transform="translate(506.78125 0)"/>
     </g>
    </g>
    <g id="line2d_19">
     <path d="M 50.403906 37.37 
L 57.403906 37.37 
L 64.403906 37.37 
" style="fill: none; stroke: #2ca02c; stroke-width: 1.5; stroke-linecap: square"/>
    </g>
    <g id="text_16">
     <!-- on / stable -->
     <g transform="translate(70.003906 39.82) scale(0.07 -0.07)">
      <use xlink:href="#DejaVuSans-52"/>
      <use xlink:href="#DejaVuSans-51" transform="translate(61.1875 0)"/>
      <use xlink:href="#DejaVuSans-3" transform="translate(124.5625 0)"/>
      <use xlink:href="#DejaVuSans-12" transform="translate(156.34375 0)"/>
      <use xlink:href="#DejaVuSans-3" transform="translate(190.03125 0)"/>
      <use xlink:href="#DejaVuSans-56" transform="translate(221.8125 0)"/>
      <use xlink:href="#DejaVuSans-57" transform="translate(273.90625 0)"/>
      <use xlink:href="#DejaVuSans-44" transform="translate(313.109375 0)"/>
      <use xlink:href="#DejaVuSans-45" transform="translate(374.390625 0)"/>
      <use xlink:href="#DejaVuSans-4f" transform="translate(437.875 0)"/>
      <use xlink:href="#DejaVuSans-48" transform="translate(465.65625 0)"/>
     </g>
    </g>
    <g id="line2d_20">
     <path d="M 50.403906 47.870547 
L 57.403906 47.870547 
L 64.403906 47.870547 
" style="fill: none; stroke-dasharray: 5.55,2.4; stroke-dashoffset: 0; stroke: #d62728; stroke-width: 1.5"/>
    </g>
    <g id="text_17">
     <!-- on / broken -->
     <g transform="translate(70.003906 50.320547) scale(0.07 -0.07)">
      <use xlink:href="#DejaVuSans-52"/>
      <use xlink:href="#DejaVuSans-51" transform="translate(61.1875 0)"/>
      <use xlink:href="#DejaVuSans-3" transform="translate(124.5625 0)"/>
      <use xlink:href="#DejaVuSans-12" transform="translate(156.34375 0)"/>
      <use xlink:href="#DejaVuSans-3" transform="translate(190.03125 0)"/>
      <use xlink:href="#DejaVuSans-45" transform="translate(221.8125 0)"/>
      <use xlink:href="#DejaVuSans-55" transform="translate(285.296875 0)"/>
      <use xlink:href="#DejaVuSans-52" transform="translate(324.203125 0)"/>
      <use xlink:href="#DejaVuSans-4e" transform="translate(385.390625 0)"/>
      <use xlink:href="#DejaVuSans-48" transform="translate(439.734375 0)"/>
      <use xlink:href="#DejaVuSans-51" transform="translate(501.265625 0)"/>
     </g>
    </g>
   </g>
  </g>
  <g id="axes_2">
   <g id="patch_8">
    <path d="M 319.503906 185 
L 547.451562 185 
L 547.451562 7.2 
L 319.503906 7.2 
z
" style="fill: #ffffff"/>
   </g>
   <g id="matplotlib.axis_3">
    <g id="xtick_7">
     <g id="line2d_21">
      <g>
       <use xlink:href="#m0b7251b302" x="321.230782" y="185" style="stroke: #000000; stroke-width: 0.8"/>
      </g>
     </g>
     <g id="text_18">
      <!-- 0 -->
      <g transform="translate(318.049532 199.597656) scale(0.1 -0.1)">
       <use xlink:href="#DejaVuSans-13"/>
      </g>
     </g>
    </g>
    <g id="xtick_8">
     <g id="line2d_22">
      <g>
       <use xlink:href="#m0b7251b302" x="364.402687" y="185" style="stroke: #000000; stroke-width: 0.8"/>
      </g>
     </g>
     <g id="text_19">
      <!-- 10 -->
      <g transform="translate(358.040187 199.597656) scale(0.1 -0.1)">
       <use xlink:href="#DejaVuSans-14"/>
       <use xlink:href="#DejaVuSans-13" transform="translate(63.625 0)"/>
      </g>
     </g>
    </g>
    <g id="xtick_9">
     <g id="line2d_23">
      <g>
       <use xlink:href="#m0b7251b302" x="407.574592" y="185" style="stroke: #000000; stroke-width: 0.8"/>
      </g>
     </g>
     <g id="text_20">
      <!-- 20 -->
      <g transform="translate(401.212092 199.597656) scale(0.1 -0.1)">
       <use xlink:href="#DejaVuSans-15"/>
       <use xlink:href="#DejaVuSans-13" transform="translate(63.625 0)"/>
      </g>
     </g>
    </g>
    <g id="xtick_10">
     <g id="line2d_24">
      <g>
       <use xlink:href="#m0b7251b302" x="450.746496" y="185" style="stroke: #000000; stroke-width: 0.8"/>
      </g>
     </g>
     <g id="text_21">
      <!-- 30 -->
      <g transform="translate(444.383996 199.597656) scale(0.1 -0.1)">
       <use xlink:href="#DejaVuSans-16"/>
       <use xlink:href="#DejaVuSans-13" transform="translate(63.625 0)"/>
      </g>
     </g>
    </g>
    <g id="xtick_11">
     <g id="line2d_25">
      <g>
       <use xlink:href="#m0b7251b302" x="493.918401" y="185" style="stroke: #000000; stroke-width: 0.8"/>
      </g>
     </g>
     <g id="text_22">
      <!-- 40 -->
      <g transform="translate(487.555901 199.597656) scale(0.1 -0.1)">
       <use xlink:href="#DejaVuSans-17"/>
       <use xlink:href="#DejaVuSans-13" transform="translate(63.625 0)"/>
      </g>
     </g>
    </g>
    <g id="xtick_12">
     <g id="line2d_26">
      <g>
       <use xlink:href="#m0b7251b302" x="537.090305" y="185" style="stroke: #000000; stroke-width: 0.8"/>
      </g>
     </g>
     <g id="text_23">
      <!-- 50 -->
      <g transform="translate(530.727805 199.597656) scale(0.1 -0.1)">
       <use xlink:href="#DejaVuSans-18"/>
       <use xlink:href="#DejaVuSans-13" transform="translate(63.625 0)"/>
      </g>
     </g>
    </g>
    <g id="text_24">
     <!-- turn -->
     <g transform="translate(423.212109 213.597656) scale(0.1 -0.1)">
      <use xlink:href="#DejaVuSans-57"/>
      <use xlink:href="#DejaVuSans-58" transform="translate(39.203125 0)"/>
      <use xlink:href="#DejaVuSans-55" transform="translate(102.578125 0)"/>
      <use xlink:href="#DejaVuSans-51" transform="translate(141.9375 0)"/>
     </g>
    </g>
   </g>
   <g id="matplotlib.axis_4">
    <g id="ytick_6">
     <g id="line2d_27">
      <g>
       <use xlink:href="#m88434c8219" x="319.503906" y="177.049925" style="stroke: #000000; stroke-width: 0.8"/>
      </g>
     </g>
     <g id="text_25">
      <!-- 0.0 -->
      <g transform="translate(296.600781 180.848753) scale(0.1 -0.1)">
       <use xlink:href="#DejaVuSans-13"/>
       <use xlink:href="#DejaVuSans-11" transform="translate(63.625 0)"/>
       <use xlink:href="#DejaVuSans-13" transform="translate(95.40625 0)"/>
      </g>
     </g>
    </g>
    <g id="ytick_7">
     <g id="line2d_28">
      <g>
       <use xlink:href="#m88434c8219" x="319.503906" y="144.632327" style="stroke: #000000; stroke-width: 0.8"/>
      </g>
     </g>
     <g id="text_26">
      <!-- 0.2 -->
      <g transform="translate(296.600781 148.431155) scale(0.1 -0.1)">
       <use xlink:href="#DejaVuSans-13"/>
       <use xlink:href="#DejaVuSans-11" transform="translate(63.625 0)"/>
       <use xlink:href="#DejaVuSans-15" transform="translate(95.40625 0)"/>
      </g>
     </g>
    </g>
    <g id="ytick_8">
     <g id="line2d_29">
      <g>
       <use xlink:href="#m88434c8219" x="319.503906" y="112.214729" style="stroke: #000000; stroke-width: 0.8"/>
      </g>
     </g>
     <g id="text_27">
      <!-- 0.4 -->
      <g transform="translate(296.600781 116.013557) scale(0.1 -0.1)">
       <use xlink:href="#DejaVuSans-13"/>
       <use xlink:href="#DejaVuSans-11" transform="translate(63.625 0)"/>
       <use xlink:href="#DejaVuSans-17" transform="translate(95.40625 0)"/>
      </g>
     </g>
    </g>
    <g id="ytick_9">
     <g id="line2d_30">
      <g>
       <use xlink:href="#m88434c8219" x="319.503906" y="79.797131" style="stroke: #000000; stroke-width: 0.8"/>
      </g>
     </g>
     <g id="text_28">
      <!-- 0.6 -->
      <g transform="translate(296.600781 83.59596) scale(0.1 -0.1)">
       <use xlink:href="#DejaVuSans-13"/>
       <use xlink:href="#DejaVuSans-11" transform="translate(63.625 0)"/>
       <use xlink:href="#DejaVuSans-19" transform="translate(95.40625 0)"/>
      </g>
     </g>
    </g>
    <g id="ytick_10">
     <g id="line2d_31">
      <g>
       <use xlink:href="#m88434c8219" x="319.503906" y="47.379534" style="stroke: #000000; stroke-width: 0.8"/>
      </g>
     </g>
     <g id="text_29">
      <!-- 0.8 -->
      <g transform="translate(296.600781 51.178362) scale(0.1 -0.1)">
       <use xlink:href="#DejaVuSans-13"/>
       <use xlink:href="#DejaVuSans-11" transform="translate(63.625 0)"/>
       <use xlink:href="#DejaVuSans-1b" transform="translate(95.40625 0)"/>
      </g>
     </g>
    </g>
    <g id="ytick_11">
     <g id="line2d_32">
      <g>
       <use xlink:href="#m88434c8219" x="319.503906" y="14.961936" style="stroke: #000000; stroke-width: 0.8"/>
      </g>
     </g>
     <g id="text_30">
      <!-- 1.0 -->
      <g transform="translate(296.600781 18.760764) scale(0.1 -0.1)">
       <use xlink:href="#DejaVuSans-14"/>
       <use xlink:href="#DejaVuSans-11" transform="translate(63.625 0)"/>
       <use xlink:href="#DejaVuSans-13" transform="translate(95.40625 0)"/>
      </g>
     </g>
    </g>
    <g id="text_31">
     <!-- reusable-prefix fraction -->
     <g transform="translate(290.198438 154.503125) rotate(-90) scale(0.1 -0.1)">
      <defs>
       <path id="DejaVuSans-10" d="M 313 2009 
L 1997 2009 
L 1997 1497 
L 313 1497 
L 313 2009 
z
" transform="scale(0.015625)"/>
       <path id="DejaVuSans-53" d="M 1159 525 
L 1159 -1331 
L 581 -1331 
L 581 3500 
L 1159 3500 
L 1159 2969 
Q 1341 3281 1617 3432 
Q 1894 3584 2278 3584 
Q 2916 3584 3314 3078 
Q 3713 2572 3713 1747 
Q 3713 922 3314 415 
Q 2916 -91 2278 -91 
Q 1894 -91 1617 61 
Q 1341 213 1159 525 
z
M 3116 1747 
Q 3116 2381 2855 2742 
Q 2594 3103 2138 3103 
Q 1681 3103 1420 2742 
Q 1159 2381 1159 1747 
Q 1159 1113 1420 752 
Q 1681 391 2138 391 
Q 2594 391 2855 752 
Q 3116 1113 3116 1747 
z
" transform="scale(0.015625)"/>
       <path id="DejaVuSans-13af" d="M 3431 3500 
L 3431 0 
L 2853 0 
L 2853 3053 
L 1275 3053 
L 1275 0 
L 697 0 
L 697 3053 
L 147 3053 
L 147 3500 
L 697 3500 
L 697 3744 
Q 697 4316 967 4589 
Q 1238 4863 1797 4863 
L 2375 4863 
L 2375 4384 
L 1825 4384 
Q 1516 4384 1395 4259 
Q 1275 4134 1275 3809 
L 1275 3500 
L 3431 3500 
z
M 2853 4856 
L 3431 4856 
L 3431 4128 
L 2853 4128 
L 2853 4856 
z
" transform="scale(0.015625)"/>
       <path id="DejaVuSans-49" d="M 2375 4863 
L 2375 4384 
L 1825 4384 
Q 1516 4384 1395 4259 
Q 1275 4134 1275 3809 
L 1275 3500 
L 2222 3500 
L 2222 3053 
L 1275 3053 
L 1275 0 
L 697 0 
L 697 3053 
L 147 3053 
L 147 3500 
L 697 3500 
L 697 3744 
Q 697 4328 969 4595 
Q 1241 4863 1831 4863 
L 2375 4863 
z
" transform="scale(0.015625)"/>
      </defs>
      <use xlink:href="#DejaVuSans-55"/>
      <use xlink:href="#DejaVuSans-48" transform="translate(38.90625 0)"/>
      <use xlink:href="#DejaVuSans-58" transform="translate(100.4375 0)"/>
      <use xlink:href="#DejaVuSans-56" transform="translate(163.8125 0)"/>
      <use xlink:href="#DejaVuSans-44" transform="translate(215.90625 0)"/>
      <use xlink:href="#DejaVuSans-45" transform="translate(277.1875 0)"/>
      <use xlink:href="#DejaVuSans-4f" transform="translate(340.671875 0)"/>
      <use xlink:href="#DejaVuSans-48" transform="translate(368.453125 0)"/>
      <use xlink:href="#DejaVuSans-10" transform="translate(429.984375 0)"/>
      <use xlink:href="#DejaVuSans-53" transform="translate(466.0625 0)"/>
      <use xlink:href="#DejaVuSans-55" transform="translate(529.546875 0)"/>
      <use xlink:href="#DejaVuSans-48" transform="translate(568.453125 0)"/>
      <use xlink:href="#DejaVuSans-13af" transform="translate(629.984375 0)"/>
      <use xlink:href="#DejaVuSans-5b" transform="translate(692.96875 0)"/>
      <use xlink:href="#DejaVuSans-3" transform="translate(752.15625 0)"/>
      <use xlink:href="#DejaVuSans-49" transform="translate(783.9375 0)"/>
      <use xlink:href="#DejaVuSans-55" transform="translate(819.140625 0)"/>
      <use xlink:href="#DejaVuSans-44" transform="translate(860.25 0)"/>
      <use xlink:href="#DejaVuSans-46" transform="translate(921.53125 0)"/>
      <use xlink:href="#DejaVuSans-57" transform="translate(976.515625 0)"/>
      <use xlink:href="#DejaVuSans-4c" transform="translate(1015.71875 0)"/>
      <use xlink:href="#DejaVuSans-52" transform="translate(1043.5 0)"/>
      <use xlink:href="#DejaVuSans-51" transform="translate(1104.6875 0)"/>
     </g>
    </g>
   </g>
   <g id="line2d_33">
    <path d="M 329.865163 18.831274 
L 334.182354 18.741059 
L 338.499544 18.654956 
L 342.816735 18.572688 
L 347.133925 18.494006 
L 351.451116 18.41868 
L 355.768306 15.648071 
L 360.085497 18.33247 
L 364.402687 18.263809 
L 368.719877 18.19789 
L 373.037068 18.134551 
L 377.354258 18.073645 
L 381.671449 18.015032 
L 385.988639 15.507823 
L 390.30583 17.948681 
L 394.62302 17.894641 
L 398.940211 17.842522 
L 403.257401 17.792223 
L 407.574592 17.74365 
L 411.891782 17.696716 
L 416.208973 15.351679 
L 420.526163 17.64498 
L 424.843353 17.601291 
L 429.160544 17.559002 
L 433.477734 17.518046 
L 437.794925 17.478363 
L 442.112115 17.439892 
L 446.429306 17.40258 
L 450.746496 17.366375 
L 455.063687 15.423929 
L 459.380877 17.324574 
L 463.698068 17.290631 
L 468.015258 17.257648 
L 472.332449 17.225587 
L 476.649639 17.19441 
L 480.966829 17.164079 
L 485.28402 17.134562 
L 489.60121 17.105825 
L 493.918401 15.281818 
L 498.235591 17.073717 
L 502.552782 17.046557 
L 506.869972 17.020087 
L 511.187163 16.994281 
L 515.504353 16.969114 
L 519.821544 16.944563 
L 524.138734 16.920605 
L 528.455924 16.897219 
L 532.773115 16.874385 
L 537.090305 16.852083 
" clip-path="url(#p6605b41362)" style="fill: none; stroke: #1f77b4; stroke-width: 1.5; stroke-linecap: square"/>
   </g>
   <g id="line2d_34">
    <path d="M 329.865163 176.767676 
L 334.182354 176.774244 
L 338.499544 176.780513 
L 342.816735 176.786504 
L 347.133925 176.792233 
L 351.451116 176.797719 
L 355.768306 176.798785 
L 360.085497 176.803998 
L 364.402687 176.819951 
L 368.719877 176.813802 
L 373.037068 176.818416 
L 377.354258 176.822853 
L 381.671449 176.827124 
L 385.988639 176.827873 
L 390.30583 176.831958 
L 394.62302 176.835896 
L 398.940211 176.839694 
L 403.257401 176.84336 
L 407.574592 176.856128 
L 411.891782 176.85032 
L 416.208973 176.8508 
L 420.526163 176.854091 
L 424.843353 176.857276 
L 429.160544 176.860358 
L 433.477734 176.863344 
L 437.794925 176.866237 
L 442.112115 176.869042 
L 446.429306 176.871762 
L 450.746496 176.88238 
L 455.063687 176.874901 
L 459.380877 176.877449 
L 463.698068 176.879924 
L 468.015258 176.882329 
L 472.332449 176.884667 
L 476.649639 176.886941 
L 480.966829 176.889152 
L 485.28402 176.891305 
L 489.60121 176.893401 
L 493.918401 176.90081 
L 498.235591 176.895742 
L 502.552782 176.897723 
L 506.869972 176.899654 
L 511.187163 176.901536 
L 515.504353 176.903372 
L 519.821544 176.905162 
L 524.138734 176.90691 
L 528.455924 176.908616 
L 532.773115 176.910281 
L 537.090305 176.918182 
" clip-path="url(#p6605b41362)" style="fill: none; stroke-dasharray: 5.55,2.4; stroke-dashoffset: 0; stroke: #ff7f0e; stroke-width: 1.5"/>
   </g>
   <g id="line2d_35">
    <path d="M 329.865163 18.831274 
L 334.182354 18.741059 
L 338.499544 18.654956 
L 342.816735 18.572688 
L 347.133925 18.494006 
L 351.451116 18.41868 
L 355.768306 15.648071 
L 360.085497 18.33247 
L 364.402687 18.263809 
L 368.719877 18.19789 
L 373.037068 18.134551 
L 377.354258 18.073645 
L 381.671449 18.015032 
L 385.988639 15.507823 
L 390.30583 24.800819 
L 394.62302 18.690517 
L 398.940211 18.606675 
L 403.257401 18.526521 
L 407.574592 18.449817 
L 411.891782 18.376344 
L 416.208973 15.448245 
L 420.526163 18.296077 
L 424.843353 18.228876 
L 429.160544 18.164331 
L 433.477734 18.102286 
L 437.794925 18.0426 
L 442.112115 27.382755 
L 446.429306 18.595005 
L 450.746496 18.515358 
L 455.063687 15.643768 
L 459.380877 18.424813 
L 463.698068 18.352379 
L 468.015258 18.282914 
L 472.332449 18.216237 
L 476.649639 18.152185 
L 480.966829 18.090606 
L 485.28402 18.031359 
L 489.60121 27.512507 
L 493.918401 15.513214 
L 498.235591 18.567351 
L 502.552782 18.488899 
L 506.869972 18.413788 
L 511.187163 18.34181 
L 515.504353 18.272772 
L 519.821544 18.206498 
L 524.138734 18.142825 
L 528.455924 18.081604 
L 532.773115 27.310563 
L 537.090305 18.567351 
" clip-path="url(#p6605b41362)" style="fill: none; stroke: #2ca02c; stroke-width: 1.5; stroke-linecap: square"/>
   </g>
   <g id="line2d_36">
    <path d="M 329.865163 176.767676 
L 334.182354 176.774244 
L 338.499544 176.780513 
L 342.816735 176.786504 
L 347.133925 176.792233 
L 351.451116 176.797719 
L 355.768306 176.798785 
L 360.085497 176.803998 
L 364.402687 176.819951 
L 368.719877 176.813802 
L 373.037068 176.818416 
L 377.354258 176.822853 
L 381.671449 176.827124 
L 385.988639 176.827873 
L 390.30583 176.771532 
L 394.62302 176.777924 
L 398.940211 176.784029 
L 403.257401 176.789865 
L 407.574592 176.807019 
L 411.891782 176.800803 
L 416.208973 176.801549 
L 420.526163 176.806649 
L 424.843353 176.811544 
L 429.160544 176.816246 
L 433.477734 176.820766 
L 437.794925 176.825115 
L 442.112115 176.778813 
L 446.429306 176.784878 
L 450.746496 176.802462 
L 455.063687 176.791767 
L 459.380877 176.797273 
L 463.698068 176.802548 
L 468.015258 176.807608 
L 472.332449 176.812465 
L 476.649639 176.817131 
L 480.966829 176.821617 
L 485.28402 176.825934 
L 489.60121 176.780003 
L 493.918401 176.793147 
L 498.235591 176.786892 
L 502.552782 176.792605 
L 506.869972 176.798076 
L 511.187163 176.803318 
L 515.504353 176.808347 
L 519.821544 176.813174 
L 524.138734 176.817813 
L 528.455924 176.822273 
L 532.773115 176.78092 
L 537.090305 176.798848 
" clip-path="url(#p6605b41362)" style="fill: none; stroke-dasharray: 5.55,2.4; stroke-dashoffset: 0; stroke: #d62728; stroke-width: 1.5"/>
   </g>
   <g id="patch_9">
    <path d="M 319.503906 185 
L 319.503906 7.2 
" style="fill: none; stroke: #000000; stroke-width: 0.8; stroke-linejoin: miter; stroke-linecap: square"/>
   </g>
   <g id="patch_10">
    <path d="M 547.451562 185 
L 547.451562 7.2 
" style="fill: none; stroke: #000000; stroke-width: 0.8; stroke-linejoin: miter; stroke-linecap: square"/>
   </g>
   <g id="patch_11">
    <path d="M 319.503906 185 
L 547.451562 185 
" style="fill: none; stroke: #000000; stroke-width: 0.8; stroke-linejoin: miter; stroke-linecap: square"/>
   </g>
   <g id="patch_12">
    <path d="M 319.503906 7.2 
L 547.451562 7.2 
" style="fill: none; stroke: #000000; stroke-width: 0.8; stroke-linejoin: miter; stroke-linecap: square"/>
   </g>
   <g id="legend_2">
    <g id="patch_13">
     <path d="M 480.240625 118.151094 
L 542.551562 118.151094 
Q 543.951562 118.151094 543.951562 116.751094 
L 543.951562 75.448906 
Q 543.951562 74.048906 542.551562 74.048906 
L 480.240625 74.048906 
Q 478.840625 74.048906 478.840625 75.448906 
L 478.840625 116.751094 
Q 478.840625 118.151094 480.240625 118.151094 
z
" style="fill: #ffffff; opacity: 0.8; stroke: #cccccc; stroke-linejoin: miter"/>
    </g>
    <g id="line2d_37">
     <path d="M 481.640625 79.717812 
L 488.640625 79.717812 
L 495.640625 79.717812 
" style="fill: none; stroke: #1f77b4; stroke-width: 1.5; stroke-linecap: square"/>
    </g>
    <g id="text_32">
     <!-- off / stable -->
     <g transform="translate(501.240625 82.167812) scale(0.07 -0.07)">
      <use xlink:href="#DejaVuSans-52"/>
      <use xlink:href="#DejaVuSans-13ae" transform="translate(61.1875 0)"/>
      <use xlink:href="#DejaVuSans-3" transform="translate(130.078125 0)"/>
      <use xlink:href="#DejaVuSans-12" transform="translate(161.859375 0)"/>
      <use xlink:href="#DejaVuSans-3" transform="translate(195.546875 0)"/>
      <use xlink:href="#DejaVuSans-56" transform="translate(227.328125 0)"/>
      <use xlink:href="#DejaVuSans-57" transform="translate(279.421875 0)"/>
      <use xlink:href="#DejaVuSans-44" transform="translate(318.625 0)"/>
      <use xlink:href="#DejaVuSans-45" transform="translate(379.90625 0)"/>
      <use xlink:href="#DejaVuSans-4f" transform="translate(443.390625 0)"/>
      <use xlink:href="#DejaVuSans-48" transform="translate(471.171875 0)"/>
     </g>
    </g>
    <g id="line2d_38">
     <path d="M 481.640625 90.218359 
L 488.640625 90.218359 
L 495.640625 90.218359 
" style="fill: none; stroke-dasharray: 5.55,2.4; stroke-dashoffset: 0; stroke: #ff7f0e; stroke-width: 1.5"/>
    </g>
    <g id="text_33">
     <!-- off / broken -->
     <g transform="translate(501.240625 92.668359) scale(0.07 -0.07)">
      <use xlink:href="#DejaVuSans-52"/>
      <use xlink:href="#DejaVuSans-13ae" transform="translate(61.1875 0)"/>
      <use xlink:href="#DejaVuSans-3" transform="translate(130.078125 0)"/>
      <use xlink:href="#DejaVuSans-12" transform="translate(161.859375 0)"/>
      <use xlink:href="#DejaVuSans-3" transform="translate(195.546875 0)"/>
      <use xlink:href="#DejaVuSans-45" transform="translate(227.328125 0)"/>
      <use xlink:href="#DejaVuSans-55" transform="translate(290.8125 0)"/>
      <use xlink:href="#DejaVuSans-52" transform="translate(329.71875 0)"/>
      <use xlink:href="#DejaVuSans-4e" transform="translate(390.90625 0)"/>
      <use xlink:href="#DejaVuSans-48" transform="translate(445.25 0)"/>
      <use xlink:href="#DejaVuSans-51" transform="translate(506.78125 0)"/>
     </g>
    </g>
    <g id="line2d_39">
     <path d="M 481.640625 100.718906 
L 488.640625 100.718906 
L 495.640625 100.718906 
" style="fill: none; stroke: #2ca02c; stroke-width: 1.5; stroke-linecap: square"/>
    </g>
    <g id="text_34">
     <!-- on / stable -->
     <g transform="translate(501.240625 103.168906) scale(0.07 -0.07)">
      <use xlink:href="#DejaVuSans-52"/>
      <use xlink:href="#DejaVuSans-51" transform="translate(61.1875 0)"/>
      <use xlink:href="#DejaVuSans-3" transform="translate(124.5625 0)"/>
      <use xlink:href="#DejaVuSans-12" transform="translate(156.34375 0)"/>
      <use xlink:href="#DejaVuSans-3" transform="translate(190.03125 0)"/>
      <use xlink:href="#DejaVuSans-56" transform="translate(221.8125 0)"/>
      <use xlink:href="#DejaVuSans-57" transform="translate(273.90625 0)"/>
      <use xlink:href="#DejaVuSans-44" transform="translate(313.109375 0)"/>
      <use xlink:href="#DejaVuSans-45" transform="translate(374.390625 0)"/>
      <use xlink:href="#DejaVuSans-4f" transform="translate(437.875 0)"/>
      <use xlink:href="#DejaVuSans-48" transform="translate(465.65625 0)"/>
     </g>
    </g>
    <g id="line2d_40">
     <path d="M 481.640625 111.219453 
L 488.640625 111.219453 
L 495.640625 111.219453 
" style="fill: none; stroke-dasharray: 5.55,2.4; stroke-dashoffset: 0; stroke: #d62728; stroke-width: 1.5"/>
    </g>
    <g id="text_35">
     <!-- on / broken -->
     <g transform="translate(501.240625 113.669453) scale(0.07 -0.07)">
      <use xlink:href="#DejaVuSans-52"/>
      <use xlink:href="#DejaVuSans-51" transform="translate(61.1875 0)"/>
      <use xlink:href="#DejaVuSans-3" transform="translate(124.5625 0)"/>
      <use xlink:href="#DejaVuSans-12" transform="translate(156.34375 0)"/>
      <use xlink:href="#DejaVuSans-3" transform="translate(190.03125 0)"/>
      <use xlink:href="#DejaVuSans-45" transform="translate(221.8125 0)"/>
      <use xlink:href="#DejaVuSans-55" transform="translate(285.296875 0)"/>
      <use xlink:href="#DejaVuSans-52" transform="translate(324.203125 0)"/>
      <use xlink:href="#DejaVuSans-4e" transform="translate(385.390625 0)"/>
      <use xlink:href="#DejaVuSans-48" transform="translate(439.734375 0)"/>
      <use xlink:href="#DejaVuSans-51" transform="translate(501.265625 0)"/>
     </g>
    </g>
   </g>
  </g>
 </g>
 <defs>
  <clipPath id="p04cc852fba">
   <rect x="44.103906" y="7.2" width="227.947656" height="177.8"/>
  </clipPath>
  <clipPath id="p6605b41362">
   <rect x="319.503906" y="7.2" width="227.947656" height="177.8"/>
  </clipPath>
 </defs>
</svg>
