<?xml version="1.0" encoding="utf-8" standalone="no"?>
<!DOCTYPE svg PUBLIC "-//W3C//DTD SVG 1.1//EN"
  "http://www.w3.org/Graphics/SVG/1.1/DTD/svg11.dtd">
<svg xmlns:xlink="http://www.w3.org/1999/xlink" width="468.520599pt" height="280.148438pt" viewBox="0 0 468.520599 280.148438" xmlns="http://www.w3.org/2000/svg" version="1.1">
 <metadata>
  <rdf:RDF xmlns:dc="http://purl.org/dc/elements/1.1/" xmlns:cc="http://creativecommons.org/ns#" xmlns:rdf="http://www.w3.org/1999/02/22-rdf-syntax-ns#">
   <cc:Work>
    <dc:type rdf:resource="http://purl.org/dc/dcmitype/StillImage"/>
    <dc:date>2026-07-20T08:37:43.131672</dc:date>
    <dc:format>image/svg+xml</dc:format>
    <dc:creator>
     <cc:Agent>
      <dc:title>Matplotlib v3.11.1, https://matplotlib.org/</dc:title>
     </cc:Agent>
    </dc:creator>
   </cc:Work>
  </rdf:RDF>
 </metadata>
 <defs>
  <style type="text/css">*{stroke-linejoin: round; stroke-linecap: butt}</style>
 </defs>
 <g id="figure_1">
  <g id="patch_1">
   <path d="M 0 280.148438 
L 468.520599 280.148438 
L 468.520599 0 
L 0 0 
z
" style="fill: #ffffff"/>
  </g>
  <g id="axes_1">
   <g id="patch_2">
    <path d="M 44.103906 241.947656 
L 413.811429 241.947656 
L 413.811429 7.2 
L 44.103906 7.2 
z
" style="fill: #ffffff"/>
   </g>
   <g id="matplotlib.axis_1">
    <g id="xtick_1">
     <g id="line2d_1">
      <path d="M 44.103906 241.947656 
L 44.103906 7.2 
" clip-path="url(#p318082f32e)" style="fill: none; stroke: #b0b0b0; stroke-opacity: 0.2; stroke-width: 0.8; stroke-linecap: square"/>
     </g>
     <g id="line2d_2">
      <defs>
       <path id="ma82316d67f" d="M 0 0 
L 0 3.5 
" style="stroke: #000000; stroke-width: 0.8"/>
      </defs>
      <g>
       <use xlink:href="#ma82316d67f" x="44.103906" y="241.947656" style="stroke: #000000; stroke-width: 0.8"/>
      </g>
     </g>
     <g id="text_1">
      <!-- 0.0 -->
      <g transform="translate(36.152344 256.545313) scale(0.1 -0.1)">
       <defs>
        <path id="DejaVuSans-13" d="M 2034 4250 
Q 1547 4250 1301 3770 
Q 1056 3291 1056 2328 
Q 1056 1369 1301 889 
Q 1547 409 2034 409 
Q 2525 409 2770 889 
Q 3016 1369 3016 2328 
Q 3016 3291 2770 3770 
Q 2525 4250 2034 4250 
z
M 2034 4750 
Q 2819 4750 3233 4129 
Q 3647 3509 3647 2328 
Q 3647 1150 3233 529 
Q 2819 -91 2034 -91 
Q 1250 -91 836 529 
Q 422 1150 422 2328 
Q 422 3509 836 4129 
Q 1250 4750 2034 4750 
z
" transform="scale(0.015625)"/>
        <path id="DejaVuSans-11" d="M 684 794 
L 1344 794 
L 1344 0 
L 684 0 
L 684 794 
z
" transform="scale(0.015625)"/>
       </defs>
       <use xlink:href="#DejaVuSans-13"/>
       <use xlink:href="#DejaVuSans-11" transform="translate(63.625 0)"/>
       <use xlink:href="#DejaVuSans-13" transform="translate(95.40625 0)"/>
      </g>
     </g>
    </g>
    <g id="xtick_2">
     <g id="line2d_3">
      <path d="M 114.524387 241.947656 
L 114.524387 7.2 
" clip-path="url(#p318082f32e)" style="fill: none; stroke: #b0b0b0; stroke-opacity: 0.2; stroke-width: 0.8; stroke-linecap: square"/>
     </g>
     <g id="line2d_4">
      <g>
       <use xlink:href="#ma82316d67f" x="114.524387" y="241.947656" style="stroke: #000000; stroke-width: 0.8"/>
      </g>
     </g>
     <g id="text_2">
      <!-- 0.2 -->
      <g transform="translate(106.572824 256.545313) scale(0.1 -0.1)">
       <defs>
        <path id="DejaVuSans-15" d="M 1228 531 
L 3431 531 
L 3431 0 
L 469 0 
L 469 531 
Q 828 903 1448 1529 
Q 2069 2156 2228 2338 
Q 2531 2678 2651 2914 
Q 2772 3150 2772 3378 
Q 2772 3750 2511 3984 
Q 2250 4219 1831 4219 
Q 1534 4219 1204 4116 
Q 875 4013 500 3803 
L 500 4441 
Q 881 4594 1212 4672 
Q 1544 4750 1819 4750 
Q 2544 4750 2975 4387 
Q 3406 4025 3406 3419 
Q 3406 3131 3298 2873 
Q 3191 2616 2906 2266 
Q 2828 2175 2409 1742 
Q 1991 1309 1228 531 
z
" transform="scale(0.015625)"/>
       </defs>
       <use xlink:href="#DejaVuSans-13"/>
       <use xlink:href="#DejaVuSans-11" transform="translate(63.625 0)"/>
       <use xlink:href="#DejaVuSans-15" transform="translate(95.40625 0)"/>
      </g>
     </g>
    </g>
    <g id="xtick_3">
     <g id="line2d_5">
      <path d="M 184.944867 241.947656 
L 184.944867 7.2 
" clip-path="url(#p318082f32e)" style="fill: none; stroke: #b0b0b0; stroke-opacity: 0.2; stroke-width: 0.8; stroke-linecap: square"/>
     </g>
     <g id="line2d_6">
      <g>
       <use xlink:href="#ma82316d67f" x="184.944867" y="241.947656" style="stroke: #000000; stroke-width: 0.8"/>
      </g>
     </g>
     <g id="text_3">
      <!-- 0.4 -->
      <g transform="translate(176.993305 256.545313) scale(0.1 -0.1)">
       <defs>
        <path id="DejaVuSans-17" d="M 2419 4116 
L 825 1625 
L 2419 1625 
L 2419 4116 
z
M 2253 4666 
L 3047 4666 
L 3047 1625 
L 3713 1625 
L 3713 1100 
L 3047 1100 
L 3047 0 
L 2419 0 
L 2419 1100 
L 313 1100 
L 313 1709 
L 2253 4666 
z
" transform="scale(0.015625)"/>
       </defs>
       <use xlink:href="#DejaVuSans-13"/>
       <use xlink:href="#DejaVuSans-11" transform="translate(63.625 0)"/>
       <use xlink:href="#DejaVuSans-17" transform="translate(95.40625 0)"/>
      </g>
     </g>
    </g>
    <g id="xtick_4">
     <g id="line2d_7">
      <path d="M 255.365348 241.947656 
L 255.365348 7.2 
" clip-path="url(#p318082f32e)" style="fill: none; stroke: #b0b0b0; stroke-opacity: 0.2; stroke-width: 0.8; stroke-linecap: square"/>
     </g>
     <g id="line2d_8">
      <g>
       <use xlink:href="#ma82316d67f" x="255.365348" y="241.947656" style="stroke: #000000; stroke-width: 0.8"/>
      </g>
     </g>
     <g id="text_4">
      <!-- 0.6 -->
      <g transform="translate(247.413785 256.545313) scale(0.1 -0.1)">
       <defs>
        <path id="DejaVuSans-19" d="M 2113 2584 
Q 1688 2584 1439 2293 
Q 1191 2003 1191 1497 
Q 1191 994 1439 701 
Q 1688 409 2113 409 
Q 2538 409 2786 701 
Q 3034 994 3034 1497 
Q 3034 2003 2786 2293 
Q 2538 2584 2113 2584 
z
M 3366 4563 
L 3366 3988 
Q 3128 4100 2886 4159 
Q 2644 4219 2406 4219 
Q 1781 4219 1451 3797 
Q 1122 3375 1075 2522 
Q 1259 2794 1537 2939 
Q 1816 3084 2150 3084 
Q 2853 3084 3261 2657 
Q 3669 2231 3669 1497 
Q 3669 778 3244 343 
Q 2819 -91 2113 -91 
Q 1303 -91 875 529 
Q 447 1150 447 2328 
Q 447 3434 972 4092 
Q 1497 4750 2381 4750 
Q 2619 4750 2861 4703 
Q 3103 4656 3366 4563 
z
" transform="scale(0.015625)"/>
       </defs>
       <use xlink:href="#DejaVuSans-13"/>
       <use xlink:href="#DejaVuSans-11" transform="translate(63.625 0)"/>
       <use xlink:href="#DejaVuSans-19" transform="translate(95.40625 0)"/>
      </g>
     </g>
    </g>
    <g id="xtick_5">
     <g id="line2d_9">
      <path d="M 325.785828 241.947656 
L 325.785828 7.2 
" clip-path="url(#p318082f32e)" style="fill: none; stroke: #b0b0b0; stroke-opacity: 0.2; stroke-width: 0.8; stroke-linecap: square"/>
     </g>
     <g id="line2d_10">
      <g>
       <use xlink:href="#ma82316d67f" x="325.785828" y="241.947656" style="stroke: #000000; stroke-width: 0.8"/>
      </g>
     </g>
     <g id="text_5">
      <!-- 0.8 -->
      <g transform="translate(317.834266 256.545313) scale(0.1 -0.1)">
       <defs>
        <path id="DejaVuSans-1b" d="M 2034 2216 
Q 1584 2216 1326 1975 
Q 1069 1734 1069 1313 
Q 1069 891 1326 650 
Q 1584 409 2034 409 
Q 2484 409 2743 651 
Q 3003 894 3003 1313 
Q 3003 1734 2745 1975 
Q 2488 2216 2034 2216 
z
M 1403 2484 
Q 997 2584 770 2862 
Q 544 3141 544 3541 
Q 544 4100 942 4425 
Q 1341 4750 2034 4750 
Q 2731 4750 3128 4425 
Q 3525 4100 3525 3541 
Q 3525 3141 3298 2862 
Q 3072 2584 2669 2484 
Q 3125 2378 3379 2068 
Q 3634 1759 3634 1313 
Q 3634 634 3220 271 
Q 2806 -91 2034 -91 
Q 1263 -91 848 271 
Q 434 634 434 1313 
Q 434 1759 690 2068 
Q 947 2378 1403 2484 
z
M 1172 3481 
Q 1172 3119 1398 2916 
Q 1625 2713 2034 2713 
Q 2441 2713 2670 2916 
Q 2900 3119 2900 3481 
Q 2900 3844 2670 4047 
Q 2441 4250 2034 4250 
Q 1625 4250 1398 4047 
Q 1172 3844 1172 3481 
z
" transform="scale(0.015625)"/>
       </defs>
       <use xlink:href="#DejaVuSans-13"/>
       <use xlink:href="#DejaVuSans-11" transform="translate(63.625 0)"/>
       <use xlink:href="#DejaVuSans-1b" transform="translate(95.40625 0)"/>
      </g>
     </g>
    </g>
    <g id="xtick_6">
     <g id="line2d_11">
      <path d="M 396.206308 241.947656 
L 396.206308 7.2 
" clip-path="url(#p318082f32e)" style="fill: none; stroke: #b0b0b0; stroke-opacity: 0.2; stroke-width: 0.8; stroke-linecap: square"/>
     </g>
     <g id="line2d_12">
      <g>
       <use xlink:href="#ma82316d67f" x="396.206308" y="241.947656" style="stroke: #000000; stroke-width: 0.8"/>
      </g>
     </g>
     <g id="text_6">
      <!-- 1.0 -->
      <g transform="translate(388.254746 256.545313) scale(0.1 -0.1)">
       <defs>
        <path id="DejaVuSans-14" d="M 794 531 
L 1825 531 
L 1825 4091 
L 703 3866 
L 703 4441 
L 1819 4666 
L 2450 4666 
L 2450 531 
L 3481 531 
L 3481 0 
L 794 0 
L 794 531 
z
" transform="scale(0.015625)"/>
       </defs>
       <use xlink:href="#DejaVuSans-14"/>
       <use xlink:href="#DejaVuSans-11" transform="translate(63.625 0)"/>
       <use xlink:href="#DejaVuSans-13" transform="translate(95.40625 0)"/>
      </g>
     </g>
    </g>
    <g id="text_7">
     <!-- control and residency need  -&gt; -->
     <g transform="translate(151.64048 270.546094) scale(0.1 -0.1)">
      <defs>
       <path id="DejaVuSans-46" d="M 3122 3366 
L 3122 2828 
Q 2878 2963 2633 3030 
Q 2388 3097 2138 3097 
Q 1578 3097 1268 2742 
Q 959 2388 959 1747 
Q 959 1106 1268 751 
Q 1578 397 2138 397 
Q 2388 397 2633 464 
Q 2878 531 3122 666 
L 3122 134 
Q 2881 22 2623 -34 
Q 2366 -91 2075 -91 
Q 1284 -91 818 406 
Q 353 903 353 1747 
Q 353 2603 823 3093 
Q 1294 3584 2113 3584 
Q 2378 3584 2631 3529 
Q 2884 3475 3122 3366 
z
" transform="scale(0.015625)"/>
       <path id="DejaVuSans-52" d="M 1959 3097 
Q 1497 3097 1228 2736 
Q 959 2375 959 1747 
Q 959 1119 1226 758 
Q 1494 397 1959 397 
Q 2419 397 2687 759 
Q 2956 1122 2956 1747 
Q 2956 2369 2687 2733 
Q 2419 3097 1959 3097 
z
M 1959 3584 
Q 2709 3584 3137 3096 
Q 3566 2609 3566 1747 
Q 3566 888 3137 398 
Q 2709 -91 1959 -91 
Q 1206 -91 779 398 
Q 353 888 353 1747 
Q 353 2609 779 3096 
Q 1206 3584 1959 3584 
z
" transform="scale(0.015625)"/>
       <path id="DejaVuSans-51" d="M 3513 2113 
L 3513 0 
L 2938 0 
L 2938 2094 
Q 2938 2591 2744 2837 
Q 2550 3084 2163 3084 
Q 1697 3084 1428 2787 
Q 1159 2491 1159 1978 
L 1159 0 
L 581 0 
L 581 3500 
L 1159 3500 
L 1159 2956 
Q 1366 3272 1645 3428 
Q 1925 3584 2291 3584 
Q 2894 3584 3203 3211 
Q 3513 2838 3513 2113 
z
" transform="scale(0.015625)"/>
       <path id="DejaVuSans-57" d="M 1172 4494 
L 1172 3500 
L 2356 3500 
L 2356 3053 
L 1172 3053 
L 1172 1153 
Q 1172 725 1289 603 
Q 1406 481 1766 481 
L 2356 481 
L 2356 0 
L 1766 0 
Q 1100 0 847 248 
Q 594 497 594 1153 
L 594 3053 
L 172 3053 
L 172 3500 
L 594 3500 
L 594 4494 
L 1172 4494 
z
" transform="scale(0.015625)"/>
       <path id="DejaVuSans-55" d="M 2631 2963 
Q 2534 3019 2420 3045 
Q 2306 3072 2169 3072 
Q 1681 3072 1420 2755 
Q 1159 2438 1159 1844 
L 1159 0 
L 581 0 
L 581 3500 
L 1159 3500 
L 1159 2956 
Q 1341 3275 1631 3429 
Q 1922 3584 2338 3584 
Q 2397 3584 2469 3576 
Q 2541 3569 2628 3553 
L 2631 2963 
z
" transform="scale(0.015625)"/>
       <path id="DejaVuSans-4f" d="M 603 4863 
L 1178 4863 
L 1178 0 
L 603 0 
L 603 4863 
z
" transform="scale(0.015625)"/>
       <path id="DejaVuSans-3" transform="scale(0.015625)"/>
       <path id="DejaVuSans-44" d="M 2194 1759 
Q 1497 1759 1228 1600 
Q 959 1441 959 1056 
Q 959 750 1161 570 
Q 1363 391 1709 391 
Q 2188 391 2477 730 
Q 2766 1069 2766 1631 
L 2766 1759 
L 2194 1759 
z
M 3341 1997 
L 3341 0 
L 2766 0 
L 2766 531 
Q 2569 213 2275 61 
Q 1981 -91 1556 -91 
Q 1019 -91 701 211 
Q 384 513 384 1019 
Q 384 1609 779 1909 
Q 1175 2209 1959 2209 
L 2766 2209 
L 2766 2266 
Q 2766 2663 2505 2880 
Q 2244 3097 1772 3097 
Q 1472 3097 1187 3025 
Q 903 2953 641 2809 
L 641 3341 
Q 956 3463 1253 3523 
Q 1550 3584 1831 3584 
Q 2591 3584 2966 3190 
Q 3341 2797 3341 1997 
z
" transform="scale(0.015625)"/>
       <path id="DejaVuSans-47" d="M 2906 2969 
L 2906 4863 
L 3481 4863 
L 3481 0 
L 2906 0 
L 2906 525 
Q 2725 213 2448 61 
Q 2172 -91 1784 -91 
Q 1150 -91 751 415 
Q 353 922 353 1747 
Q 353 2572 751 3078 
Q 1150 3584 1784 3584 
Q 2172 3584 2448 3432 
Q 2725 3281 2906 2969 
z
M 947 1747 
Q 947 1113 1208 752 
Q 1469 391 1925 391 
Q 2381 391 2643 752 
Q 2906 1113 2906 1747 
Q 2906 2381 2643 2742 
Q 2381 3103 1925 3103 
Q 1469 3103 1208 2742 
Q 947 2381 947 1747 
z
" transform="scale(0.015625)"/>
       <path id="DejaVuSans-48" d="M 3597 1894 
L 3597 1613 
L 953 1613 
Q 991 1019 1311 708 
Q 1631 397 2203 397 
Q 2534 397 2845 478 
Q 3156 559 3463 722 
L 3463 178 
Q 3153 47 2828 -22 
Q 2503 -91 2169 -91 
Q 1331 -91 842 396 
Q 353 884 353 1716 
Q 353 2575 817 3079 
Q 1281 3584 2069 3584 
Q 2775 3584 3186 3129 
Q 3597 2675 3597 1894 
z
M 3022 2063 
Q 3016 2534 2758 2815 
Q 2500 3097 2075 3097 
Q 1594 3097 1305 2825 
Q 1016 2553 972 2059 
L 3022 2063 
z
" transform="scale(0.015625)"/>
       <path id="DejaVuSans-56" d="M 2834 3397 
L 2834 2853 
Q 2591 2978 2328 3040 
Q 2066 3103 1784 3103 
Q 1356 3103 1142 2972 
Q 928 2841 928 2578 
Q 928 2378 1081 2264 
Q 1234 2150 1697 2047 
L 1894 2003 
Q 2506 1872 2764 1633 
Q 3022 1394 3022 966 
Q 3022 478 2636 193 
Q 2250 -91 1575 -91 
Q 1294 -91 989 -36 
Q 684 19 347 128 
L 347 722 
Q 666 556 975 473 
Q 1284 391 1588 391 
Q 1994 391 2212 530 
Q 2431 669 2431 922 
Q 2431 1156 2273 1281 
Q 2116 1406 1581 1522 
L 1381 1569 
Q 847 1681 609 1914 
Q 372 2147 372 2553 
Q 372 3047 722 3315 
Q 1072 3584 1716 3584 
Q 2034 3584 2315 3537 
Q 2597 3491 2834 3397 
z
" transform="scale(0.015625)"/>
       <path id="DejaVuSans-4c" d="M 603 3500 
L 1178 3500 
L 1178 0 
L 603 0 
L 603 3500 
z
M 603 4863 
L 1178 4863 
L 1178 4134 
L 603 4134 
L 603 4863 
z
" transform="scale(0.015625)"/>
       <path id="DejaVuSans-5c" d="M 2059 -325 
Q 1816 -950 1584 -1140 
Q 1353 -1331 966 -1331 
L 506 -1331 
L 506 -850 
L 844 -850 
Q 1081 -850 1212 -737 
Q 1344 -625 1503 -206 
L 1606 56 
L 191 3500 
L 800 3500 
L 1894 763 
L 2988 3500 
L 3597 3500 
L 2059 -325 
z
" transform="scale(0.015625)"/>
       <path id="DejaVuSans-10" d="M 313 2009 
L 1997 2009 
L 1997 1497 
L 313 1497 
L 313 2009 
z
" transform="scale(0.015625)"/>
       <path id="DejaVuSans-21" d="M 678 3150 
L 678 3719 
L 4684 2266 
L 4684 1747 
L 678 294 
L 678 863 
L 3897 2003 
L 678 3150 
z
" transform="scale(0.015625)"/>
      </defs>
      <use xlink:href="#DejaVuSans-46"/>
      <use xlink:href="#DejaVuSans-52" transform="translate(54.984375 0)"/>
      <use xlink:href="#DejaVuSans-51" transform="translate(116.171875 0)"/>
      <use xlink:href="#DejaVuSans-57" transform="translate(179.546875 0)"/>
      <use xlink:href="#DejaVuSans-55" transform="translate(218.75 0)"/>
      <use xlink:href="#DejaVuSans-52" transform="translate(257.65625 0)"/>
      <use xlink:href="#DejaVuSans-4f" transform="translate(318.84375 0)"/>
      <use xlink:href="#DejaVuSans-3" transform="translate(346.625 0)"/>
      <use xlink:href="#DejaVuSans-44" transform="translate(378.40625 0)"/>
      <use xlink:href="#DejaVuSans-51" transform="translate(439.6875 0)"/>
      <use xlink:href="#DejaVuSans-47" transform="translate(503.0625 0)"/>
      <use xlink:href="#DejaVuSans-3" transform="translate(566.546875 0)"/>
      <use xlink:href="#DejaVuSans-55" transform="translate(598.328125 0)"/>
      <use xlink:href="#DejaVuSans-48" transform="translate(637.234375 0)"/>
      <use xlink:href="#DejaVuSans-56" transform="translate(698.765625 0)"/>
      <use xlink:href="#DejaVuSans-4c" transform="translate(750.859375 0)"/>
      <use xlink:href="#DejaVuSans-47" transform="translate(778.640625 0)"/>
      <use xlink:href="#DejaVuSans-48" transform="translate(842.125 0)"/>
      <use xlink:href="#DejaVuSans-51" transform="translate(903.65625 0)"/>
      <use xlink:href="#DejaVuSans-46" transform="translate(967.03125 0)"/>
      <use xlink:href="#DejaVuSans-5c" transform="translate(1022.015625 0)"/>
      <use xlink:href="#DejaVuSans-3" transform="translate(1081.203125 0)"/>
      <use xlink:href="#DejaVuSans-51" transform="translate(1112.984375 0)"/>
      <use xlink:href="#DejaVuSans-48" transform="translate(1176.359375 0)"/>
      <use xlink:href="#DejaVuSans-48" transform="translate(1237.890625 0)"/>
      <use xlink:href="#DejaVuSans-47" transform="translate(1299.421875 0)"/>
      <use xlink:href="#DejaVuSans-3" transform="translate(1362.90625 0)"/>
      <use xlink:href="#DejaVuSans-3" transform="translate(1394.6875 0)"/>
      <use xlink:href="#DejaVuSans-10" transform="translate(1426.46875 0)"/>
      <use xlink:href="#DejaVuSans-21" transform="translate(1462.546875 0)"/>
     </g>
    </g>
   </g>
   <g id="matplotlib.axis_2">
    <g id="ytick_1">
     <g id="line2d_13">
      <path d="M 44.103906 241.947656 
L 413.811429 241.947656 
" clip-path="url(#p318082f32e)" style="fill: none; stroke: #b0b0b0; stroke-opacity: 0.2; stroke-width: 0.8; stroke-linecap: square"/>
     </g>
     <g id="line2d_14">
      <defs>
       <path id="m927fb3483d" d="M 0 0 
L -3.5 0 
" style="stroke: #000000; stroke-width: 0.8"/>
      </defs>
      <g>
       <use xlink:href="#m927fb3483d" x="44.103906" y="241.947656" style="stroke: #000000; stroke-width: 0.8"/>
      </g>
     </g>
     <g id="text_8">
      <!-- 0.0 -->
      <g transform="translate(21.200781 245.746484) scale(0.1 -0.1)">
       <use xlink:href="#DejaVuSans-13"/>
       <use xlink:href="#DejaVuSans-11" transform="translate(63.625 0)"/>
       <use xlink:href="#DejaVuSans-13" transform="translate(95.40625 0)"/>
      </g>
     </g>
    </g>
    <g id="ytick_2">
     <g id="line2d_15">
      <path d="M 44.103906 199.266264 
L 413.811429 199.266264 
" clip-path="url(#p318082f32e)" style="fill: none; stroke: #b0b0b0; stroke-opacity: 0.2; stroke-width: 0.8; stroke-linecap: square"/>
     </g>
     <g id="line2d_16">
      <g>
       <use xlink:href="#m927fb3483d" x="44.103906" y="199.266264" style="stroke: #000000; stroke-width: 0.8"/>
      </g>
     </g>
     <g id="text_9">
      <!-- 0.2 -->
      <g transform="translate(21.200781 203.065092) scale(0.1 -0.1)">
       <use xlink:href="#DejaVuSans-13"/>
       <use xlink:href="#DejaVuSans-11" transform="translate(63.625 0)"/>
       <use xlink:href="#DejaVuSans-15" transform="translate(95.40625 0)"/>
      </g>
     </g>
    </g>
    <g id="ytick_3">
     <g id="line2d_17">
      <path d="M 44.103906 156.584872 
L 413.811429 156.584872 
" clip-path="url(#p318082f32e)" style="fill: none; stroke: #b0b0b0; stroke-opacity: 0.2; stroke-width: 0.8; stroke-linecap: square"/>
     </g>
     <g id="line2d_18">
      <g>
       <use xlink:href="#m927fb3483d" x="44.103906" y="156.584872" style="stroke: #000000; stroke-width: 0.8"/>
      </g>
     </g>
     <g id="text_10">
      <!-- 0.4 -->
      <g transform="translate(21.200781 160.3837) scale(0.1 -0.1)">
       <use xlink:href="#DejaVuSans-13"/>
       <use xlink:href="#DejaVuSans-11" transform="translate(63.625 0)"/>
       <use xlink:href="#DejaVuSans-17" transform="translate(95.40625 0)"/>
      </g>
     </g>
    </g>
    <g id="ytick_4">
     <g id="line2d_19">
      <path d="M 44.103906 113.90348 
L 413.811429 113.90348 
" clip-path="url(#p318082f32e)" style="fill: none; stroke: #b0b0b0; stroke-opacity: 0.2; stroke-width: 0.8; stroke-linecap: square"/>
     </g>
     <g id="line2d_20">
      <g>
       <use xlink:href="#m927fb3483d" x="44.103906" y="113.90348" style="stroke: #000000; stroke-width: 0.8"/>
      </g>
     </g>
     <g id="text_11">
      <!-- 0.6 -->
      <g transform="translate(21.200781 117.702308) scale(0.1 -0.1)">
       <use xlink:href="#DejaVuSans-13"/>
       <use xlink:href="#DejaVuSans-11" transform="translate(63.625 0)"/>
       <use xlink:href="#DejaVuSans-19" transform="translate(95.40625 0)"/>
      </g>
     </g>
    </g>
    <g id="ytick_5">
     <g id="line2d_21">
      <path d="M 44.103906 71.222088 
L 413.811429 71.222088 
" clip-path="url(#p318082f32e)" style="fill: none; stroke: #b0b0b0; stroke-opacity: 0.2; stroke-width: 0.8; stroke-linecap: square"/>
     </g>
     <g id="line2d_22">
      <g>
       <use xlink:href="#m927fb3483d" x="44.103906" y="71.222088" style="stroke: #000000; stroke-width: 0.8"/>
      </g>
     </g>
     <g id="text_12">
      <!-- 0.8 -->
      <g transform="translate(21.200781 75.020916) scale(0.1 -0.1)">
       <use xlink:href="#DejaVuSans-13"/>
       <use xlink:href="#DejaVuSans-11" transform="translate(63.625 0)"/>
       <use xlink:href="#DejaVuSans-1b" transform="translate(95.40625 0)"/>
      </g>
     </g>
    </g>
    <g id="ytick_6">
     <g id="line2d_23">
      <path d="M 44.103906 28.540696 
L 413.811429 28.540696 
" clip-path="url(#p318082f32e)" style="fill: none; stroke: #b0b0b0; stroke-opacity: 0.2; stroke-width: 0.8; stroke-linecap: square"/>
     </g>
     <g id="line2d_24">
      <g>
       <use xlink:href="#m927fb3483d" x="44.103906" y="28.540696" style="stroke: #000000; stroke-width: 0.8"/>
      </g>
     </g>
     <g id="text_13">
      <!-- 1.0 -->
      <g transform="translate(21.200781 32.339524) scale(0.1 -0.1)">
       <use xlink:href="#DejaVuSans-14"/>
       <use xlink:href="#DejaVuSans-11" transform="translate(63.625 0)"/>
       <use xlink:href="#DejaVuSans-13" transform="translate(95.40625 0)"/>
      </g>
     </g>
    </g>
    <g id="text_14">
     <!-- elasticity and substitution speed  -&gt; -->
     <g transform="translate(14.798438 215.175391) rotate(-90) scale(0.1 -0.1)">
      <defs>
       <path id="DejaVuSans-58" d="M 544 1381 
L 544 3500 
L 1119 3500 
L 1119 1403 
Q 1119 906 1312 657 
Q 1506 409 1894 409 
Q 2359 409 2629 706 
Q 2900 1003 2900 1516 
L 2900 3500 
L 3475 3500 
L 3475 0 
L 2900 0 
L 2900 538 
Q 2691 219 2414 64 
Q 2138 -91 1772 -91 
Q 1169 -91 856 284 
Q 544 659 544 1381 
z
M 1991 3584 
L 1991 3584 
z
" transform="scale(0.015625)"/>
       <path id="DejaVuSans-45" d="M 3116 1747 
Q 3116 2381 2855 2742 
Q 2594 3103 2138 3103 
Q 1681 3103 1420 2742 
Q 1159 2381 1159 1747 
Q 1159 1113 1420 752 
Q 1681 391 2138 391 
Q 2594 391 2855 752 
Q 3116 1113 3116 1747 
z
M 1159 2969 
Q 1341 3281 1617 3432 
Q 1894 3584 2278 3584 
Q 2916 3584 3314 3078 
Q 3713 2572 3713 1747 
Q 3713 922 3314 415 
Q 2916 -91 2278 -91 
Q 1894 -91 1617 61 
Q 1341 213 1159 525 
L 1159 0 
L 581 0 
L 581 4863 
L 1159 4863 
L 1159 2969 
z
" transform="scale(0.015625)"/>
       <path id="DejaVuSans-53" d="M 1159 525 
L 1159 -1331 
L 581 -1331 
L 581 3500 
L 1159 3500 
L 1159 2969 
Q 1341 3281 1617 3432 
Q 1894 3584 2278 3584 
Q 2916 3584 3314 3078 
Q 3713 2572 3713 1747 
Q 3713 922 3314 415 
Q 2916 -91 2278 -91 
Q 1894 -91 1617 61 
Q 1341 213 1159 525 
z
M 3116 1747 
Q 3116 2381 2855 2742 
Q 2594 3103 2138 3103 
Q 1681 3103 1420 2742 
Q 1159 2381 1159 1747 
Q 1159 1113 1420 752 
Q 1681 391 2138 391 
Q 2594 391 2855 752 
Q 3116 1113 3116 1747 
z
" transform="scale(0.015625)"/>
      </defs>
      <use xlink:href="#DejaVuSans-48"/>
      <use xlink:href="#DejaVuSans-4f" transform="translate(61.53125 0)"/>
      <use xlink:href="#DejaVuSans-44" transform="translate(89.3125 0)"/>
      <use xlink:href="#DejaVuSans-56" transform="translate(150.59375 0)"/>
      <use xlink:href="#DejaVuSans-57" transform="translate(202.6875 0)"/>
      <use xlink:href="#DejaVuSans-4c" transform="translate(241.890625 0)"/>
      <use xlink:href="#DejaVuSans-46" transform="translate(269.671875 0)"/>
      <use xlink:href="#DejaVuSans-4c" transform="translate(324.65625 0)"/>
      <use xlink:href="#DejaVuSans-57" transform="translate(352.4375 0)"/>
      <use xlink:href="#DejaVuSans-5c" transform="translate(391.640625 0)"/>
      <use xlink:href="#DejaVuSans-3" transform="translate(450.828125 0)"/>
      <use xlink:href="#DejaVuSans-44" transform="translate(482.609375 0)"/>
      <use xlink:href="#DejaVuSans-51" transform="translate(543.890625 0)"/>
      <use xlink:href="#DejaVuSans-47" transform="translate(607.265625 0)"/>
      <use xlink:href="#DejaVuSans-3" transform="translate(670.75 0)"/>
      <use xlink:href="#DejaVuSans-56" transform="translate(702.53125 0)"/>
      <use xlink:href="#DejaVuSans-58" transform="translate(754.625 0)"/>
      <use xlink:href="#DejaVuSans-45" transform="translate(818 0)"/>
      <use xlink:href="#DejaVuSans-56" transform="translate(881.484375 0)"/>
      <use xlink:href="#DejaVuSans-57" transform="translate(933.578125 0)"/>
      <use xlink:href="#DejaVuSans-4c" transform="translate(972.78125 0)"/>
      <use xlink:href="#DejaVuSans-57" transform="translate(1000.5625 0)"/>
      <use xlink:href="#DejaVuSans-58" transform="translate(1039.765625 0)"/>
      <use xlink:href="#DejaVuSans-57" transform="translate(1103.140625 0)"/>
      <use xlink:href="#DejaVuSans-4c" transform="translate(1142.34375 0)"/>
      <use xlink:href="#DejaVuSans-52" transform="translate(1170.125 0)"/>
      <use xlink:href="#DejaVuSans-51" transform="translate(1231.3125 0)"/>
      <use xlink:href="#DejaVuSans-3" transform="translate(1294.6875 0)"/>
      <use xlink:href="#DejaVuSans-56" transform="translate(1326.46875 0)"/>
      <use xlink:href="#DejaVuSans-53" transform="translate(1378.5625 0)"/>
      <use xlink:href="#DejaVuSans-48" transform="translate(1442.046875 0)"/>
      <use xlink:href="#DejaVuSans-48" transform="translate(1503.578125 0)"/>
      <use xlink:href="#DejaVuSans-47" transform="translate(1565.109375 0)"/>
      <use xlink:href="#DejaVuSans-3" transform="translate(1628.59375 0)"/>
      <use xlink:href="#DejaVuSans-3" transform="translate(1660.375 0)"/>
      <use xlink:href="#DejaVuSans-10" transform="translate(1692.15625 0)"/>
      <use xlink:href="#DejaVuSans-21" transform="translate(1728.234375 0)"/>
     </g>
    </g>
   </g>
   <g id="patch_3">
    <path d="M 44.103906 241.947656 
L 44.103906 7.2 
" style="fill: none; stroke: #000000; stroke-width: 0.8; stroke-linejoin: miter; stroke-linecap: square"/>
   </g>
   <g id="patch_4">
    <path d="M 44.103906 241.947656 
L 413.811429 241.947656 
" style="fill: none; stroke: #000000; stroke-width: 0.8; stroke-linejoin: miter; stroke-linecap: square"/>
   </g>
   <g id="PathCollection_1">
    <defs>
     <path id="m562ebcc880" d="M 0 4.743416 
C 1.257969 4.743416 2.464584 4.24362 3.354102 3.354102 
C 4.24362 2.464584 4.743416 1.257969 4.743416 0 
C 4.743416 -1.257969 4.24362 -2.464584 3.354102 -3.354102 
C 2.464584 -4.24362 1.257969 -4.743416 0 -4.743416 
C -1.257969 -4.743416 -2.464584 -4.24362 -3.354102 -3.354102 
C -4.24362 -2.464584 -4.743416 -1.257969 -4.743416 0 
C -4.743416 1.257969 -4.24362 2.464584 -3.354102 3.354102 
C -2.464584 4.24362 -1.257969 4.743416 0 4.743416 
z
" style="stroke: #315b8a"/>
    </defs>
    <g clip-path="url(#p318082f32e)">
     <use xlink:href="#m562ebcc880" x="96.919267" y="39.211044" style="fill: #315b8a; stroke: #315b8a"/>
    </g>
   </g>
   <g id="text_15">
    <!-- Managed API -->
    <g transform="translate(104.919267 33.211044) scale(0.09 -0.09)">
     <defs>
      <path id="DejaVuSans-30" d="M 628 4666 
L 1569 4666 
L 2759 1491 
L 3956 4666 
L 4897 4666 
L 4897 0 
L 4281 0 
L 4281 4097 
L 3078 897 
L 2444 897 
L 1241 4097 
L 1241 0 
L 628 0 
L 628 4666 
z
" transform="scale(0.015625)"/>
      <path id="DejaVuSans-4a" d="M 2906 1791 
Q 2906 2416 2648 2759 
Q 2391 3103 1925 3103 
Q 1463 3103 1205 2759 
Q 947 2416 947 1791 
Q 947 1169 1205 825 
Q 1463 481 1925 481 
Q 2391 481 2648 825 
Q 2906 1169 2906 1791 
z
M 3481 434 
Q 3481 -459 3084 -895 
Q 2688 -1331 1869 -1331 
Q 1566 -1331 1297 -1286 
Q 1028 -1241 775 -1147 
L 775 -588 
Q 1028 -725 1275 -790 
Q 1522 -856 1778 -856 
Q 2344 -856 2625 -561 
Q 2906 -266 2906 331 
L 2906 616 
Q 2728 306 2450 153 
Q 2172 0 1784 0 
Q 1141 0 747 490 
Q 353 981 353 1791 
Q 353 2603 747 3093 
Q 1141 3584 1784 3584 
Q 2172 3584 2450 3431 
Q 2728 3278 2906 2969 
L 2906 3500 
L 3481 3500 
L 3481 434 
z
" transform="scale(0.015625)"/>
      <path id="DejaVuSans-24" d="M 2188 4044 
L 1331 1722 
L 3047 1722 
L 2188 4044 
z
M 1831 4666 
L 2547 4666 
L 4325 0 
L 3669 0 
L 3244 1197 
L 1141 1197 
L 716 0 
L 50 0 
L 1831 4666 
z
" transform="scale(0.015625)"/>
      <path id="DejaVuSans-33" d="M 1259 4147 
L 1259 2394 
L 2053 2394 
Q 2494 2394 2734 2622 
Q 2975 2850 2975 3272 
Q 2975 3691 2734 3919 
Q 2494 4147 2053 4147 
L 1259 4147 
z
M 628 4666 
L 2053 4666 
Q 2838 4666 3239 4311 
Q 3641 3956 3641 3272 
Q 3641 2581 3239 2228 
Q 2838 1875 2053 1875 
L 1259 1875 
L 1259 0 
L 628 0 
L 628 4666 
z
" transform="scale(0.015625)"/>
      <path id="DejaVuSans-2c" d="M 628 4666 
L 1259 4666 
L 1259 0 
L 628 0 
L 628 4666 
z
" transform="scale(0.015625)"/>
     </defs>
     <use xlink:href="#DejaVuSans-30"/>
     <use xlink:href="#DejaVuSans-44" transform="translate(86.28125 0)"/>
     <use xlink:href="#DejaVuSans-51" transform="translate(147.5625 0)"/>
     <use xlink:href="#DejaVuSans-44" transform="translate(210.9375 0)"/>
     <use xlink:href="#DejaVuSans-4a" transform="translate(272.21875 0)"/>
     <use xlink:href="#DejaVuSans-48" transform="translate(335.703125 0)"/>
     <use xlink:href="#DejaVuSans-47" transform="translate(397.234375 0)"/>
     <use xlink:href="#DejaVuSans-3" transform="translate(460.71875 0)"/>
     <use xlink:href="#DejaVuSans-24" transform="translate(492.5 0)"/>
     <use xlink:href="#DejaVuSans-33" transform="translate(560.90625 0)"/>
     <use xlink:href="#DejaVuSans-2c" transform="translate(621.203125 0)"/>
    </g>
   </g>
   <g id="PathCollection_2">
    <g clip-path="url(#p318082f32e)">
     <use xlink:href="#m562ebcc880" x="191.986915" y="75.490227" style="fill: #315b8a; stroke: #315b8a"/>
    </g>
   </g>
   <g id="text_16">
    <!-- Regional managed -->
    <g transform="translate(199.986915 69.490227) scale(0.09 -0.09)">
     <defs>
      <path id="DejaVuSans-35" d="M 2841 2188 
Q 3044 2119 3236 1894 
Q 3428 1669 3622 1275 
L 4263 0 
L 3584 0 
L 2988 1197 
Q 2756 1666 2539 1819 
Q 2322 1972 1947 1972 
L 1259 1972 
L 1259 0 
L 628 0 
L 628 4666 
L 2053 4666 
Q 2853 4666 3247 4331 
Q 3641 3997 3641 3322 
Q 3641 2881 3436 2590 
Q 3231 2300 2841 2188 
z
M 1259 4147 
L 1259 2491 
L 2053 2491 
Q 2509 2491 2742 2702 
Q 2975 2913 2975 3322 
Q 2975 3731 2742 3939 
Q 2509 4147 2053 4147 
L 1259 4147 
z
" transform="scale(0.015625)"/>
      <path id="DejaVuSans-50" d="M 3328 2828 
Q 3544 3216 3844 3400 
Q 4144 3584 4550 3584 
Q 5097 3584 5394 3201 
Q 5691 2819 5691 2113 
L 5691 0 
L 5113 0 
L 5113 2094 
Q 5113 2597 4934 2840 
Q 4756 3084 4391 3084 
Q 3944 3084 3684 2787 
Q 3425 2491 3425 1978 
L 3425 0 
L 2847 0 
L 2847 2094 
Q 2847 2600 2669 2842 
Q 2491 3084 2119 3084 
Q 1678 3084 1418 2786 
Q 1159 2488 1159 1978 
L 1159 0 
L 581 0 
L 581 3500 
L 1159 3500 
L 1159 2956 
Q 1356 3278 1631 3431 
Q 1906 3584 2284 3584 
Q 2666 3584 2933 3390 
Q 3200 3197 3328 2828 
z
" transform="scale(0.015625)"/>
     </defs>
     <use xlink:href="#DejaVuSans-35"/>
     <use xlink:href="#DejaVuSans-48" transform="translate(65 0)"/>
     <use xlink:href="#DejaVuSans-4a" transform="translate(126.53125 0)"/>
     <use xlink:href="#DejaVuSans-4c" transform="translate(190.015625 0)"/>
     <use xlink:href="#DejaVuSans-52" transform="translate(217.796875 0)"/>
     <use xlink:href="#DejaVuSans-51" transform="translate(278.984375 0)"/>
     <use xlink:href="#DejaVuSans-44" transform="translate(342.359375 0)"/>
     <use xlink:href="#DejaVuSans-4f" transform="translate(403.640625 0)"/>
     <use xlink:href="#DejaVuSans-3" transform="translate(431.421875 0)"/>
     <use xlink:href="#DejaVuSans-50" transform="translate(463.203125 0)"/>
     <use xlink:href="#DejaVuSans-44" transform="translate(560.609375 0)"/>
     <use xlink:href="#DejaVuSans-51" transform="translate(621.890625 0)"/>
     <use xlink:href="#DejaVuSans-44" transform="translate(685.265625 0)"/>
     <use xlink:href="#DejaVuSans-4a" transform="translate(746.546875 0)"/>
     <use xlink:href="#DejaVuSans-48" transform="translate(810.03125 0)"/>
     <use xlink:href="#DejaVuSans-47" transform="translate(871.5625 0)"/>
    </g>
   </g>
   <g id="PathCollection_3">
    <g clip-path="url(#p318082f32e)">
     <use xlink:href="#m562ebcc880" x="276.491492" y="135.244176" style="fill: #315b8a; stroke: #315b8a"/>
    </g>
   </g>
   <g id="text_17">
    <!-- Self-hosted -->
    <g transform="translate(284.491492 129.244176) scale(0.09 -0.09)">
     <defs>
      <path id="DejaVuSans-36" d="M 3425 4513 
L 3425 3897 
Q 3066 4069 2747 4153 
Q 2428 4238 2131 4238 
Q 1616 4238 1336 4038 
Q 1056 3838 1056 3469 
Q 1056 3159 1242 3001 
Q 1428 2844 1947 2747 
L 2328 2669 
Q 3034 2534 3370 2195 
Q 3706 1856 3706 1288 
Q 3706 609 3251 259 
Q 2797 -91 1919 -91 
Q 1588 -91 1214 -16 
Q 841 59 441 206 
L 441 856 
Q 825 641 1194 531 
Q 1563 422 1919 422 
Q 2459 422 2753 634 
Q 3047 847 3047 1241 
Q 3047 1584 2836 1778 
Q 2625 1972 2144 2069 
L 1759 2144 
Q 1053 2284 737 2584 
Q 422 2884 422 3419 
Q 422 4038 858 4394 
Q 1294 4750 2059 4750 
Q 2388 4750 2728 4690 
Q 3069 4631 3425 4513 
z
" transform="scale(0.015625)"/>
      <path id="DejaVuSans-49" d="M 2375 4863 
L 2375 4384 
L 1825 4384 
Q 1516 4384 1395 4259 
Q 1275 4134 1275 3809 
L 1275 3500 
L 2222 3500 
L 2222 3053 
L 1275 3053 
L 1275 0 
L 697 0 
L 697 3053 
L 147 3053 
L 147 3500 
L 697 3500 
L 697 3744 
Q 697 4328 969 4595 
Q 1241 4863 1831 4863 
L 2375 4863 
z
" transform="scale(0.015625)"/>
      <path id="DejaVuSans-4b" d="M 3513 2113 
L 3513 0 
L 2938 0 
L 2938 2094 
Q 2938 2591 2744 2837 
Q 2550 3084 2163 3084 
Q 1697 3084 1428 2787 
Q 1159 2491 1159 1978 
L 1159 0 
L 581 0 
L 581 4863 
L 1159 4863 
L 1159 2956 
Q 1366 3272 1645 3428 
Q 1925 3584 2291 3584 
Q 2894 3584 3203 3211 
Q 3513 2838 3513 2113 
z
" transform="scale(0.015625)"/>
     </defs>
     <use xlink:href="#DejaVuSans-36"/>
     <use xlink:href="#DejaVuSans-48" transform="translate(63.484375 0)"/>
     <use xlink:href="#DejaVuSans-4f" transform="translate(125.015625 0)"/>
     <use xlink:href="#DejaVuSans-49" transform="translate(152.796875 0)"/>
     <use xlink:href="#DejaVuSans-10" transform="translate(182.53125 0)"/>
     <use xlink:href="#DejaVuSans-4b" transform="translate(218.609375 0)"/>
     <use xlink:href="#DejaVuSans-52" transform="translate(281.984375 0)"/>
     <use xlink:href="#DejaVuSans-56" transform="translate(343.171875 0)"/>
     <use xlink:href="#DejaVuSans-57" transform="translate(395.265625 0)"/>
     <use xlink:href="#DejaVuSans-48" transform="translate(434.46875 0)"/>
     <use xlink:href="#DejaVuSans-47" transform="translate(496 0)"/>
    </g>
   </g>
   <g id="PathCollection_4">
    <g clip-path="url(#p318082f32e)">
     <use xlink:href="#m562ebcc880" x="360.996068" y="190.729986" style="fill: #315b8a; stroke: #315b8a"/>
    </g>
   </g>
   <g id="text_18">
    <!-- On-prem / sovereign -->
    <g transform="translate(368.996068 184.729986) scale(0.09 -0.09)">
     <defs>
      <path id="DejaVuSans-32" d="M 2522 4238 
Q 1834 4238 1429 3725 
Q 1025 3213 1025 2328 
Q 1025 1447 1429 934 
Q 1834 422 2522 422 
Q 3209 422 3611 934 
Q 4013 1447 4013 2328 
Q 4013 3213 3611 3725 
Q 3209 4238 2522 4238 
z
M 2522 4750 
Q 3503 4750 4090 4092 
Q 4678 3434 4678 2328 
Q 4678 1225 4090 567 
Q 3503 -91 2522 -91 
Q 1538 -91 948 565 
Q 359 1222 359 2328 
Q 359 3434 948 4092 
Q 1538 4750 2522 4750 
z
" transform="scale(0.015625)"/>
      <path id="DejaVuSans-12" d="M 1625 4666 
L 2156 4666 
L 531 -594 
L 0 -594 
L 1625 4666 
z
" transform="scale(0.015625)"/>
      <path id="DejaVuSans-59" d="M 191 3500 
L 800 3500 
L 1894 563 
L 2988 3500 
L 3597 3500 
L 2284 0 
L 1503 0 
L 191 3500 
z
" transform="scale(0.015625)"/>
     </defs>
     <use xlink:href="#DejaVuSans-32"/>
     <use xlink:href="#DejaVuSans-51" transform="translate(78.71875 0)"/>
     <use xlink:href="#DejaVuSans-10" transform="translate(142.09375 0)"/>
     <use xlink:href="#DejaVuSans-53" transform="translate(178.171875 0)"/>
     <use xlink:href="#DejaVuSans-55" transform="translate(241.65625 0)"/>
     <use xlink:href="#DejaVuSans-48" transform="translate(280.5625 0)"/>
     <use xlink:href="#DejaVuSans-50" transform="translate(342.09375 0)"/>
     <use xlink:href="#DejaVuSans-3" transform="translate(439.5 0)"/>
     <use xlink:href="#DejaVuSans-12" transform="translate(471.28125 0)"/>
     <use xlink:href="#DejaVuSans-3" transform="translate(504.96875 0)"/>
     <use xlink:href="#DejaVuSans-56" transform="translate(536.75 0)"/>
     <use xlink:href="#DejaVuSans-52" transform="translate(588.84375 0)"/>
     <use xlink:href="#DejaVuSans-59" transform="translate(650.03125 0)"/>
     <use xlink:href="#DejaVuSans-48" transform="translate(709.21875 0)"/>
     <use xlink:href="#DejaVuSans-55" transform="translate(770.75 0)"/>
     <use xlink:href="#DejaVuSans-48" transform="translate(809.65625 0)"/>
     <use xlink:href="#DejaVuSans-4c" transform="translate(871.1875 0)"/>
     <use xlink:href="#DejaVuSans-4a" transform="translate(898.96875 0)"/>
     <use xlink:href="#DejaVuSans-51" transform="translate(962.453125 0)"/>
    </g>
   </g>
   <g id="PathCollection_5">
    <g clip-path="url(#p318082f32e)">
     <use xlink:href="#m562ebcc880" x="318.74378" y="212.070682" style="fill: #315b8a; stroke: #315b8a"/>
    </g>
   </g>
   <g id="text_19">
    <!-- Edge / hybrid -->
    <g transform="translate(326.74378 206.070682) scale(0.09 -0.09)">
     <defs>
      <path id="DejaVuSans-28" d="M 628 4666 
L 3578 4666 
L 3578 4134 
L 1259 4134 
L 1259 2753 
L 3481 2753 
L 3481 2222 
L 1259 2222 
L 1259 531 
L 3634 531 
L 3634 0 
L 628 0 
L 628 4666 
z
" transform="scale(0.015625)"/>
     </defs>
     <use xlink:href="#DejaVuSans-28"/>
     <use xlink:href="#DejaVuSans-47" transform="translate(63.1875 0)"/>
     <use xlink:href="#DejaVuSans-4a" transform="translate(126.671875 0)"/>
     <use xlink:href="#DejaVuSans-48" transform="translate(190.15625 0)"/>
     <use xlink:href="#DejaVuSans-3" transform="translate(251.6875 0)"/>
     <use xlink:href="#DejaVuSans-12" transform="translate(283.46875 0)"/>
     <use xlink:href="#DejaVuSans-3" transform="translate(317.15625 0)"/>
     <use xlink:href="#DejaVuSans-4b" transform="translate(348.9375 0)"/>
     <use xlink:href="#DejaVuSans-5c" transform="translate(412.3125 0)"/>
     <use xlink:href="#DejaVuSans-45" transform="translate(471.5 0)"/>
     <use xlink:href="#DejaVuSans-55" transform="translate(534.984375 0)"/>
     <use xlink:href="#DejaVuSans-4c" transform="translate(576.09375 0)"/>
     <use xlink:href="#DejaVuSans-47" transform="translate(603.875 0)"/>
    </g>
   </g>
   <g id="patch_5">
    <path d="M 113.660634 33.750901 
Q 106.240235 36.17104 99.67018 38.313842 
" style="fill: none; stroke: #b13f3f; stroke-width: 0.8; stroke-linecap: round"/>
    <path d="M 103.208578 38.842753 
L 99.67018 38.313842 
L 102.216347 35.800471 
" style="fill: none; stroke: #b13f3f; stroke-width: 0.8; stroke-linecap: round"/>
   </g>
   <g id="text_20">
    <!-- public drafting -->
    <g style="fill: #b13f3f" transform="translate(104.919267 29.211044) scale(0.08 -0.08)">
     <use xlink:href="#DejaVuSans-53"/>
     <use xlink:href="#DejaVuSans-58" transform="translate(63.484375 0)"/>
     <use xlink:href="#DejaVuSans-45" transform="translate(126.859375 0)"/>
     <use xlink:href="#DejaVuSans-4f" transform="translate(190.34375 0)"/>
     <use xlink:href="#DejaVuSans-4c" transform="translate(218.125 0)"/>
     <use xlink:href="#DejaVuSans-46" transform="translate(245.90625 0)"/>
     <use xlink:href="#DejaVuSans-3" transform="translate(300.890625 0)"/>
     <use xlink:href="#DejaVuSans-47" transform="translate(332.671875 0)"/>
     <use xlink:href="#DejaVuSans-55" transform="translate(396.15625 0)"/>
     <use xlink:href="#DejaVuSans-44" transform="translate(437.265625 0)"/>
     <use xlink:href="#DejaVuSans-49" transform="translate(498.546875 0)"/>
     <use xlink:href="#DejaVuSans-57" transform="translate(532 0)"/>
     <use xlink:href="#DejaVuSans-4c" transform="translate(571.203125 0)"/>
     <use xlink:href="#DejaVuSans-51" transform="translate(598.984375 0)"/>
     <use xlink:href="#DejaVuSans-4a" transform="translate(662.359375 0)"/>
    </g>
   </g>
   <g id="patch_6">
    <path d="M 197.991447 75.915775 
Q 195.987493 75.773753 194.875729 75.694961 
" style="fill: none; stroke: #b13f3f; stroke-width: 0.8; stroke-linecap: round"/>
    <path d="M 197.954612 77.517178 
L 194.875729 75.694961 
L 198.180832 74.325184 
" style="fill: none; stroke: #b13f3f; stroke-width: 0.8; stroke-linecap: round"/>
   </g>
   <g id="text_21">
    <!-- tenant-private support -->
    <g style="fill: #b13f3f" transform="translate(201.986915 81.490227) scale(0.08 -0.08)">
     <use xlink:href="#DejaVuSans-57"/>
     <use xlink:href="#DejaVuSans-48" transform="translate(39.203125 0)"/>
     <use xlink:href="#DejaVuSans-51" transform="translate(100.734375 0)"/>
     <use xlink:href="#DejaVuSans-44" transform="translate(164.109375 0)"/>
     <use xlink:href="#DejaVuSans-51" transform="translate(225.390625 0)"/>
     <use xlink:href="#DejaVuSans-57" transform="translate(288.765625 0)"/>
     <use xlink:href="#DejaVuSans-10" transform="translate(327.96875 0)"/>
     <use xlink:href="#DejaVuSans-53" transform="translate(364.046875 0)"/>
     <use xlink:href="#DejaVuSans-55" transform="translate(427.53125 0)"/>
     <use xlink:href="#DejaVuSans-4c" transform="translate(468.640625 0)"/>
     <use xlink:href="#DejaVuSans-59" transform="translate(496.421875 0)"/>
     <use xlink:href="#DejaVuSans-44" transform="translate(555.609375 0)"/>
     <use xlink:href="#DejaVuSans-57" transform="translate(616.890625 0)"/>
     <use xlink:href="#DejaVuSans-48" transform="translate(656.09375 0)"/>
     <use xlink:href="#DejaVuSans-3" transform="translate(717.625 0)"/>
     <use xlink:href="#DejaVuSans-56" transform="translate(749.40625 0)"/>
     <use xlink:href="#DejaVuSans-58" transform="translate(801.5 0)"/>
     <use xlink:href="#DejaVuSans-53" transform="translate(864.875 0)"/>
     <use xlink:href="#DejaVuSans-53" transform="translate(928.359375 0)"/>
     <use xlink:href="#DejaVuSans-52" transform="translate(991.84375 0)"/>
     <use xlink:href="#DejaVuSans-55" transform="translate(1053.03125 0)"/>
     <use xlink:href="#DejaVuSans-57" transform="translate(1094.140625 0)"/>
    </g>
   </g>
   <g id="patch_7">
    <path d="M 308.69708 142.714377 
Q 293.567294 139.204969 279.308803 135.897662 
" style="fill: none; stroke: #b13f3f; stroke-width: 0.8; stroke-linecap: round"/>
    <path d="M 282.064517 138.179337 
L 279.308803 135.897662 
L 282.787572 135.062096 
" style="fill: none; stroke: #b13f3f; stroke-width: 0.8; stroke-linecap: round"/>
   </g>
   <g id="text_22">
    <!-- high-volume classification -->
    <g style="fill: #b13f3f" transform="translate(284.491492 151.244176) scale(0.08 -0.08)">
     <defs>
      <path id="DejaVuSans-13af" d="M 3431 3500 
L 3431 0 
L 2853 0 
L 2853 3053 
L 1275 3053 
L 1275 0 
L 697 0 
L 697 3053 
L 147 3053 
L 147 3500 
L 697 3500 
L 697 3744 
Q 697 4316 967 4589 
Q 1238 4863 1797 4863 
L 2375 4863 
L 2375 4384 
L 1825 4384 
Q 1516 4384 1395 4259 
Q 1275 4134 1275 3809 
L 1275 3500 
L 3431 3500 
z
M 2853 4856 
L 3431 4856 
L 3431 4128 
L 2853 4128 
L 2853 4856 
z
" transform="scale(0.015625)"/>
     </defs>
     <use xlink:href="#DejaVuSans-4b"/>
     <use xlink:href="#DejaVuSans-4c" transform="translate(63.375 0)"/>
     <use xlink:href="#DejaVuSans-4a" transform="translate(91.15625 0)"/>
     <use xlink:href="#DejaVuSans-4b" transform="translate(154.640625 0)"/>
     <use xlink:href="#DejaVuSans-10" transform="translate(218.015625 0)"/>
     <use xlink:href="#DejaVuSans-59" transform="translate(251.40625 0)"/>
     <use xlink:href="#DejaVuSans-52" transform="translate(310.59375 0)"/>
     <use xlink:href="#DejaVuSans-4f" transform="translate(371.78125 0)"/>
     <use xlink:href="#DejaVuSans-58" transform="translate(399.5625 0)"/>
     <use xlink:href="#DejaVuSans-50" transform="translate(462.9375 0)"/>
     <use xlink:href="#DejaVuSans-48" transform="translate(560.34375 0)"/>
     <use xlink:href="#DejaVuSans-3" transform="translate(621.875 0)"/>
     <use xlink:href="#DejaVuSans-46" transform="translate(653.65625 0)"/>
     <use xlink:href="#DejaVuSans-4f" transform="translate(708.640625 0)"/>
     <use xlink:href="#DejaVuSans-44" transform="translate(736.421875 0)"/>
     <use xlink:href="#DejaVuSans-56" transform="translate(797.703125 0)"/>
     <use xlink:href="#DejaVuSans-56" transform="translate(849.796875 0)"/>
     <use xlink:href="#DejaVuSans-4c" transform="translate(901.890625 0)"/>
     <use xlink:href="#DejaVuSans-13af" transform="translate(929.671875 0)"/>
     <use xlink:href="#DejaVuSans-46" transform="translate(992.65625 0)"/>
     <use xlink:href="#DejaVuSans-44" transform="translate(1047.640625 0)"/>
     <use xlink:href="#DejaVuSans-57" transform="translate(1108.921875 0)"/>
     <use xlink:href="#DejaVuSans-4c" transform="translate(1148.125 0)"/>
     <use xlink:href="#DejaVuSans-52" transform="translate(1175.90625 0)"/>
     <use xlink:href="#DejaVuSans-51" transform="translate(1237.09375 0)"/>
    </g>
   </g>
  </g>
 </g>
 <defs>
  <clipPath id="p318082f32e">
   <rect x="44.103906" y="7.2" width="369.707522" height="234.747656"/>
  </clipPath>
 </defs>
</svg>
