<?xml version="1.0" encoding="utf-8" standalone="no"?>
<!DOCTYPE svg PUBLIC "-//W3C//DTD SVG 1.1//EN"
  "http://www.w3.org/Graphics/SVG/1.1/DTD/svg11.dtd">
<svg xmlns:xlink="http://www.w3.org/1999/xlink" width="540.203125pt" height="222.549375pt" viewBox="0 0 540.203125 222.549375" xmlns="http://www.w3.org/2000/svg" version="1.1">
 <metadata>
  <rdf:RDF xmlns:dc="http://purl.org/dc/elements/1.1/" xmlns:cc="http://creativecommons.org/ns#" xmlns:rdf="http://www.w3.org/1999/02/22-rdf-syntax-ns#">
   <cc:Work>
    <dc:type rdf:resource="http://purl.org/dc/dcmitype/StillImage"/>
    <dc:date>2026-07-20T22:45:17.248051</dc:date>
    <dc:format>image/svg+xml</dc:format>
    <dc:creator>
     <cc:Agent>
      <dc:title>Matplotlib v3.11.1, https://matplotlib.org/</dc:title>
     </cc:Agent>
    </dc:creator>
   </cc:Work>
  </rdf:RDF>
 </metadata>
 <defs>
  <style type="text/css">*{stroke-linejoin: round; stroke-linecap: butt}</style>
 </defs>
 <g id="figure_1">
  <g id="patch_1">
   <path d="M 0 222.549375 
L 540.203125 222.549375 
L 540.203125 0 
L 0 0 
z
" style="fill: #ffffff"/>
  </g>
  <g id="axes_1">
   <g id="patch_2">
    <path d="M 49.305469 184.348594 
L 267.428125 184.348594 
L 267.428125 22.318125 
L 49.305469 22.318125 
z
" style="fill: #ffffff"/>
   </g>
   <g id="matplotlib.axis_1">
    <g id="xtick_1">
     <g id="line2d_1">
      <defs>
       <path id="m4f89449d15" d="M 0 0 
L 0 3.5 
" style="stroke: #000000; stroke-width: 0.8"/>
      </defs>
      <g>
       <use xlink:href="#m4f89449d15" x="59.220135" y="184.348594" style="stroke: #000000; stroke-width: 0.8"/>
      </g>
     </g>
     <g id="text_1">
      <!-- 0.0 -->
      <g transform="translate(51.268572 198.94625) scale(0.1 -0.1)">
       <defs>
        <path id="DejaVuSans-13" d="M 2034 4250 
Q 1547 4250 1301 3770 
Q 1056 3291 1056 2328 
Q 1056 1369 1301 889 
Q 1547 409 2034 409 
Q 2525 409 2770 889 
Q 3016 1369 3016 2328 
Q 3016 3291 2770 3770 
Q 2525 4250 2034 4250 
z
M 2034 4750 
Q 2819 4750 3233 4129 
Q 3647 3509 3647 2328 
Q 3647 1150 3233 529 
Q 2819 -91 2034 -91 
Q 1250 -91 836 529 
Q 422 1150 422 2328 
Q 422 3509 836 4129 
Q 1250 4750 2034 4750 
z
" transform="scale(0.015625)"/>
        <path id="DejaVuSans-11" d="M 684 794 
L 1344 794 
L 1344 0 
L 684 0 
L 684 794 
z
" transform="scale(0.015625)"/>
       </defs>
       <use xlink:href="#DejaVuSans-13"/>
       <use xlink:href="#DejaVuSans-11" transform="translate(63.625 0)"/>
       <use xlink:href="#DejaVuSans-13" transform="translate(95.40625 0)"/>
      </g>
     </g>
    </g>
    <g id="xtick_2">
     <g id="line2d_2">
      <g>
       <use xlink:href="#m4f89449d15" x="98.8788" y="184.348594" style="stroke: #000000; stroke-width: 0.8"/>
      </g>
     </g>
     <g id="text_2">
      <!-- 0.2 -->
      <g transform="translate(90.927237 198.94625) scale(0.1 -0.1)">
       <defs>
        <path id="DejaVuSans-15" d="M 1228 531 
L 3431 531 
L 3431 0 
L 469 0 
L 469 531 
Q 828 903 1448 1529 
Q 2069 2156 2228 2338 
Q 2531 2678 2651 2914 
Q 2772 3150 2772 3378 
Q 2772 3750 2511 3984 
Q 2250 4219 1831 4219 
Q 1534 4219 1204 4116 
Q 875 4013 500 3803 
L 500 4441 
Q 881 4594 1212 4672 
Q 1544 4750 1819 4750 
Q 2544 4750 2975 4387 
Q 3406 4025 3406 3419 
Q 3406 3131 3298 2873 
Q 3191 2616 2906 2266 
Q 2828 2175 2409 1742 
Q 1991 1309 1228 531 
z
" transform="scale(0.015625)"/>
       </defs>
       <use xlink:href="#DejaVuSans-13"/>
       <use xlink:href="#DejaVuSans-11" transform="translate(63.625 0)"/>
       <use xlink:href="#DejaVuSans-15" transform="translate(95.40625 0)"/>
      </g>
     </g>
    </g>
    <g id="xtick_3">
     <g id="line2d_3">
      <g>
       <use xlink:href="#m4f89449d15" x="138.537464" y="184.348594" style="stroke: #000000; stroke-width: 0.8"/>
      </g>
     </g>
     <g id="text_3">
      <!-- 0.4 -->
      <g transform="translate(130.585902 198.94625) scale(0.1 -0.1)">
       <defs>
        <path id="DejaVuSans-17" d="M 2419 4116 
L 825 1625 
L 2419 1625 
L 2419 4116 
z
M 2253 4666 
L 3047 4666 
L 3047 1625 
L 3713 1625 
L 3713 1100 
L 3047 1100 
L 3047 0 
L 2419 0 
L 2419 1100 
L 313 1100 
L 313 1709 
L 2253 4666 
z
" transform="scale(0.015625)"/>
       </defs>
       <use xlink:href="#DejaVuSans-13"/>
       <use xlink:href="#DejaVuSans-11" transform="translate(63.625 0)"/>
       <use xlink:href="#DejaVuSans-17" transform="translate(95.40625 0)"/>
      </g>
     </g>
    </g>
    <g id="xtick_4">
     <g id="line2d_4">
      <g>
       <use xlink:href="#m4f89449d15" x="178.196129" y="184.348594" style="stroke: #000000; stroke-width: 0.8"/>
      </g>
     </g>
     <g id="text_4">
      <!-- 0.6 -->
      <g transform="translate(170.244567 198.94625) scale(0.1 -0.1)">
       <defs>
        <path id="DejaVuSans-19" d="M 2113 2584 
Q 1688 2584 1439 2293 
Q 1191 2003 1191 1497 
Q 1191 994 1439 701 
Q 1688 409 2113 409 
Q 2538 409 2786 701 
Q 3034 994 3034 1497 
Q 3034 2003 2786 2293 
Q 2538 2584 2113 2584 
z
M 3366 4563 
L 3366 3988 
Q 3128 4100 2886 4159 
Q 2644 4219 2406 4219 
Q 1781 4219 1451 3797 
Q 1122 3375 1075 2522 
Q 1259 2794 1537 2939 
Q 1816 3084 2150 3084 
Q 2853 3084 3261 2657 
Q 3669 2231 3669 1497 
Q 3669 778 3244 343 
Q 2819 -91 2113 -91 
Q 1303 -91 875 529 
Q 447 1150 447 2328 
Q 447 3434 972 4092 
Q 1497 4750 2381 4750 
Q 2619 4750 2861 4703 
Q 3103 4656 3366 4563 
z
" transform="scale(0.015625)"/>
       </defs>
       <use xlink:href="#DejaVuSans-13"/>
       <use xlink:href="#DejaVuSans-11" transform="translate(63.625 0)"/>
       <use xlink:href="#DejaVuSans-19" transform="translate(95.40625 0)"/>
      </g>
     </g>
    </g>
    <g id="xtick_5">
     <g id="line2d_5">
      <g>
       <use xlink:href="#m4f89449d15" x="217.854794" y="184.348594" style="stroke: #000000; stroke-width: 0.8"/>
      </g>
     </g>
     <g id="text_5">
      <!-- 0.8 -->
      <g transform="translate(209.903232 198.94625) scale(0.1 -0.1)">
       <defs>
        <path id="DejaVuSans-1b" d="M 2034 2216 
Q 1584 2216 1326 1975 
Q 1069 1734 1069 1313 
Q 1069 891 1326 650 
Q 1584 409 2034 409 
Q 2484 409 2743 651 
Q 3003 894 3003 1313 
Q 3003 1734 2745 1975 
Q 2488 2216 2034 2216 
z
M 1403 2484 
Q 997 2584 770 2862 
Q 544 3141 544 3541 
Q 544 4100 942 4425 
Q 1341 4750 2034 4750 
Q 2731 4750 3128 4425 
Q 3525 4100 3525 3541 
Q 3525 3141 3298 2862 
Q 3072 2584 2669 2484 
Q 3125 2378 3379 2068 
Q 3634 1759 3634 1313 
Q 3634 634 3220 271 
Q 2806 -91 2034 -91 
Q 1263 -91 848 271 
Q 434 634 434 1313 
Q 434 1759 690 2068 
Q 947 2378 1403 2484 
z
M 1172 3481 
Q 1172 3119 1398 2916 
Q 1625 2713 2034 2713 
Q 2441 2713 2670 2916 
Q 2900 3119 2900 3481 
Q 2900 3844 2670 4047 
Q 2441 4250 2034 4250 
Q 1625 4250 1398 4047 
Q 1172 3844 1172 3481 
z
" transform="scale(0.015625)"/>
       </defs>
       <use xlink:href="#DejaVuSans-13"/>
       <use xlink:href="#DejaVuSans-11" transform="translate(63.625 0)"/>
       <use xlink:href="#DejaVuSans-1b" transform="translate(95.40625 0)"/>
      </g>
     </g>
    </g>
    <g id="xtick_6">
     <g id="line2d_6">
      <g>
       <use xlink:href="#m4f89449d15" x="257.513459" y="184.348594" style="stroke: #000000; stroke-width: 0.8"/>
      </g>
     </g>
     <g id="text_6">
      <!-- 1.0 -->
      <g transform="translate(249.561896 198.94625) scale(0.1 -0.1)">
       <defs>
        <path id="DejaVuSans-14" d="M 794 531 
L 1825 531 
L 1825 4091 
L 703 3866 
L 703 4441 
L 1819 4666 
L 2450 4666 
L 2450 531 
L 3481 531 
L 3481 0 
L 794 0 
L 794 531 
z
" transform="scale(0.015625)"/>
       </defs>
       <use xlink:href="#DejaVuSans-14"/>
       <use xlink:href="#DejaVuSans-11" transform="translate(63.625 0)"/>
       <use xlink:href="#DejaVuSans-13" transform="translate(95.40625 0)"/>
      </g>
     </g>
    </g>
    <g id="text_7">
     <!-- model scale (arbitrary units) -->
     <g transform="translate(87.176172 212.947031) scale(0.1 -0.1)">
      <defs>
       <path id="DejaVuSans-50" d="M 3328 2828 
Q 3544 3216 3844 3400 
Q 4144 3584 4550 3584 
Q 5097 3584 5394 3201 
Q 5691 2819 5691 2113 
L 5691 0 
L 5113 0 
L 5113 2094 
Q 5113 2597 4934 2840 
Q 4756 3084 4391 3084 
Q 3944 3084 3684 2787 
Q 3425 2491 3425 1978 
L 3425 0 
L 2847 0 
L 2847 2094 
Q 2847 2600 2669 2842 
Q 2491 3084 2119 3084 
Q 1678 3084 1418 2786 
Q 1159 2488 1159 1978 
L 1159 0 
L 581 0 
L 581 3500 
L 1159 3500 
L 1159 2956 
Q 1356 3278 1631 3431 
Q 1906 3584 2284 3584 
Q 2666 3584 2933 3390 
Q 3200 3197 3328 2828 
z
" transform="scale(0.015625)"/>
       <path id="DejaVuSans-52" d="M 1959 3097 
Q 1497 3097 1228 2736 
Q 959 2375 959 1747 
Q 959 1119 1226 758 
Q 1494 397 1959 397 
Q 2419 397 2687 759 
Q 2956 1122 2956 1747 
Q 2956 2369 2687 2733 
Q 2419 3097 1959 3097 
z
M 1959 3584 
Q 2709 3584 3137 3096 
Q 3566 2609 3566 1747 
Q 3566 888 3137 398 
Q 2709 -91 1959 -91 
Q 1206 -91 779 398 
Q 353 888 353 1747 
Q 353 2609 779 3096 
Q 1206 3584 1959 3584 
z
" transform="scale(0.015625)"/>
       <path id="DejaVuSans-47" d="M 2906 2969 
L 2906 4863 
L 3481 4863 
L 3481 0 
L 2906 0 
L 2906 525 
Q 2725 213 2448 61 
Q 2172 -91 1784 -91 
Q 1150 -91 751 415 
Q 353 922 353 1747 
Q 353 2572 751 3078 
Q 1150 3584 1784 3584 
Q 2172 3584 2448 3432 
Q 2725 3281 2906 2969 
z
M 947 1747 
Q 947 1113 1208 752 
Q 1469 391 1925 391 
Q 2381 391 2643 752 
Q 2906 1113 2906 1747 
Q 2906 2381 2643 2742 
Q 2381 3103 1925 3103 
Q 1469 3103 1208 2742 
Q 947 2381 947 1747 
z
" transform="scale(0.015625)"/>
       <path id="DejaVuSans-48" d="M 3597 1894 
L 3597 1613 
L 953 1613 
Q 991 1019 1311 708 
Q 1631 397 2203 397 
Q 2534 397 2845 478 
Q 3156 559 3463 722 
L 3463 178 
Q 3153 47 2828 -22 
Q 2503 -91 2169 -91 
Q 1331 -91 842 396 
Q 353 884 353 1716 
Q 353 2575 817 3079 
Q 1281 3584 2069 3584 
Q 2775 3584 3186 3129 
Q 3597 2675 3597 1894 
z
M 3022 2063 
Q 3016 2534 2758 2815 
Q 2500 3097 2075 3097 
Q 1594 3097 1305 2825 
Q 1016 2553 972 2059 
L 3022 2063 
z
" transform="scale(0.015625)"/>
       <path id="DejaVuSans-4f" d="M 603 4863 
L 1178 4863 
L 1178 0 
L 603 0 
L 603 4863 
z
" transform="scale(0.015625)"/>
       <path id="DejaVuSans-3" transform="scale(0.015625)"/>
       <path id="DejaVuSans-56" d="M 2834 3397 
L 2834 2853 
Q 2591 2978 2328 3040 
Q 2066 3103 1784 3103 
Q 1356 3103 1142 2972 
Q 928 2841 928 2578 
Q 928 2378 1081 2264 
Q 1234 2150 1697 2047 
L 1894 2003 
Q 2506 1872 2764 1633 
Q 3022 1394 3022 966 
Q 3022 478 2636 193 
Q 2250 -91 1575 -91 
Q 1294 -91 989 -36 
Q 684 19 347 128 
L 347 722 
Q 666 556 975 473 
Q 1284 391 1588 391 
Q 1994 391 2212 530 
Q 2431 669 2431 922 
Q 2431 1156 2273 1281 
Q 2116 1406 1581 1522 
L 1381 1569 
Q 847 1681 609 1914 
Q 372 2147 372 2553 
Q 372 3047 722 3315 
Q 1072 3584 1716 3584 
Q 2034 3584 2315 3537 
Q 2597 3491 2834 3397 
z
" transform="scale(0.015625)"/>
       <path id="DejaVuSans-46" d="M 3122 3366 
L 3122 2828 
Q 2878 2963 2633 3030 
Q 2388 3097 2138 3097 
Q 1578 3097 1268 2742 
Q 959 2388 959 1747 
Q 959 1106 1268 751 
Q 1578 397 2138 397 
Q 2388 397 2633 464 
Q 2878 531 3122 666 
L 3122 134 
Q 2881 22 2623 -34 
Q 2366 -91 2075 -91 
Q 1284 -91 818 406 
Q 353 903 353 1747 
Q 353 2603 823 3093 
Q 1294 3584 2113 3584 
Q 2378 3584 2631 3529 
Q 2884 3475 3122 3366 
z
" transform="scale(0.015625)"/>
       <path id="DejaVuSans-44" d="M 2194 1759 
Q 1497 1759 1228 1600 
Q 959 1441 959 1056 
Q 959 750 1161 570 
Q 1363 391 1709 391 
Q 2188 391 2477 730 
Q 2766 1069 2766 1631 
L 2766 1759 
L 2194 1759 
z
M 3341 1997 
L 3341 0 
L 2766 0 
L 2766 531 
Q 2569 213 2275 61 
Q 1981 -91 1556 -91 
Q 1019 -91 701 211 
Q 384 513 384 1019 
Q 384 1609 779 1909 
Q 1175 2209 1959 2209 
L 2766 2209 
L 2766 2266 
Q 2766 2663 2505 2880 
Q 2244 3097 1772 3097 
Q 1472 3097 1187 3025 
Q 903 2953 641 2809 
L 641 3341 
Q 956 3463 1253 3523 
Q 1550 3584 1831 3584 
Q 2591 3584 2966 3190 
Q 3341 2797 3341 1997 
z
" transform="scale(0.015625)"/>
       <path id="DejaVuSans-b" d="M 1984 4856 
Q 1566 4138 1362 3434 
Q 1159 2731 1159 2009 
Q 1159 1288 1364 580 
Q 1569 -128 1984 -844 
L 1484 -844 
Q 1016 -109 783 600 
Q 550 1309 550 2009 
Q 550 2706 781 3412 
Q 1013 4119 1484 4856 
L 1984 4856 
z
" transform="scale(0.015625)"/>
       <path id="DejaVuSans-55" d="M 2631 2963 
Q 2534 3019 2420 3045 
Q 2306 3072 2169 3072 
Q 1681 3072 1420 2755 
Q 1159 2438 1159 1844 
L 1159 0 
L 581 0 
L 581 3500 
L 1159 3500 
L 1159 2956 
Q 1341 3275 1631 3429 
Q 1922 3584 2338 3584 
Q 2397 3584 2469 3576 
Q 2541 3569 2628 3553 
L 2631 2963 
z
" transform="scale(0.015625)"/>
       <path id="DejaVuSans-45" d="M 3116 1747 
Q 3116 2381 2855 2742 
Q 2594 3103 2138 3103 
Q 1681 3103 1420 2742 
Q 1159 2381 1159 1747 
Q 1159 1113 1420 752 
Q 1681 391 2138 391 
Q 2594 391 2855 752 
Q 3116 1113 3116 1747 
z
M 1159 2969 
Q 1341 3281 1617 3432 
Q 1894 3584 2278 3584 
Q 2916 3584 3314 3078 
Q 3713 2572 3713 1747 
Q 3713 922 3314 415 
Q 2916 -91 2278 -91 
Q 1894 -91 1617 61 
Q 1341 213 1159 525 
L 1159 0 
L 581 0 
L 581 4863 
L 1159 4863 
L 1159 2969 
z
" transform="scale(0.015625)"/>
       <path id="DejaVuSans-4c" d="M 603 3500 
L 1178 3500 
L 1178 0 
L 603 0 
L 603 3500 
z
M 603 4863 
L 1178 4863 
L 1178 4134 
L 603 4134 
L 603 4863 
z
" transform="scale(0.015625)"/>
       <path id="DejaVuSans-57" d="M 1172 4494 
L 1172 3500 
L 2356 3500 
L 2356 3053 
L 1172 3053 
L 1172 1153 
Q 1172 725 1289 603 
Q 1406 481 1766 481 
L 2356 481 
L 2356 0 
L 1766 0 
Q 1100 0 847 248 
Q 594 497 594 1153 
L 594 3053 
L 172 3053 
L 172 3500 
L 594 3500 
L 594 4494 
L 1172 4494 
z
" transform="scale(0.015625)"/>
       <path id="DejaVuSans-5c" d="M 2059 -325 
Q 1816 -950 1584 -1140 
Q 1353 -1331 966 -1331 
L 506 -1331 
L 506 -850 
L 844 -850 
Q 1081 -850 1212 -737 
Q 1344 -625 1503 -206 
L 1606 56 
L 191 3500 
L 800 3500 
L 1894 763 
L 2988 3500 
L 3597 3500 
L 2059 -325 
z
" transform="scale(0.015625)"/>
       <path id="DejaVuSans-58" d="M 544 1381 
L 544 3500 
L 1119 3500 
L 1119 1403 
Q 1119 906 1312 657 
Q 1506 409 1894 409 
Q 2359 409 2629 706 
Q 2900 1003 2900 1516 
L 2900 3500 
L 3475 3500 
L 3475 0 
L 2900 0 
L 2900 538 
Q 2691 219 2414 64 
Q 2138 -91 1772 -91 
Q 1169 -91 856 284 
Q 544 659 544 1381 
z
M 1991 3584 
L 1991 3584 
z
" transform="scale(0.015625)"/>
       <path id="DejaVuSans-51" d="M 3513 2113 
L 3513 0 
L 2938 0 
L 2938 2094 
Q 2938 2591 2744 2837 
Q 2550 3084 2163 3084 
Q 1697 3084 1428 2787 
Q 1159 2491 1159 1978 
L 1159 0 
L 581 0 
L 581 3500 
L 1159 3500 
L 1159 2956 
Q 1366 3272 1645 3428 
Q 1925 3584 2291 3584 
Q 2894 3584 3203 3211 
Q 3513 2838 3513 2113 
z
" transform="scale(0.015625)"/>
       <path id="DejaVuSans-c" d="M 513 4856 
L 1013 4856 
Q 1481 4119 1714 3412 
Q 1947 2706 1947 2009 
Q 1947 1309 1714 600 
Q 1481 -109 1013 -844 
L 513 -844 
Q 928 -128 1133 580 
Q 1338 1288 1338 2009 
Q 1338 2731 1133 3434 
Q 928 4138 513 4856 
z
" transform="scale(0.015625)"/>
      </defs>
      <use xlink:href="#DejaVuSans-50"/>
      <use xlink:href="#DejaVuSans-52" transform="translate(97.40625 0)"/>
      <use xlink:href="#DejaVuSans-47" transform="translate(158.59375 0)"/>
      <use xlink:href="#DejaVuSans-48" transform="translate(222.078125 0)"/>
      <use xlink:href="#DejaVuSans-4f" transform="translate(283.609375 0)"/>
      <use xlink:href="#DejaVuSans-3" transform="translate(311.390625 0)"/>
      <use xlink:href="#DejaVuSans-56" transform="translate(343.171875 0)"/>
      <use xlink:href="#DejaVuSans-46" transform="translate(395.265625 0)"/>
      <use xlink:href="#DejaVuSans-44" transform="translate(450.25 0)"/>
      <use xlink:href="#DejaVuSans-4f" transform="translate(511.53125 0)"/>
      <use xlink:href="#DejaVuSans-48" transform="translate(539.3125 0)"/>
      <use xlink:href="#DejaVuSans-3" transform="translate(600.84375 0)"/>
      <use xlink:href="#DejaVuSans-b" transform="translate(632.625 0)"/>
      <use xlink:href="#DejaVuSans-44" transform="translate(671.640625 0)"/>
      <use xlink:href="#DejaVuSans-55" transform="translate(732.921875 0)"/>
      <use xlink:href="#DejaVuSans-45" transform="translate(774.03125 0)"/>
      <use xlink:href="#DejaVuSans-4c" transform="translate(837.515625 0)"/>
      <use xlink:href="#DejaVuSans-57" transform="translate(865.296875 0)"/>
      <use xlink:href="#DejaVuSans-55" transform="translate(904.5 0)"/>
      <use xlink:href="#DejaVuSans-44" transform="translate(945.609375 0)"/>
      <use xlink:href="#DejaVuSans-55" transform="translate(1006.890625 0)"/>
      <use xlink:href="#DejaVuSans-5c" transform="translate(1048 0)"/>
      <use xlink:href="#DejaVuSans-3" transform="translate(1107.1875 0)"/>
      <use xlink:href="#DejaVuSans-58" transform="translate(1138.96875 0)"/>
      <use xlink:href="#DejaVuSans-51" transform="translate(1202.34375 0)"/>
      <use xlink:href="#DejaVuSans-4c" transform="translate(1265.71875 0)"/>
      <use xlink:href="#DejaVuSans-57" transform="translate(1293.5 0)"/>
      <use xlink:href="#DejaVuSans-56" transform="translate(1332.703125 0)"/>
      <use xlink:href="#DejaVuSans-c" transform="translate(1384.796875 0)"/>
     </g>
    </g>
   </g>
   <g id="matplotlib.axis_2">
    <g id="ytick_1">
     <g id="line2d_7">
      <defs>
       <path id="m4728b00943" d="M 0 0 
L -3.5 0 
" style="stroke: #000000; stroke-width: 0.8"/>
      </defs>
      <g>
       <use xlink:href="#m4728b00943" x="49.305469" y="147.478034" style="stroke: #000000; stroke-width: 0.8"/>
      </g>
     </g>
     <g id="text_8">
      <!-- −60 -->
      <g transform="translate(21.200781 151.276862) scale(0.1 -0.1)">
       <defs>
        <path id="DejaVuSans-c9c" d="M 678 2272 
L 4684 2272 
L 4684 1741 
L 678 1741 
L 678 2272 
z
" transform="scale(0.015625)"/>
       </defs>
       <use xlink:href="#DejaVuSans-c9c"/>
       <use xlink:href="#DejaVuSans-19" transform="translate(83.796875 0)"/>
       <use xlink:href="#DejaVuSans-13" transform="translate(147.421875 0)"/>
      </g>
     </g>
    </g>
    <g id="ytick_2">
     <g id="line2d_8">
      <g>
       <use xlink:href="#m4728b00943" x="49.305469" y="108.19792" style="stroke: #000000; stroke-width: 0.8"/>
      </g>
     </g>
     <g id="text_9">
      <!-- −40 -->
      <g transform="translate(21.200781 111.996748) scale(0.1 -0.1)">
       <use xlink:href="#DejaVuSans-c9c"/>
       <use xlink:href="#DejaVuSans-17" transform="translate(83.796875 0)"/>
       <use xlink:href="#DejaVuSans-13" transform="translate(147.421875 0)"/>
      </g>
     </g>
    </g>
    <g id="ytick_3">
     <g id="line2d_9">
      <g>
       <use xlink:href="#m4728b00943" x="49.305469" y="68.917807" style="stroke: #000000; stroke-width: 0.8"/>
      </g>
     </g>
     <g id="text_10">
      <!-- −20 -->
      <g transform="translate(21.200781 72.716635) scale(0.1 -0.1)">
       <use xlink:href="#DejaVuSans-c9c"/>
       <use xlink:href="#DejaVuSans-15" transform="translate(83.796875 0)"/>
       <use xlink:href="#DejaVuSans-13" transform="translate(147.421875 0)"/>
      </g>
     </g>
    </g>
    <g id="ytick_4">
     <g id="line2d_10">
      <g>
       <use xlink:href="#m4728b00943" x="49.305469" y="29.637693" style="stroke: #000000; stroke-width: 0.8"/>
      </g>
     </g>
     <g id="text_11">
      <!-- 0 -->
      <g transform="translate(35.942969 33.436521) scale(0.1 -0.1)">
       <use xlink:href="#DejaVuSans-13"/>
      </g>
     </g>
    </g>
    <g id="text_12">
     <!-- log-prob of answer -->
     <g transform="translate(14.798438 150.169297) rotate(-90) scale(0.1 -0.1)">
      <defs>
       <path id="DejaVuSans-4a" d="M 2906 1791 
Q 2906 2416 2648 2759 
Q 2391 3103 1925 3103 
Q 1463 3103 1205 2759 
Q 947 2416 947 1791 
Q 947 1169 1205 825 
Q 1463 481 1925 481 
Q 2391 481 2648 825 
Q 2906 1169 2906 1791 
z
M 3481 434 
Q 3481 -459 3084 -895 
Q 2688 -1331 1869 -1331 
Q 1566 -1331 1297 -1286 
Q 1028 -1241 775 -1147 
L 775 -588 
Q 1028 -725 1275 -790 
Q 1522 -856 1778 -856 
Q 2344 -856 2625 -561 
Q 2906 -266 2906 331 
L 2906 616 
Q 2728 306 2450 153 
Q 2172 0 1784 0 
Q 1141 0 747 490 
Q 353 981 353 1791 
Q 353 2603 747 3093 
Q 1141 3584 1784 3584 
Q 2172 3584 2450 3431 
Q 2728 3278 2906 2969 
L 2906 3500 
L 3481 3500 
L 3481 434 
z
" transform="scale(0.015625)"/>
       <path id="DejaVuSans-10" d="M 313 2009 
L 1997 2009 
L 1997 1497 
L 313 1497 
L 313 2009 
z
" transform="scale(0.015625)"/>
       <path id="DejaVuSans-53" d="M 1159 525 
L 1159 -1331 
L 581 -1331 
L 581 3500 
L 1159 3500 
L 1159 2969 
Q 1341 3281 1617 3432 
Q 1894 3584 2278 3584 
Q 2916 3584 3314 3078 
Q 3713 2572 3713 1747 
Q 3713 922 3314 415 
Q 2916 -91 2278 -91 
Q 1894 -91 1617 61 
Q 1341 213 1159 525 
z
M 3116 1747 
Q 3116 2381 2855 2742 
Q 2594 3103 2138 3103 
Q 1681 3103 1420 2742 
Q 1159 2381 1159 1747 
Q 1159 1113 1420 752 
Q 1681 391 2138 391 
Q 2594 391 2855 752 
Q 3116 1113 3116 1747 
z
" transform="scale(0.015625)"/>
       <path id="DejaVuSans-49" d="M 2375 4863 
L 2375 4384 
L 1825 4384 
Q 1516 4384 1395 4259 
Q 1275 4134 1275 3809 
L 1275 3500 
L 2222 3500 
L 2222 3053 
L 1275 3053 
L 1275 0 
L 697 0 
L 697 3053 
L 147 3053 
L 147 3500 
L 697 3500 
L 697 3744 
Q 697 4328 969 4595 
Q 1241 4863 1831 4863 
L 2375 4863 
z
" transform="scale(0.015625)"/>
       <path id="DejaVuSans-5a" d="M 269 3500 
L 844 3500 
L 1563 769 
L 2278 3500 
L 2956 3500 
L 3675 769 
L 4391 3500 
L 4966 3500 
L 4050 0 
L 3372 0 
L 2619 2869 
L 1863 0 
L 1184 0 
L 269 3500 
z
" transform="scale(0.015625)"/>
      </defs>
      <use xlink:href="#DejaVuSans-4f"/>
      <use xlink:href="#DejaVuSans-52" transform="translate(27.78125 0)"/>
      <use xlink:href="#DejaVuSans-4a" transform="translate(88.96875 0)"/>
      <use xlink:href="#DejaVuSans-10" transform="translate(152.453125 0)"/>
      <use xlink:href="#DejaVuSans-53" transform="translate(188.53125 0)"/>
      <use xlink:href="#DejaVuSans-55" transform="translate(252.015625 0)"/>
      <use xlink:href="#DejaVuSans-52" transform="translate(290.921875 0)"/>
      <use xlink:href="#DejaVuSans-45" transform="translate(352.109375 0)"/>
      <use xlink:href="#DejaVuSans-3" transform="translate(415.59375 0)"/>
      <use xlink:href="#DejaVuSans-52" transform="translate(447.375 0)"/>
      <use xlink:href="#DejaVuSans-49" transform="translate(508.5625 0)"/>
      <use xlink:href="#DejaVuSans-3" transform="translate(543.765625 0)"/>
      <use xlink:href="#DejaVuSans-44" transform="translate(575.546875 0)"/>
      <use xlink:href="#DejaVuSans-51" transform="translate(636.828125 0)"/>
      <use xlink:href="#DejaVuSans-56" transform="translate(700.203125 0)"/>
      <use xlink:href="#DejaVuSans-5a" transform="translate(752.296875 0)"/>
      <use xlink:href="#DejaVuSans-48" transform="translate(834.078125 0)"/>
      <use xlink:href="#DejaVuSans-55" transform="translate(895.609375 0)"/>
     </g>
    </g>
   </g>
   <g id="line2d_11">
    <path d="M 59.220135 176.983572 
L 91.106499 129.902271 
L 106.053232 108.214539 
L 116.01772 94.133682 
L 123.989311 83.266857 
L 129.968004 75.467557 
L 134.950249 69.277794 
L 139.932493 63.440284 
L 143.918288 59.070603 
L 147.904084 55.004914 
L 151.889879 51.272885 
L 155.875675 47.896915 
L 159.86147 44.889672 
L 162.850817 42.877521 
L 165.840163 41.070189 
L 168.82951 39.460648 
L 172.815305 37.604712 
L 176.801101 36.052767 
L 180.786896 34.770753 
L 184.772692 33.723004 
L 188.758487 32.874564 
L 193.740732 32.044951 
L 199.719425 31.315201 
L 206.694567 30.731982 
L 214.666158 30.305798 
L 225.627095 29.974846 
L 240.573828 29.769678 
L 257.513459 29.683146 
L 257.513459 29.683146 
" clip-path="url(#p122f595bd3)" style="fill: none; stroke: #2a7f9e; stroke-width: 1.5; stroke-linecap: square"/>
   </g>
   <g id="patch_3">
    <path d="M 49.305469 184.348594 
L 49.305469 22.318125 
" style="fill: none; stroke: #000000; stroke-width: 0.8; stroke-linejoin: miter; stroke-linecap: square"/>
   </g>
   <g id="patch_4">
    <path d="M 267.428125 184.348594 
L 267.428125 22.318125 
" style="fill: none; stroke: #000000; stroke-width: 0.8; stroke-linejoin: miter; stroke-linecap: square"/>
   </g>
   <g id="patch_5">
    <path d="M 49.305469 184.348594 
L 267.428125 184.348594 
" style="fill: none; stroke: #000000; stroke-width: 0.8; stroke-linejoin: miter; stroke-linecap: square"/>
   </g>
   <g id="patch_6">
    <path d="M 49.305469 22.318125 
L 267.428125 22.318125 
" style="fill: none; stroke: #000000; stroke-width: 0.8; stroke-linejoin: miter; stroke-linecap: square"/>
   </g>
   <g id="text_13">
    <!-- continuous metric: smooth -->
    <g transform="translate(77.747422 16.318125) scale(0.12 -0.12)">
     <defs>
      <path id="DejaVuSans-1d" d="M 750 794 
L 1409 794 
L 1409 0 
L 750 0 
L 750 794 
z
M 750 3309 
L 1409 3309 
L 1409 2516 
L 750 2516 
L 750 3309 
z
" transform="scale(0.015625)"/>
      <path id="DejaVuSans-4b" d="M 3513 2113 
L 3513 0 
L 2938 0 
L 2938 2094 
Q 2938 2591 2744 2837 
Q 2550 3084 2163 3084 
Q 1697 3084 1428 2787 
Q 1159 2491 1159 1978 
L 1159 0 
L 581 0 
L 581 4863 
L 1159 4863 
L 1159 2956 
Q 1366 3272 1645 3428 
Q 1925 3584 2291 3584 
Q 2894 3584 3203 3211 
Q 3513 2838 3513 2113 
z
" transform="scale(0.015625)"/>
     </defs>
     <use xlink:href="#DejaVuSans-46"/>
     <use xlink:href="#DejaVuSans-52" transform="translate(54.984375 0)"/>
     <use xlink:href="#DejaVuSans-51" transform="translate(116.171875 0)"/>
     <use xlink:href="#DejaVuSans-57" transform="translate(179.546875 0)"/>
     <use xlink:href="#DejaVuSans-4c" transform="translate(218.75 0)"/>
     <use xlink:href="#DejaVuSans-51" transform="translate(246.53125 0)"/>
     <use xlink:href="#DejaVuSans-58" transform="translate(309.90625 0)"/>
     <use xlink:href="#DejaVuSans-52" transform="translate(373.28125 0)"/>
     <use xlink:href="#DejaVuSans-58" transform="translate(434.46875 0)"/>
     <use xlink:href="#DejaVuSans-56" transform="translate(497.84375 0)"/>
     <use xlink:href="#DejaVuSans-3" transform="translate(549.9375 0)"/>
     <use xlink:href="#DejaVuSans-50" transform="translate(581.71875 0)"/>
     <use xlink:href="#DejaVuSans-48" transform="translate(679.125 0)"/>
     <use xlink:href="#DejaVuSans-57" transform="translate(740.65625 0)"/>
     <use xlink:href="#DejaVuSans-55" transform="translate(779.859375 0)"/>
     <use xlink:href="#DejaVuSans-4c" transform="translate(820.96875 0)"/>
     <use xlink:href="#DejaVuSans-46" transform="translate(848.75 0)"/>
     <use xlink:href="#DejaVuSans-1d" transform="translate(903.734375 0)"/>
     <use xlink:href="#DejaVuSans-3" transform="translate(937.421875 0)"/>
     <use xlink:href="#DejaVuSans-56" transform="translate(969.203125 0)"/>
     <use xlink:href="#DejaVuSans-50" transform="translate(1021.296875 0)"/>
     <use xlink:href="#DejaVuSans-52" transform="translate(1118.703125 0)"/>
     <use xlink:href="#DejaVuSans-52" transform="translate(1179.890625 0)"/>
     <use xlink:href="#DejaVuSans-57" transform="translate(1241.078125 0)"/>
     <use xlink:href="#DejaVuSans-4b" transform="translate(1280.28125 0)"/>
    </g>
   </g>
  </g>
  <g id="axes_2">
   <g id="patch_7">
    <path d="M 314.880469 184.348594 
L 533.003125 184.348594 
L 533.003125 22.318125 
L 314.880469 22.318125 
z
" style="fill: #ffffff"/>
   </g>
   <g id="matplotlib.axis_3">
    <g id="xtick_7">
     <g id="line2d_12">
      <g>
       <use xlink:href="#m4f89449d15" x="324.795135" y="184.348594" style="stroke: #000000; stroke-width: 0.8"/>
      </g>
     </g>
     <g id="text_14">
      <!-- 0.0 -->
      <g transform="translate(316.843572 198.94625) scale(0.1 -0.1)">
       <use xlink:href="#DejaVuSans-13"/>
       <use xlink:href="#DejaVuSans-11" transform="translate(63.625 0)"/>
       <use xlink:href="#DejaVuSans-13" transform="translate(95.40625 0)"/>
      </g>
     </g>
    </g>
    <g id="xtick_8">
     <g id="line2d_13">
      <g>
       <use xlink:href="#m4f89449d15" x="364.4538" y="184.348594" style="stroke: #000000; stroke-width: 0.8"/>
      </g>
     </g>
     <g id="text_15">
      <!-- 0.2 -->
      <g transform="translate(356.502237 198.94625) scale(0.1 -0.1)">
       <use xlink:href="#DejaVuSans-13"/>
       <use xlink:href="#DejaVuSans-11" transform="translate(63.625 0)"/>
       <use xlink:href="#DejaVuSans-15" transform="translate(95.40625 0)"/>
      </g>
     </g>
    </g>
    <g id="xtick_9">
     <g id="line2d_14">
      <g>
       <use xlink:href="#m4f89449d15" x="404.112464" y="184.348594" style="stroke: #000000; stroke-width: 0.8"/>
      </g>
     </g>
     <g id="text_16">
      <!-- 0.4 -->
      <g transform="translate(396.160902 198.94625) scale(0.1 -0.1)">
       <use xlink:href="#DejaVuSans-13"/>
       <use xlink:href="#DejaVuSans-11" transform="translate(63.625 0)"/>
       <use xlink:href="#DejaVuSans-17" transform="translate(95.40625 0)"/>
      </g>
     </g>
    </g>
    <g id="xtick_10">
     <g id="line2d_15">
      <g>
       <use xlink:href="#m4f89449d15" x="443.771129" y="184.348594" style="stroke: #000000; stroke-width: 0.8"/>
      </g>
     </g>
     <g id="text_17">
      <!-- 0.6 -->
      <g transform="translate(435.819567 198.94625) scale(0.1 -0.1)">
       <use xlink:href="#DejaVuSans-13"/>
       <use xlink:href="#DejaVuSans-11" transform="translate(63.625 0)"/>
       <use xlink:href="#DejaVuSans-19" transform="translate(95.40625 0)"/>
      </g>
     </g>
    </g>
    <g id="xtick_11">
     <g id="line2d_16">
      <g>
       <use xlink:href="#m4f89449d15" x="483.429794" y="184.348594" style="stroke: #000000; stroke-width: 0.8"/>
      </g>
     </g>
     <g id="text_18">
      <!-- 0.8 -->
      <g transform="translate(475.478232 198.94625) scale(0.1 -0.1)">
       <use xlink:href="#DejaVuSans-13"/>
       <use xlink:href="#DejaVuSans-11" transform="translate(63.625 0)"/>
       <use xlink:href="#DejaVuSans-1b" transform="translate(95.40625 0)"/>
      </g>
     </g>
    </g>
    <g id="xtick_12">
     <g id="line2d_17">
      <g>
       <use xlink:href="#m4f89449d15" x="523.088459" y="184.348594" style="stroke: #000000; stroke-width: 0.8"/>
      </g>
     </g>
     <g id="text_19">
      <!-- 1.0 -->
      <g transform="translate(515.136896 198.94625) scale(0.1 -0.1)">
       <use xlink:href="#DejaVuSans-14"/>
       <use xlink:href="#DejaVuSans-11" transform="translate(63.625 0)"/>
       <use xlink:href="#DejaVuSans-13" transform="translate(95.40625 0)"/>
      </g>
     </g>
    </g>
    <g id="text_20">
     <!-- model scale (arbitrary units) -->
     <g transform="translate(352.751172 212.947031) scale(0.1 -0.1)">
      <use xlink:href="#DejaVuSans-50"/>
      <use xlink:href="#DejaVuSans-52" transform="translate(97.40625 0)"/>
      <use xlink:href="#DejaVuSans-47" transform="translate(158.59375 0)"/>
      <use xlink:href="#DejaVuSans-48" transform="translate(222.078125 0)"/>
      <use xlink:href="#DejaVuSans-4f" transform="translate(283.609375 0)"/>
      <use xlink:href="#DejaVuSans-3" transform="translate(311.390625 0)"/>
      <use xlink:href="#DejaVuSans-56" transform="translate(343.171875 0)"/>
      <use xlink:href="#DejaVuSans-46" transform="translate(395.265625 0)"/>
      <use xlink:href="#DejaVuSans-44" transform="translate(450.25 0)"/>
      <use xlink:href="#DejaVuSans-4f" transform="translate(511.53125 0)"/>
      <use xlink:href="#DejaVuSans-48" transform="translate(539.3125 0)"/>
      <use xlink:href="#DejaVuSans-3" transform="translate(600.84375 0)"/>
      <use xlink:href="#DejaVuSans-b" transform="translate(632.625 0)"/>
      <use xlink:href="#DejaVuSans-44" transform="translate(671.640625 0)"/>
      <use xlink:href="#DejaVuSans-55" transform="translate(732.921875 0)"/>
      <use xlink:href="#DejaVuSans-45" transform="translate(774.03125 0)"/>
      <use xlink:href="#DejaVuSans-4c" transform="translate(837.515625 0)"/>
      <use xlink:href="#DejaVuSans-57" transform="translate(865.296875 0)"/>
      <use xlink:href="#DejaVuSans-55" transform="translate(904.5 0)"/>
      <use xlink:href="#DejaVuSans-44" transform="translate(945.609375 0)"/>
      <use xlink:href="#DejaVuSans-55" transform="translate(1006.890625 0)"/>
      <use xlink:href="#DejaVuSans-5c" transform="translate(1048 0)"/>
      <use xlink:href="#DejaVuSans-3" transform="translate(1107.1875 0)"/>
      <use xlink:href="#DejaVuSans-58" transform="translate(1138.96875 0)"/>
      <use xlink:href="#DejaVuSans-51" transform="translate(1202.34375 0)"/>
      <use xlink:href="#DejaVuSans-4c" transform="translate(1265.71875 0)"/>
      <use xlink:href="#DejaVuSans-57" transform="translate(1293.5 0)"/>
      <use xlink:href="#DejaVuSans-56" transform="translate(1332.703125 0)"/>
      <use xlink:href="#DejaVuSans-c" transform="translate(1384.796875 0)"/>
     </g>
    </g>
   </g>
   <g id="matplotlib.axis_4">
    <g id="ytick_5">
     <g id="line2d_18">
      <g>
       <use xlink:href="#m4728b00943" x="314.880469" y="176.983572" style="stroke: #000000; stroke-width: 0.8"/>
      </g>
     </g>
     <g id="text_21">
      <!-- 0.0 -->
      <g transform="translate(291.977344 180.782401) scale(0.1 -0.1)">
       <use xlink:href="#DejaVuSans-13"/>
       <use xlink:href="#DejaVuSans-11" transform="translate(63.625 0)"/>
       <use xlink:href="#DejaVuSans-13" transform="translate(95.40625 0)"/>
      </g>
     </g>
    </g>
    <g id="ytick_6">
     <g id="line2d_19">
      <g>
       <use xlink:href="#m4728b00943" x="314.880469" y="146.833738" style="stroke: #000000; stroke-width: 0.8"/>
      </g>
     </g>
     <g id="text_22">
      <!-- 0.2 -->
      <g transform="translate(291.977344 150.632566) scale(0.1 -0.1)">
       <use xlink:href="#DejaVuSans-13"/>
       <use xlink:href="#DejaVuSans-11" transform="translate(63.625 0)"/>
       <use xlink:href="#DejaVuSans-15" transform="translate(95.40625 0)"/>
      </g>
     </g>
    </g>
    <g id="ytick_7">
     <g id="line2d_20">
      <g>
       <use xlink:href="#m4728b00943" x="314.880469" y="116.683904" style="stroke: #000000; stroke-width: 0.8"/>
      </g>
     </g>
     <g id="text_23">
      <!-- 0.4 -->
      <g transform="translate(291.977344 120.482732) scale(0.1 -0.1)">
       <use xlink:href="#DejaVuSans-13"/>
       <use xlink:href="#DejaVuSans-11" transform="translate(63.625 0)"/>
       <use xlink:href="#DejaVuSans-17" transform="translate(95.40625 0)"/>
      </g>
     </g>
    </g>
    <g id="ytick_8">
     <g id="line2d_21">
      <g>
       <use xlink:href="#m4728b00943" x="314.880469" y="86.53407" style="stroke: #000000; stroke-width: 0.8"/>
      </g>
     </g>
     <g id="text_24">
      <!-- 0.6 -->
      <g transform="translate(291.977344 90.332898) scale(0.1 -0.1)">
       <use xlink:href="#DejaVuSans-13"/>
       <use xlink:href="#DejaVuSans-11" transform="translate(63.625 0)"/>
       <use xlink:href="#DejaVuSans-19" transform="translate(95.40625 0)"/>
      </g>
     </g>
    </g>
    <g id="ytick_9">
     <g id="line2d_22">
      <g>
       <use xlink:href="#m4728b00943" x="314.880469" y="56.384236" style="stroke: #000000; stroke-width: 0.8"/>
      </g>
     </g>
     <g id="text_25">
      <!-- 0.8 -->
      <g transform="translate(291.977344 60.183064) scale(0.1 -0.1)">
       <use xlink:href="#DejaVuSans-13"/>
       <use xlink:href="#DejaVuSans-11" transform="translate(63.625 0)"/>
       <use xlink:href="#DejaVuSans-1b" transform="translate(95.40625 0)"/>
      </g>
     </g>
    </g>
    <g id="ytick_10">
     <g id="line2d_23">
      <g>
       <use xlink:href="#m4728b00943" x="314.880469" y="26.234402" style="stroke: #000000; stroke-width: 0.8"/>
      </g>
     </g>
     <g id="text_26">
      <!-- 1.0 -->
      <g transform="translate(291.977344 30.03323) scale(0.1 -0.1)">
       <use xlink:href="#DejaVuSans-14"/>
       <use xlink:href="#DejaVuSans-11" transform="translate(63.625 0)"/>
       <use xlink:href="#DejaVuSans-13" transform="translate(95.40625 0)"/>
      </g>
     </g>
    </g>
    <g id="text_27">
     <!-- exact-match accuracy -->
     <g transform="translate(285.575 158.820078) rotate(-90) scale(0.1 -0.1)">
      <defs>
       <path id="DejaVuSans-5b" d="M 3513 3500 
L 2247 1797 
L 3578 0 
L 2900 0 
L 1881 1375 
L 863 0 
L 184 0 
L 1544 1831 
L 300 3500 
L 978 3500 
L 1906 2253 
L 2834 3500 
L 3513 3500 
z
" transform="scale(0.015625)"/>
      </defs>
      <use xlink:href="#DejaVuSans-48"/>
      <use xlink:href="#DejaVuSans-5b" transform="translate(59.78125 0)"/>
      <use xlink:href="#DejaVuSans-44" transform="translate(118.96875 0)"/>
      <use xlink:href="#DejaVuSans-46" transform="translate(180.25 0)"/>
      <use xlink:href="#DejaVuSans-57" transform="translate(235.234375 0)"/>
      <use xlink:href="#DejaVuSans-10" transform="translate(274.4375 0)"/>
      <use xlink:href="#DejaVuSans-50" transform="translate(310.515625 0)"/>
      <use xlink:href="#DejaVuSans-44" transform="translate(407.921875 0)"/>
      <use xlink:href="#DejaVuSans-57" transform="translate(469.203125 0)"/>
      <use xlink:href="#DejaVuSans-46" transform="translate(508.40625 0)"/>
      <use xlink:href="#DejaVuSans-4b" transform="translate(563.390625 0)"/>
      <use xlink:href="#DejaVuSans-3" transform="translate(626.765625 0)"/>
      <use xlink:href="#DejaVuSans-44" transform="translate(658.546875 0)"/>
      <use xlink:href="#DejaVuSans-46" transform="translate(719.828125 0)"/>
      <use xlink:href="#DejaVuSans-46" transform="translate(774.8125 0)"/>
      <use xlink:href="#DejaVuSans-58" transform="translate(829.796875 0)"/>
      <use xlink:href="#DejaVuSans-55" transform="translate(893.171875 0)"/>
      <use xlink:href="#DejaVuSans-44" transform="translate(934.28125 0)"/>
      <use xlink:href="#DejaVuSans-46" transform="translate(995.5625 0)"/>
      <use xlink:href="#DejaVuSans-5c" transform="translate(1050.546875 0)"/>
     </g>
    </g>
   </g>
   <g id="line2d_24">
    <path d="M 324.795135 176.983572 
L 426.432919 176.892572 
L 430.418714 176.650946 
L 433.408061 176.203323 
L 435.400959 175.67915 
L 437.393857 174.891806 
L 439.386754 173.759935 
L 441.379652 172.199301 
L 443.37255 170.130728 
L 445.365447 167.488664 
L 447.358345 164.228959 
L 449.351243 160.334555 
L 451.344141 155.818234 
L 453.337038 150.722124 
L 455.329936 145.114284 
L 458.319283 135.940187 
L 462.305078 122.834723 
L 469.28022 99.808618 
L 472.269567 90.630428 
L 475.258913 82.131453 
L 478.24826 74.404929 
L 481.237607 67.488488 
L 483.230504 63.326419 
L 485.223402 59.513275 
L 487.2163 56.035142 
L 489.209197 52.874939 
L 491.202095 50.013513 
L 493.194993 47.430536 
L 495.187891 45.105221 
L 497.180788 43.016879 
L 500.170135 40.284767 
L 503.159482 37.976183 
L 506.148828 36.032115 
L 509.138175 34.399639 
L 512.127521 33.032032 
L 515.116868 31.888552 
L 519.102663 30.652479 
L 523.088459 29.683146 
L 523.088459 29.683146 
" clip-path="url(#pbf33242550)" style="fill: none; stroke: #b13f3f; stroke-width: 1.5; stroke-linecap: square"/>
   </g>
   <g id="patch_8">
    <path d="M 314.880469 184.348594 
L 314.880469 22.318125 
" style="fill: none; stroke: #000000; stroke-width: 0.8; stroke-linejoin: miter; stroke-linecap: square"/>
   </g>
   <g id="patch_9">
    <path d="M 533.003125 184.348594 
L 533.003125 22.318125 
" style="fill: none; stroke: #000000; stroke-width: 0.8; stroke-linejoin: miter; stroke-linecap: square"/>
   </g>
   <g id="patch_10">
    <path d="M 314.880469 184.348594 
L 533.003125 184.348594 
" style="fill: none; stroke: #000000; stroke-width: 0.8; stroke-linejoin: miter; stroke-linecap: square"/>
   </g>
   <g id="patch_11">
    <path d="M 314.880469 22.318125 
L 533.003125 22.318125 
" style="fill: none; stroke: #000000; stroke-width: 0.8; stroke-linejoin: miter; stroke-linecap: square"/>
   </g>
   <g id="text_28">
    <!-- thresholded metric: 'emergent' -->
    <g transform="translate(330.485234 16.318125) scale(0.12 -0.12)">
     <defs>
      <path id="DejaVuSans-a" d="M 1147 4666 
L 1147 2931 
L 616 2931 
L 616 4666 
L 1147 4666 
z
" transform="scale(0.015625)"/>
     </defs>
     <use xlink:href="#DejaVuSans-57"/>
     <use xlink:href="#DejaVuSans-4b" transform="translate(39.203125 0)"/>
     <use xlink:href="#DejaVuSans-55" transform="translate(102.578125 0)"/>
     <use xlink:href="#DejaVuSans-48" transform="translate(141.484375 0)"/>
     <use xlink:href="#DejaVuSans-56" transform="translate(203.015625 0)"/>
     <use xlink:href="#DejaVuSans-4b" transform="translate(255.109375 0)"/>
     <use xlink:href="#DejaVuSans-52" transform="translate(318.484375 0)"/>
     <use xlink:href="#DejaVuSans-4f" transform="translate(379.671875 0)"/>
     <use xlink:href="#DejaVuSans-47" transform="translate(407.453125 0)"/>
     <use xlink:href="#DejaVuSans-48" transform="translate(470.9375 0)"/>
     <use xlink:href="#DejaVuSans-47" transform="translate(532.46875 0)"/>
     <use xlink:href="#DejaVuSans-3" transform="translate(595.953125 0)"/>
     <use xlink:href="#DejaVuSans-50" transform="translate(627.734375 0)"/>
     <use xlink:href="#DejaVuSans-48" transform="translate(725.140625 0)"/>
     <use xlink:href="#DejaVuSans-57" transform="translate(786.671875 0)"/>
     <use xlink:href="#DejaVuSans-55" transform="translate(825.875 0)"/>
     <use xlink:href="#DejaVuSans-4c" transform="translate(866.984375 0)"/>
     <use xlink:href="#DejaVuSans-46" transform="translate(894.765625 0)"/>
     <use xlink:href="#DejaVuSans-1d" transform="translate(949.75 0)"/>
     <use xlink:href="#DejaVuSans-3" transform="translate(983.4375 0)"/>
     <use xlink:href="#DejaVuSans-a" transform="translate(1015.21875 0)"/>
     <use xlink:href="#DejaVuSans-48" transform="translate(1042.703125 0)"/>
     <use xlink:href="#DejaVuSans-50" transform="translate(1104.234375 0)"/>
     <use xlink:href="#DejaVuSans-48" transform="translate(1201.640625 0)"/>
     <use xlink:href="#DejaVuSans-55" transform="translate(1263.171875 0)"/>
     <use xlink:href="#DejaVuSans-4a" transform="translate(1302.53125 0)"/>
     <use xlink:href="#DejaVuSans-48" transform="translate(1366.015625 0)"/>
     <use xlink:href="#DejaVuSans-51" transform="translate(1427.546875 0)"/>
     <use xlink:href="#DejaVuSans-57" transform="translate(1490.921875 0)"/>
     <use xlink:href="#DejaVuSans-a" transform="translate(1530.125 0)"/>
    </g>
   </g>
  </g>
 </g>
 <defs>
  <clipPath id="p122f595bd3">
   <rect x="49.305469" y="22.318125" width="218.122656" height="162.030469"/>
  </clipPath>
  <clipPath id="pbf33242550">
   <rect x="314.880469" y="22.318125" width="218.122656" height="162.030469"/>
  </clipPath>
 </defs>
</svg>
