<?xml version="1.0" encoding="utf-8" standalone="no"?>
<!DOCTYPE svg PUBLIC "-//W3C//DTD SVG 1.1//EN"
  "http://www.w3.org/Graphics/SVG/1.1/DTD/svg11.dtd">
<svg xmlns:xlink="http://www.w3.org/1999/xlink" width="469.475pt" height="251.348437pt" viewBox="0 0 469.475 251.348437" xmlns="http://www.w3.org/2000/svg" version="1.1">
 <metadata>
  <rdf:RDF xmlns:dc="http://purl.org/dc/elements/1.1/" xmlns:cc="http://creativecommons.org/ns#" xmlns:rdf="http://www.w3.org/1999/02/22-rdf-syntax-ns#">
   <cc:Work>
    <dc:type rdf:resource="http://purl.org/dc/dcmitype/StillImage"/>
    <dc:date>2026-07-20T08:36:58.103312</dc:date>
    <dc:format>image/svg+xml</dc:format>
    <dc:creator>
     <cc:Agent>
      <dc:title>Matplotlib v3.11.1, https://matplotlib.org/</dc:title>
     </cc:Agent>
    </dc:creator>
   </cc:Work>
  </rdf:RDF>
 </metadata>
 <defs>
  <style type="text/css">*{stroke-linejoin: round; stroke-linecap: butt}</style>
 </defs>
 <g id="figure_1">
  <g id="patch_1">
   <path d="M 0 251.348437 
L 469.475 251.348437 
L 469.475 0 
L 0 0 
z
" style="fill: #ffffff"/>
  </g>
  <g id="axes_1">
   <g id="patch_2">
    <path d="M 104.925 7.2 
L 194.2625 7.2 
L 194.2625 62.186914 
L 104.925 62.186914 
z
" clip-path="url(#pc57e4f9736)" style="fill: #b13f3f; opacity: 0.85; stroke: #b13f3f; stroke-linejoin: miter"/>
   </g>
   <g id="patch_3">
    <path d="M 194.2625 7.2 
L 283.6 7.2 
L 283.6 62.186914 
L 194.2625 62.186914 
z
" clip-path="url(#pc57e4f9736)" style="fill: #4c8f5b; opacity: 0.85; stroke: #4c8f5b; stroke-linejoin: miter"/>
   </g>
   <g id="patch_4">
    <path d="M 283.6 7.2 
L 372.9375 7.2 
L 372.9375 62.186914 
L 283.6 62.186914 
z
" clip-path="url(#pc57e4f9736)" style="fill: #2f6f8f; opacity: 0.85; stroke: #2f6f8f; stroke-linejoin: miter"/>
   </g>
   <g id="patch_5">
    <path d="M 372.9375 7.2 
L 462.275 7.2 
L 462.275 62.186914 
L 372.9375 62.186914 
z
" clip-path="url(#pc57e4f9736)" style="fill: #2f6f8f; opacity: 0.85; stroke: #2f6f8f; stroke-linejoin: miter"/>
   </g>
   <g id="patch_6">
    <path d="M 104.925 62.186914 
L 194.2625 62.186914 
L 194.2625 117.173828 
L 104.925 117.173828 
z
" clip-path="url(#pc57e4f9736)" style="fill: #b13f3f; opacity: 0.85; stroke: #b13f3f; stroke-linejoin: miter"/>
   </g>
   <g id="patch_7">
    <path d="M 194.2625 62.186914 
L 283.6 62.186914 
L 283.6 117.173828 
L 194.2625 117.173828 
z
" clip-path="url(#pc57e4f9736)" style="fill: #b13f3f; opacity: 0.85; stroke: #b13f3f; stroke-linejoin: miter"/>
   </g>
   <g id="patch_8">
    <path d="M 283.6 62.186914 
L 372.9375 62.186914 
L 372.9375 117.173828 
L 283.6 117.173828 
z
" clip-path="url(#pc57e4f9736)" style="fill: #2f6f8f; opacity: 0.85; stroke: #2f6f8f; stroke-linejoin: miter"/>
   </g>
   <g id="patch_9">
    <path d="M 372.9375 62.186914 
L 462.275 62.186914 
L 462.275 117.173828 
L 372.9375 117.173828 
z
" clip-path="url(#pc57e4f9736)" style="fill: #3f7f5f; opacity: 0.85; stroke: #3f7f5f; stroke-linejoin: miter"/>
   </g>
   <g id="patch_10">
    <path d="M 104.925 117.173828 
L 194.2625 117.173828 
L 194.2625 172.160742 
L 104.925 172.160742 
z
" clip-path="url(#pc57e4f9736)" style="fill: #b13f3f; opacity: 0.85; stroke: #b13f3f; stroke-linejoin: miter"/>
   </g>
   <g id="patch_11">
    <path d="M 194.2625 117.173828 
L 283.6 117.173828 
L 283.6 172.160742 
L 194.2625 172.160742 
z
" clip-path="url(#pc57e4f9736)" style="fill: #b13f3f; opacity: 0.85; stroke: #b13f3f; stroke-linejoin: miter"/>
   </g>
   <g id="patch_12">
    <path d="M 283.6 117.173828 
L 372.9375 117.173828 
L 372.9375 172.160742 
L 283.6 172.160742 
z
" clip-path="url(#pc57e4f9736)" style="fill: #2f6f8f; opacity: 0.85; stroke: #2f6f8f; stroke-linejoin: miter"/>
   </g>
   <g id="patch_13">
    <path d="M 372.9375 117.173828 
L 462.275 117.173828 
L 462.275 172.160742 
L 372.9375 172.160742 
z
" clip-path="url(#pc57e4f9736)" style="fill: #3f7f5f; opacity: 0.85; stroke: #3f7f5f; stroke-linejoin: miter"/>
   </g>
   <g id="patch_14">
    <path d="M 104.925 172.160742 
L 194.2625 172.160742 
L 194.2625 227.147656 
L 104.925 227.147656 
z
" clip-path="url(#pc57e4f9736)" style="fill: #b13f3f; opacity: 0.85; stroke: #b13f3f; stroke-linejoin: miter"/>
   </g>
   <g id="patch_15">
    <path d="M 194.2625 172.160742 
L 283.6 172.160742 
L 283.6 227.147656 
L 194.2625 227.147656 
z
" clip-path="url(#pc57e4f9736)" style="fill: #b13f3f; opacity: 0.85; stroke: #b13f3f; stroke-linejoin: miter"/>
   </g>
   <g id="patch_16">
    <path d="M 283.6 172.160742 
L 372.9375 172.160742 
L 372.9375 227.147656 
L 283.6 227.147656 
z
" clip-path="url(#pc57e4f9736)" style="fill: #b13f3f; opacity: 0.85; stroke: #b13f3f; stroke-linejoin: miter"/>
   </g>
   <g id="patch_17">
    <path d="M 372.9375 172.160742 
L 462.275 172.160742 
L 462.275 227.147656 
L 372.9375 227.147656 
z
" clip-path="url(#pc57e4f9736)" style="fill: #b13f3f; opacity: 0.85; stroke: #b13f3f; stroke-linejoin: miter"/>
   </g>
   <g id="matplotlib.axis_1">
    <g id="xtick_1">
     <g id="line2d_1">
      <defs>
       <path id="mfe310aff2b" d="M 0 0 
L 0 3.5 
" style="stroke: #000000; stroke-width: 0.8"/>
      </defs>
      <g>
       <use xlink:href="#mfe310aff2b" x="149.59375" y="227.147656" style="stroke: #000000; stroke-width: 0.8"/>
      </g>
     </g>
     <g id="text_1">
      <!-- naive -->
      <g transform="translate(135.935937 241.746094) scale(0.1 -0.1)">
       <defs>
        <path id="DejaVuSans-51" d="M 3513 2113 
L 3513 0 
L 2938 0 
L 2938 2094 
Q 2938 2591 2744 2837 
Q 2550 3084 2163 3084 
Q 1697 3084 1428 2787 
Q 1159 2491 1159 1978 
L 1159 0 
L 581 0 
L 581 3500 
L 1159 3500 
L 1159 2956 
Q 1366 3272 1645 3428 
Q 1925 3584 2291 3584 
Q 2894 3584 3203 3211 
Q 3513 2838 3513 2113 
z
" transform="scale(0.015625)"/>
        <path id="DejaVuSans-44" d="M 2194 1759 
Q 1497 1759 1228 1600 
Q 959 1441 959 1056 
Q 959 750 1161 570 
Q 1363 391 1709 391 
Q 2188 391 2477 730 
Q 2766 1069 2766 1631 
L 2766 1759 
L 2194 1759 
z
M 3341 1997 
L 3341 0 
L 2766 0 
L 2766 531 
Q 2569 213 2275 61 
Q 1981 -91 1556 -91 
Q 1019 -91 701 211 
Q 384 513 384 1019 
Q 384 1609 779 1909 
Q 1175 2209 1959 2209 
L 2766 2209 
L 2766 2266 
Q 2766 2663 2505 2880 
Q 2244 3097 1772 3097 
Q 1472 3097 1187 3025 
Q 903 2953 641 2809 
L 641 3341 
Q 956 3463 1253 3523 
Q 1550 3584 1831 3584 
Q 2591 3584 2966 3190 
Q 3341 2797 3341 1997 
z
" transform="scale(0.015625)"/>
        <path id="DejaVuSans-4c" d="M 603 3500 
L 1178 3500 
L 1178 0 
L 603 0 
L 603 3500 
z
M 603 4863 
L 1178 4863 
L 1178 4134 
L 603 4134 
L 603 4863 
z
" transform="scale(0.015625)"/>
        <path id="DejaVuSans-59" d="M 191 3500 
L 800 3500 
L 1894 563 
L 2988 3500 
L 3597 3500 
L 2284 0 
L 1503 0 
L 191 3500 
z
" transform="scale(0.015625)"/>
        <path id="DejaVuSans-48" d="M 3597 1894 
L 3597 1613 
L 953 1613 
Q 991 1019 1311 708 
Q 1631 397 2203 397 
Q 2534 397 2845 478 
Q 3156 559 3463 722 
L 3463 178 
Q 3153 47 2828 -22 
Q 2503 -91 2169 -91 
Q 1331 -91 842 396 
Q 353 884 353 1716 
Q 353 2575 817 3079 
Q 1281 3584 2069 3584 
Q 2775 3584 3186 3129 
Q 3597 2675 3597 1894 
z
M 3022 2063 
Q 3016 2534 2758 2815 
Q 2500 3097 2075 3097 
Q 1594 3097 1305 2825 
Q 1016 2553 972 2059 
L 3022 2063 
z
" transform="scale(0.015625)"/>
       </defs>
       <use xlink:href="#DejaVuSans-51"/>
       <use xlink:href="#DejaVuSans-44" transform="translate(63.375 0)"/>
       <use xlink:href="#DejaVuSans-4c" transform="translate(124.65625 0)"/>
       <use xlink:href="#DejaVuSans-59" transform="translate(152.4375 0)"/>
       <use xlink:href="#DejaVuSans-48" transform="translate(211.625 0)"/>
      </g>
     </g>
    </g>
    <g id="xtick_2">
     <g id="line2d_2">
      <g>
       <use xlink:href="#mfe310aff2b" x="238.93125" y="227.147656" style="stroke: #000000; stroke-width: 0.8"/>
      </g>
     </g>
     <g id="text_2">
      <!-- detector -->
      <g transform="translate(217.819531 241.746094) scale(0.1 -0.1)">
       <defs>
        <path id="DejaVuSans-47" d="M 2906 2969 
L 2906 4863 
L 3481 4863 
L 3481 0 
L 2906 0 
L 2906 525 
Q 2725 213 2448 61 
Q 2172 -91 1784 -91 
Q 1150 -91 751 415 
Q 353 922 353 1747 
Q 353 2572 751 3078 
Q 1150 3584 1784 3584 
Q 2172 3584 2448 3432 
Q 2725 3281 2906 2969 
z
M 947 1747 
Q 947 1113 1208 752 
Q 1469 391 1925 391 
Q 2381 391 2643 752 
Q 2906 1113 2906 1747 
Q 2906 2381 2643 2742 
Q 2381 3103 1925 3103 
Q 1469 3103 1208 2742 
Q 947 2381 947 1747 
z
" transform="scale(0.015625)"/>
        <path id="DejaVuSans-57" d="M 1172 4494 
L 1172 3500 
L 2356 3500 
L 2356 3053 
L 1172 3053 
L 1172 1153 
Q 1172 725 1289 603 
Q 1406 481 1766 481 
L 2356 481 
L 2356 0 
L 1766 0 
Q 1100 0 847 248 
Q 594 497 594 1153 
L 594 3053 
L 172 3053 
L 172 3500 
L 594 3500 
L 594 4494 
L 1172 4494 
z
" transform="scale(0.015625)"/>
        <path id="DejaVuSans-46" d="M 3122 3366 
L 3122 2828 
Q 2878 2963 2633 3030 
Q 2388 3097 2138 3097 
Q 1578 3097 1268 2742 
Q 959 2388 959 1747 
Q 959 1106 1268 751 
Q 1578 397 2138 397 
Q 2388 397 2633 464 
Q 2878 531 3122 666 
L 3122 134 
Q 2881 22 2623 -34 
Q 2366 -91 2075 -91 
Q 1284 -91 818 406 
Q 353 903 353 1747 
Q 353 2603 823 3093 
Q 1294 3584 2113 3584 
Q 2378 3584 2631 3529 
Q 2884 3475 3122 3366 
z
" transform="scale(0.015625)"/>
        <path id="DejaVuSans-52" d="M 1959 3097 
Q 1497 3097 1228 2736 
Q 959 2375 959 1747 
Q 959 1119 1226 758 
Q 1494 397 1959 397 
Q 2419 397 2687 759 
Q 2956 1122 2956 1747 
Q 2956 2369 2687 2733 
Q 2419 3097 1959 3097 
z
M 1959 3584 
Q 2709 3584 3137 3096 
Q 3566 2609 3566 1747 
Q 3566 888 3137 398 
Q 2709 -91 1959 -91 
Q 1206 -91 779 398 
Q 353 888 353 1747 
Q 353 2609 779 3096 
Q 1206 3584 1959 3584 
z
" transform="scale(0.015625)"/>
        <path id="DejaVuSans-55" d="M 2631 2963 
Q 2534 3019 2420 3045 
Q 2306 3072 2169 3072 
Q 1681 3072 1420 2755 
Q 1159 2438 1159 1844 
L 1159 0 
L 581 0 
L 581 3500 
L 1159 3500 
L 1159 2956 
Q 1341 3275 1631 3429 
Q 1922 3584 2338 3584 
Q 2397 3584 2469 3576 
Q 2541 3569 2628 3553 
L 2631 2963 
z
" transform="scale(0.015625)"/>
       </defs>
       <use xlink:href="#DejaVuSans-47"/>
       <use xlink:href="#DejaVuSans-48" transform="translate(63.484375 0)"/>
       <use xlink:href="#DejaVuSans-57" transform="translate(125.015625 0)"/>
       <use xlink:href="#DejaVuSans-48" transform="translate(164.21875 0)"/>
       <use xlink:href="#DejaVuSans-46" transform="translate(225.75 0)"/>
       <use xlink:href="#DejaVuSans-57" transform="translate(280.734375 0)"/>
       <use xlink:href="#DejaVuSans-52" transform="translate(319.9375 0)"/>
       <use xlink:href="#DejaVuSans-55" transform="translate(381.125 0)"/>
      </g>
     </g>
    </g>
    <g id="xtick_3">
     <g id="line2d_3">
      <g>
       <use xlink:href="#mfe310aff2b" x="328.26875" y="227.147656" style="stroke: #000000; stroke-width: 0.8"/>
      </g>
     </g>
     <g id="text_3">
      <!-- gate -->
      <g transform="translate(316.99375 241.745312) scale(0.1 -0.1)">
       <defs>
        <path id="DejaVuSans-4a" d="M 2906 1791 
Q 2906 2416 2648 2759 
Q 2391 3103 1925 3103 
Q 1463 3103 1205 2759 
Q 947 2416 947 1791 
Q 947 1169 1205 825 
Q 1463 481 1925 481 
Q 2391 481 2648 825 
Q 2906 1169 2906 1791 
z
M 3481 434 
Q 3481 -459 3084 -895 
Q 2688 -1331 1869 -1331 
Q 1566 -1331 1297 -1286 
Q 1028 -1241 775 -1147 
L 775 -588 
Q 1028 -725 1275 -790 
Q 1522 -856 1778 -856 
Q 2344 -856 2625 -561 
Q 2906 -266 2906 331 
L 2906 616 
Q 2728 306 2450 153 
Q 2172 0 1784 0 
Q 1141 0 747 490 
Q 353 981 353 1791 
Q 353 2603 747 3093 
Q 1141 3584 1784 3584 
Q 2172 3584 2450 3431 
Q 2728 3278 2906 2969 
L 2906 3500 
L 3481 3500 
L 3481 434 
z
" transform="scale(0.015625)"/>
       </defs>
       <use xlink:href="#DejaVuSans-4a"/>
       <use xlink:href="#DejaVuSans-44" transform="translate(63.484375 0)"/>
       <use xlink:href="#DejaVuSans-57" transform="translate(124.765625 0)"/>
       <use xlink:href="#DejaVuSans-48" transform="translate(163.96875 0)"/>
      </g>
     </g>
    </g>
    <g id="xtick_4">
     <g id="line2d_4">
      <g>
       <use xlink:href="#mfe310aff2b" x="417.60625" y="227.147656" style="stroke: #000000; stroke-width: 0.8"/>
      </g>
     </g>
     <g id="text_4">
      <!-- full -->
      <g transform="translate(409.899219 241.746094) scale(0.1 -0.1)">
       <defs>
        <path id="DejaVuSans-49" d="M 2375 4863 
L 2375 4384 
L 1825 4384 
Q 1516 4384 1395 4259 
Q 1275 4134 1275 3809 
L 1275 3500 
L 2222 3500 
L 2222 3053 
L 1275 3053 
L 1275 0 
L 697 0 
L 697 3053 
L 147 3053 
L 147 3500 
L 697 3500 
L 697 3744 
Q 697 4328 969 4595 
Q 1241 4863 1831 4863 
L 2375 4863 
z
" transform="scale(0.015625)"/>
        <path id="DejaVuSans-58" d="M 544 1381 
L 544 3500 
L 1119 3500 
L 1119 1403 
Q 1119 906 1312 657 
Q 1506 409 1894 409 
Q 2359 409 2629 706 
Q 2900 1003 2900 1516 
L 2900 3500 
L 3475 3500 
L 3475 0 
L 2900 0 
L 2900 538 
Q 2691 219 2414 64 
Q 2138 -91 1772 -91 
Q 1169 -91 856 284 
Q 544 659 544 1381 
z
M 1991 3584 
L 1991 3584 
z
" transform="scale(0.015625)"/>
        <path id="DejaVuSans-4f" d="M 603 4863 
L 1178 4863 
L 1178 0 
L 603 0 
L 603 4863 
z
" transform="scale(0.015625)"/>
       </defs>
       <use xlink:href="#DejaVuSans-49"/>
       <use xlink:href="#DejaVuSans-58" transform="translate(35.203125 0)"/>
       <use xlink:href="#DejaVuSans-4f" transform="translate(98.578125 0)"/>
       <use xlink:href="#DejaVuSans-4f" transform="translate(126.359375 0)"/>
      </g>
     </g>
    </g>
   </g>
   <g id="matplotlib.axis_2">
    <g id="ytick_1">
     <g id="line2d_5">
      <defs>
       <path id="md239be7bb8" d="M 0 0 
L -3.5 0 
" style="stroke: #000000; stroke-width: 0.8"/>
      </defs>
      <g>
       <use xlink:href="#md239be7bb8" x="104.925" y="34.693457" style="stroke: #000000; stroke-width: 0.8"/>
      </g>
     </g>
     <g id="text_5">
      <!-- direct-transfer -->
      <g transform="translate(26.2375 38.492676) scale(0.1 -0.1)">
       <defs>
        <path id="DejaVuSans-10" d="M 313 2009 
L 1997 2009 
L 1997 1497 
L 313 1497 
L 313 2009 
z
" transform="scale(0.015625)"/>
        <path id="DejaVuSans-56" d="M 2834 3397 
L 2834 2853 
Q 2591 2978 2328 3040 
Q 2066 3103 1784 3103 
Q 1356 3103 1142 2972 
Q 928 2841 928 2578 
Q 928 2378 1081 2264 
Q 1234 2150 1697 2047 
L 1894 2003 
Q 2506 1872 2764 1633 
Q 3022 1394 3022 966 
Q 3022 478 2636 193 
Q 2250 -91 1575 -91 
Q 1294 -91 989 -36 
Q 684 19 347 128 
L 347 722 
Q 666 556 975 473 
Q 1284 391 1588 391 
Q 1994 391 2212 530 
Q 2431 669 2431 922 
Q 2431 1156 2273 1281 
Q 2116 1406 1581 1522 
L 1381 1569 
Q 847 1681 609 1914 
Q 372 2147 372 2553 
Q 372 3047 722 3315 
Q 1072 3584 1716 3584 
Q 2034 3584 2315 3537 
Q 2597 3491 2834 3397 
z
" transform="scale(0.015625)"/>
       </defs>
       <use xlink:href="#DejaVuSans-47"/>
       <use xlink:href="#DejaVuSans-4c" transform="translate(63.484375 0)"/>
       <use xlink:href="#DejaVuSans-55" transform="translate(91.265625 0)"/>
       <use xlink:href="#DejaVuSans-48" transform="translate(130.171875 0)"/>
       <use xlink:href="#DejaVuSans-46" transform="translate(191.703125 0)"/>
       <use xlink:href="#DejaVuSans-57" transform="translate(246.6875 0)"/>
       <use xlink:href="#DejaVuSans-10" transform="translate(285.890625 0)"/>
       <use xlink:href="#DejaVuSans-57" transform="translate(321.96875 0)"/>
       <use xlink:href="#DejaVuSans-55" transform="translate(361.171875 0)"/>
       <use xlink:href="#DejaVuSans-44" transform="translate(402.28125 0)"/>
       <use xlink:href="#DejaVuSans-51" transform="translate(463.5625 0)"/>
       <use xlink:href="#DejaVuSans-56" transform="translate(526.9375 0)"/>
       <use xlink:href="#DejaVuSans-49" transform="translate(579.03125 0)"/>
       <use xlink:href="#DejaVuSans-48" transform="translate(614.234375 0)"/>
       <use xlink:href="#DejaVuSans-55" transform="translate(675.765625 0)"/>
      </g>
     </g>
    </g>
    <g id="ytick_2">
     <g id="line2d_6">
      <g>
       <use xlink:href="#md239be7bb8" x="104.925" y="89.680371" style="stroke: #000000; stroke-width: 0.8"/>
      </g>
     </g>
     <g id="text_6">
      <!-- indirect-transfer -->
      <g transform="translate(17.121875 93.47959) scale(0.1 -0.1)">
       <use xlink:href="#DejaVuSans-4c"/>
       <use xlink:href="#DejaVuSans-51" transform="translate(27.78125 0)"/>
       <use xlink:href="#DejaVuSans-47" transform="translate(91.15625 0)"/>
       <use xlink:href="#DejaVuSans-4c" transform="translate(154.640625 0)"/>
       <use xlink:href="#DejaVuSans-55" transform="translate(182.421875 0)"/>
       <use xlink:href="#DejaVuSans-48" transform="translate(221.328125 0)"/>
       <use xlink:href="#DejaVuSans-46" transform="translate(282.859375 0)"/>
       <use xlink:href="#DejaVuSans-57" transform="translate(337.84375 0)"/>
       <use xlink:href="#DejaVuSans-10" transform="translate(377.046875 0)"/>
       <use xlink:href="#DejaVuSans-57" transform="translate(413.125 0)"/>
       <use xlink:href="#DejaVuSans-55" transform="translate(452.328125 0)"/>
       <use xlink:href="#DejaVuSans-44" transform="translate(493.4375 0)"/>
       <use xlink:href="#DejaVuSans-51" transform="translate(554.71875 0)"/>
       <use xlink:href="#DejaVuSans-56" transform="translate(618.09375 0)"/>
       <use xlink:href="#DejaVuSans-49" transform="translate(670.1875 0)"/>
       <use xlink:href="#DejaVuSans-48" transform="translate(705.390625 0)"/>
       <use xlink:href="#DejaVuSans-55" transform="translate(766.921875 0)"/>
      </g>
     </g>
    </g>
    <g id="ytick_3">
     <g id="line2d_7">
      <g>
       <use xlink:href="#md239be7bb8" x="104.925" y="144.667285" style="stroke: #000000; stroke-width: 0.8"/>
      </g>
     </g>
     <g id="text_7">
      <!-- indirect-exfil -->
      <g transform="translate(35.639063 148.466504) scale(0.1 -0.1)">
       <defs>
        <path id="DejaVuSans-5b" d="M 3513 3500 
L 2247 1797 
L 3578 0 
L 2900 0 
L 1881 1375 
L 863 0 
L 184 0 
L 1544 1831 
L 300 3500 
L 978 3500 
L 1906 2253 
L 2834 3500 
L 3513 3500 
z
" transform="scale(0.015625)"/>
        <path id="DejaVuSans-13af" d="M 3431 3500 
L 3431 0 
L 2853 0 
L 2853 3053 
L 1275 3053 
L 1275 0 
L 697 0 
L 697 3053 
L 147 3053 
L 147 3500 
L 697 3500 
L 697 3744 
Q 697 4316 967 4589 
Q 1238 4863 1797 4863 
L 2375 4863 
L 2375 4384 
L 1825 4384 
Q 1516 4384 1395 4259 
Q 1275 4134 1275 3809 
L 1275 3500 
L 3431 3500 
z
M 2853 4856 
L 3431 4856 
L 3431 4128 
L 2853 4128 
L 2853 4856 
z
" transform="scale(0.015625)"/>
       </defs>
       <use xlink:href="#DejaVuSans-4c"/>
       <use xlink:href="#DejaVuSans-51" transform="translate(27.78125 0)"/>
       <use xlink:href="#DejaVuSans-47" transform="translate(91.15625 0)"/>
       <use xlink:href="#DejaVuSans-4c" transform="translate(154.640625 0)"/>
       <use xlink:href="#DejaVuSans-55" transform="translate(182.421875 0)"/>
       <use xlink:href="#DejaVuSans-48" transform="translate(221.328125 0)"/>
       <use xlink:href="#DejaVuSans-46" transform="translate(282.859375 0)"/>
       <use xlink:href="#DejaVuSans-57" transform="translate(337.84375 0)"/>
       <use xlink:href="#DejaVuSans-10" transform="translate(377.046875 0)"/>
       <use xlink:href="#DejaVuSans-48" transform="translate(413.125 0)"/>
       <use xlink:href="#DejaVuSans-5b" transform="translate(472.90625 0)"/>
       <use xlink:href="#DejaVuSans-13af" transform="translate(532.09375 0)"/>
       <use xlink:href="#DejaVuSans-4f" transform="translate(595.078125 0)"/>
      </g>
     </g>
    </g>
    <g id="ytick_4">
     <g id="line2d_8">
      <g>
       <use xlink:href="#md239be7bb8" x="104.925" y="199.654199" style="stroke: #000000; stroke-width: 0.8"/>
      </g>
     </g>
     <g id="text_8">
      <!-- knowledge-poison -->
      <g transform="translate(7.2 203.453418) scale(0.1 -0.1)">
       <defs>
        <path id="DejaVuSans-4e" d="M 581 4863 
L 1159 4863 
L 1159 1991 
L 2875 3500 
L 3609 3500 
L 1753 1863 
L 3688 0 
L 2938 0 
L 1159 1709 
L 1159 0 
L 581 0 
L 581 4863 
z
" transform="scale(0.015625)"/>
        <path id="DejaVuSans-5a" d="M 269 3500 
L 844 3500 
L 1563 769 
L 2278 3500 
L 2956 3500 
L 3675 769 
L 4391 3500 
L 4966 3500 
L 4050 0 
L 3372 0 
L 2619 2869 
L 1863 0 
L 1184 0 
L 269 3500 
z
" transform="scale(0.015625)"/>
        <path id="DejaVuSans-53" d="M 1159 525 
L 1159 -1331 
L 581 -1331 
L 581 3500 
L 1159 3500 
L 1159 2969 
Q 1341 3281 1617 3432 
Q 1894 3584 2278 3584 
Q 2916 3584 3314 3078 
Q 3713 2572 3713 1747 
Q 3713 922 3314 415 
Q 2916 -91 2278 -91 
Q 1894 -91 1617 61 
Q 1341 213 1159 525 
z
M 3116 1747 
Q 3116 2381 2855 2742 
Q 2594 3103 2138 3103 
Q 1681 3103 1420 2742 
Q 1159 2381 1159 1747 
Q 1159 1113 1420 752 
Q 1681 391 2138 391 
Q 2594 391 2855 752 
Q 3116 1113 3116 1747 
z
" transform="scale(0.015625)"/>
       </defs>
       <use xlink:href="#DejaVuSans-4e"/>
       <use xlink:href="#DejaVuSans-51" transform="translate(57.90625 0)"/>
       <use xlink:href="#DejaVuSans-52" transform="translate(121.28125 0)"/>
       <use xlink:href="#DejaVuSans-5a" transform="translate(182.46875 0)"/>
       <use xlink:href="#DejaVuSans-4f" transform="translate(264.25 0)"/>
       <use xlink:href="#DejaVuSans-48" transform="translate(292.03125 0)"/>
       <use xlink:href="#DejaVuSans-47" transform="translate(353.5625 0)"/>
       <use xlink:href="#DejaVuSans-4a" transform="translate(417.046875 0)"/>
       <use xlink:href="#DejaVuSans-48" transform="translate(480.53125 0)"/>
       <use xlink:href="#DejaVuSans-10" transform="translate(542.0625 0)"/>
       <use xlink:href="#DejaVuSans-53" transform="translate(578.140625 0)"/>
       <use xlink:href="#DejaVuSans-52" transform="translate(641.625 0)"/>
       <use xlink:href="#DejaVuSans-4c" transform="translate(702.8125 0)"/>
       <use xlink:href="#DejaVuSans-56" transform="translate(730.59375 0)"/>
       <use xlink:href="#DejaVuSans-52" transform="translate(782.6875 0)"/>
       <use xlink:href="#DejaVuSans-51" transform="translate(843.875 0)"/>
      </g>
     </g>
    </g>
   </g>
   <g id="text_9">
    <!-- achieved -->
    <g style="fill: #ffffff" transform="translate(132.600391 36.641992) scale(0.075 -0.075)">
     <defs>
      <path id="DejaVuSans-4b" d="M 3513 2113 
L 3513 0 
L 2938 0 
L 2938 2094 
Q 2938 2591 2744 2837 
Q 2550 3084 2163 3084 
Q 1697 3084 1428 2787 
Q 1159 2491 1159 1978 
L 1159 0 
L 581 0 
L 581 4863 
L 1159 4863 
L 1159 2956 
Q 1366 3272 1645 3428 
Q 1925 3584 2291 3584 
Q 2894 3584 3203 3211 
Q 3513 2838 3513 2113 
z
" transform="scale(0.015625)"/>
     </defs>
     <use xlink:href="#DejaVuSans-44"/>
     <use xlink:href="#DejaVuSans-46" transform="translate(61.28125 0)"/>
     <use xlink:href="#DejaVuSans-4b" transform="translate(116.265625 0)"/>
     <use xlink:href="#DejaVuSans-4c" transform="translate(179.640625 0)"/>
     <use xlink:href="#DejaVuSans-48" transform="translate(207.421875 0)"/>
     <use xlink:href="#DejaVuSans-59" transform="translate(268.953125 0)"/>
     <use xlink:href="#DejaVuSans-48" transform="translate(328.140625 0)"/>
     <use xlink:href="#DejaVuSans-47" transform="translate(389.671875 0)"/>
    </g>
   </g>
   <g id="text_10">
    <!-- detector -->
    <g style="fill: #ffffff" transform="translate(223.097461 36.641992) scale(0.075 -0.075)">
     <use xlink:href="#DejaVuSans-47"/>
     <use xlink:href="#DejaVuSans-48" transform="translate(63.484375 0)"/>
     <use xlink:href="#DejaVuSans-57" transform="translate(125.015625 0)"/>
     <use xlink:href="#DejaVuSans-48" transform="translate(164.21875 0)"/>
     <use xlink:href="#DejaVuSans-46" transform="translate(225.75 0)"/>
     <use xlink:href="#DejaVuSans-57" transform="translate(280.734375 0)"/>
     <use xlink:href="#DejaVuSans-52" transform="translate(319.9375 0)"/>
     <use xlink:href="#DejaVuSans-55" transform="translate(381.125 0)"/>
    </g>
   </g>
   <g id="text_11">
    <!-- gate -->
    <g style="fill: #ffffff" transform="translate(319.8125 36.641699) scale(0.075 -0.075)">
     <use xlink:href="#DejaVuSans-4a"/>
     <use xlink:href="#DejaVuSans-44" transform="translate(63.484375 0)"/>
     <use xlink:href="#DejaVuSans-57" transform="translate(124.765625 0)"/>
     <use xlink:href="#DejaVuSans-48" transform="translate(163.96875 0)"/>
    </g>
   </g>
   <g id="text_12">
    <!-- gate -->
    <g style="fill: #ffffff" transform="translate(409.15 36.641699) scale(0.075 -0.075)">
     <use xlink:href="#DejaVuSans-4a"/>
     <use xlink:href="#DejaVuSans-44" transform="translate(63.484375 0)"/>
     <use xlink:href="#DejaVuSans-57" transform="translate(124.765625 0)"/>
     <use xlink:href="#DejaVuSans-48" transform="translate(163.96875 0)"/>
    </g>
   </g>
   <g id="text_13">
    <!-- achieved -->
    <g style="fill: #ffffff" transform="translate(132.600391 91.628906) scale(0.075 -0.075)">
     <use xlink:href="#DejaVuSans-44"/>
     <use xlink:href="#DejaVuSans-46" transform="translate(61.28125 0)"/>
     <use xlink:href="#DejaVuSans-4b" transform="translate(116.265625 0)"/>
     <use xlink:href="#DejaVuSans-4c" transform="translate(179.640625 0)"/>
     <use xlink:href="#DejaVuSans-48" transform="translate(207.421875 0)"/>
     <use xlink:href="#DejaVuSans-59" transform="translate(268.953125 0)"/>
     <use xlink:href="#DejaVuSans-48" transform="translate(328.140625 0)"/>
     <use xlink:href="#DejaVuSans-47" transform="translate(389.671875 0)"/>
    </g>
   </g>
   <g id="text_14">
    <!-- achieved -->
    <g style="fill: #ffffff" transform="translate(221.937891 91.628906) scale(0.075 -0.075)">
     <use xlink:href="#DejaVuSans-44"/>
     <use xlink:href="#DejaVuSans-46" transform="translate(61.28125 0)"/>
     <use xlink:href="#DejaVuSans-4b" transform="translate(116.265625 0)"/>
     <use xlink:href="#DejaVuSans-4c" transform="translate(179.640625 0)"/>
     <use xlink:href="#DejaVuSans-48" transform="translate(207.421875 0)"/>
     <use xlink:href="#DejaVuSans-59" transform="translate(268.953125 0)"/>
     <use xlink:href="#DejaVuSans-48" transform="translate(328.140625 0)"/>
     <use xlink:href="#DejaVuSans-47" transform="translate(389.671875 0)"/>
    </g>
   </g>
   <g id="text_15">
    <!-- gate -->
    <g style="fill: #ffffff" transform="translate(319.8125 91.628613) scale(0.075 -0.075)">
     <use xlink:href="#DejaVuSans-4a"/>
     <use xlink:href="#DejaVuSans-44" transform="translate(63.484375 0)"/>
     <use xlink:href="#DejaVuSans-57" transform="translate(124.765625 0)"/>
     <use xlink:href="#DejaVuSans-48" transform="translate(163.96875 0)"/>
    </g>
   </g>
   <g id="text_16">
    <!-- source-sep -->
    <g style="fill: #ffffff" transform="translate(397.158789 91.628613) scale(0.075 -0.075)">
     <use xlink:href="#DejaVuSans-56"/>
     <use xlink:href="#DejaVuSans-52" transform="translate(52.09375 0)"/>
     <use xlink:href="#DejaVuSans-58" transform="translate(113.28125 0)"/>
     <use xlink:href="#DejaVuSans-55" transform="translate(176.65625 0)"/>
     <use xlink:href="#DejaVuSans-46" transform="translate(215.5625 0)"/>
     <use xlink:href="#DejaVuSans-48" transform="translate(270.546875 0)"/>
     <use xlink:href="#DejaVuSans-10" transform="translate(332.078125 0)"/>
     <use xlink:href="#DejaVuSans-56" transform="translate(368.15625 0)"/>
     <use xlink:href="#DejaVuSans-48" transform="translate(420.25 0)"/>
     <use xlink:href="#DejaVuSans-53" transform="translate(481.78125 0)"/>
    </g>
   </g>
   <g id="text_17">
    <!-- achieved -->
    <g style="fill: #ffffff" transform="translate(132.600391 146.61582) scale(0.075 -0.075)">
     <use xlink:href="#DejaVuSans-44"/>
     <use xlink:href="#DejaVuSans-46" transform="translate(61.28125 0)"/>
     <use xlink:href="#DejaVuSans-4b" transform="translate(116.265625 0)"/>
     <use xlink:href="#DejaVuSans-4c" transform="translate(179.640625 0)"/>
     <use xlink:href="#DejaVuSans-48" transform="translate(207.421875 0)"/>
     <use xlink:href="#DejaVuSans-59" transform="translate(268.953125 0)"/>
     <use xlink:href="#DejaVuSans-48" transform="translate(328.140625 0)"/>
     <use xlink:href="#DejaVuSans-47" transform="translate(389.671875 0)"/>
    </g>
   </g>
   <g id="text_18">
    <!-- achieved -->
    <g style="fill: #ffffff" transform="translate(221.937891 146.61582) scale(0.075 -0.075)">
     <use xlink:href="#DejaVuSans-44"/>
     <use xlink:href="#DejaVuSans-46" transform="translate(61.28125 0)"/>
     <use xlink:href="#DejaVuSans-4b" transform="translate(116.265625 0)"/>
     <use xlink:href="#DejaVuSans-4c" transform="translate(179.640625 0)"/>
     <use xlink:href="#DejaVuSans-48" transform="translate(207.421875 0)"/>
     <use xlink:href="#DejaVuSans-59" transform="translate(268.953125 0)"/>
     <use xlink:href="#DejaVuSans-48" transform="translate(328.140625 0)"/>
     <use xlink:href="#DejaVuSans-47" transform="translate(389.671875 0)"/>
    </g>
   </g>
   <g id="text_19">
    <!-- gate -->
    <g style="fill: #ffffff" transform="translate(319.8125 146.615527) scale(0.075 -0.075)">
     <use xlink:href="#DejaVuSans-4a"/>
     <use xlink:href="#DejaVuSans-44" transform="translate(63.484375 0)"/>
     <use xlink:href="#DejaVuSans-57" transform="translate(124.765625 0)"/>
     <use xlink:href="#DejaVuSans-48" transform="translate(163.96875 0)"/>
    </g>
   </g>
   <g id="text_20">
    <!-- source-sep -->
    <g style="fill: #ffffff" transform="translate(397.158789 146.615527) scale(0.075 -0.075)">
     <use xlink:href="#DejaVuSans-56"/>
     <use xlink:href="#DejaVuSans-52" transform="translate(52.09375 0)"/>
     <use xlink:href="#DejaVuSans-58" transform="translate(113.28125 0)"/>
     <use xlink:href="#DejaVuSans-55" transform="translate(176.65625 0)"/>
     <use xlink:href="#DejaVuSans-46" transform="translate(215.5625 0)"/>
     <use xlink:href="#DejaVuSans-48" transform="translate(270.546875 0)"/>
     <use xlink:href="#DejaVuSans-10" transform="translate(332.078125 0)"/>
     <use xlink:href="#DejaVuSans-56" transform="translate(368.15625 0)"/>
     <use xlink:href="#DejaVuSans-48" transform="translate(420.25 0)"/>
     <use xlink:href="#DejaVuSans-53" transform="translate(481.78125 0)"/>
    </g>
   </g>
   <g id="text_21">
    <!-- achieved -->
    <g style="fill: #ffffff" transform="translate(132.600391 201.602734) scale(0.075 -0.075)">
     <use xlink:href="#DejaVuSans-44"/>
     <use xlink:href="#DejaVuSans-46" transform="translate(61.28125 0)"/>
     <use xlink:href="#DejaVuSans-4b" transform="translate(116.265625 0)"/>
     <use xlink:href="#DejaVuSans-4c" transform="translate(179.640625 0)"/>
     <use xlink:href="#DejaVuSans-48" transform="translate(207.421875 0)"/>
     <use xlink:href="#DejaVuSans-59" transform="translate(268.953125 0)"/>
     <use xlink:href="#DejaVuSans-48" transform="translate(328.140625 0)"/>
     <use xlink:href="#DejaVuSans-47" transform="translate(389.671875 0)"/>
    </g>
   </g>
   <g id="text_22">
    <!-- achieved -->
    <g style="fill: #ffffff" transform="translate(221.937891 201.602734) scale(0.075 -0.075)">
     <use xlink:href="#DejaVuSans-44"/>
     <use xlink:href="#DejaVuSans-46" transform="translate(61.28125 0)"/>
     <use xlink:href="#DejaVuSans-4b" transform="translate(116.265625 0)"/>
     <use xlink:href="#DejaVuSans-4c" transform="translate(179.640625 0)"/>
     <use xlink:href="#DejaVuSans-48" transform="translate(207.421875 0)"/>
     <use xlink:href="#DejaVuSans-59" transform="translate(268.953125 0)"/>
     <use xlink:href="#DejaVuSans-48" transform="translate(328.140625 0)"/>
     <use xlink:href="#DejaVuSans-47" transform="translate(389.671875 0)"/>
    </g>
   </g>
   <g id="text_23">
    <!-- achieved -->
    <g style="fill: #ffffff" transform="translate(311.275391 201.602734) scale(0.075 -0.075)">
     <use xlink:href="#DejaVuSans-44"/>
     <use xlink:href="#DejaVuSans-46" transform="translate(61.28125 0)"/>
     <use xlink:href="#DejaVuSans-4b" transform="translate(116.265625 0)"/>
     <use xlink:href="#DejaVuSans-4c" transform="translate(179.640625 0)"/>
     <use xlink:href="#DejaVuSans-48" transform="translate(207.421875 0)"/>
     <use xlink:href="#DejaVuSans-59" transform="translate(268.953125 0)"/>
     <use xlink:href="#DejaVuSans-48" transform="translate(328.140625 0)"/>
     <use xlink:href="#DejaVuSans-47" transform="translate(389.671875 0)"/>
    </g>
   </g>
   <g id="text_24">
    <!-- achieved -->
    <g style="fill: #ffffff" transform="translate(400.612891 201.602734) scale(0.075 -0.075)">
     <use xlink:href="#DejaVuSans-44"/>
     <use xlink:href="#DejaVuSans-46" transform="translate(61.28125 0)"/>
     <use xlink:href="#DejaVuSans-4b" transform="translate(116.265625 0)"/>
     <use xlink:href="#DejaVuSans-4c" transform="translate(179.640625 0)"/>
     <use xlink:href="#DejaVuSans-48" transform="translate(207.421875 0)"/>
     <use xlink:href="#DejaVuSans-59" transform="translate(268.953125 0)"/>
     <use xlink:href="#DejaVuSans-48" transform="translate(328.140625 0)"/>
     <use xlink:href="#DejaVuSans-47" transform="translate(389.671875 0)"/>
    </g>
   </g>
  </g>
 </g>
 <defs>
  <clipPath id="pc57e4f9736">
   <rect x="104.925" y="7.2" width="357.35" height="219.947656"/>
  </clipPath>
 </defs>
</svg>
