<?xml version="1.0" encoding="utf-8" standalone="no"?>
<!DOCTYPE svg PUBLIC "-//W3C//DTD SVG 1.1//EN"
  "http://www.w3.org/Graphics/SVG/1.1/DTD/svg11.dtd">
<svg xmlns:xlink="http://www.w3.org/1999/xlink" width="526.214062pt" height="208.149375pt" viewBox="0 0 526.214062 208.149375" xmlns="http://www.w3.org/2000/svg" version="1.1">
 <metadata>
  <rdf:RDF xmlns:dc="http://purl.org/dc/elements/1.1/" xmlns:cc="http://creativecommons.org/ns#" xmlns:rdf="http://www.w3.org/1999/02/22-rdf-syntax-ns#">
   <cc:Work>
    <dc:type rdf:resource="http://purl.org/dc/dcmitype/StillImage"/>
    <dc:date>2026-07-20T18:38:49.194441</dc:date>
    <dc:format>image/svg+xml</dc:format>
    <dc:creator>
     <cc:Agent>
      <dc:title>Matplotlib v3.11.1, https://matplotlib.org/</dc:title>
     </cc:Agent>
    </dc:creator>
   </cc:Work>
  </rdf:RDF>
 </metadata>
 <defs>
  <style type="text/css">*{stroke-linejoin: round; stroke-linecap: butt}</style>
 </defs>
 <g id="figure_1">
  <g id="patch_1">
   <path d="M 0 208.149375 
L 526.214062 208.149375 
L 526.214062 0 
L 0 0 
z
" style="fill: #ffffff"/>
  </g>
  <g id="axes_1">
   <g id="patch_2">
    <path d="M 50.466406 169.948594 
L 253.889063 169.948594 
L 253.889063 22.318125 
L 50.466406 22.318125 
z
" style="fill: #ffffff"/>
   </g>
   <g id="matplotlib.axis_1">
    <g id="xtick_1">
     <g id="line2d_1">
      <defs>
       <path id="m6570157936" d="M 0 0 
L 0 3.5 
" style="stroke: #000000; stroke-width: 0.8"/>
      </defs>
      <g>
       <use xlink:href="#m6570157936" x="54.971104" y="169.948594" style="stroke: #000000; stroke-width: 0.8"/>
      </g>
     </g>
     <g id="text_1">
      <!-- 0 -->
      <g transform="translate(51.789854 184.54625) scale(0.1 -0.1)">
       <defs>
        <path id="DejaVuSans-13" d="M 2034 4250 
Q 1547 4250 1301 3770 
Q 1056 3291 1056 2328 
Q 1056 1369 1301 889 
Q 1547 409 2034 409 
Q 2525 409 2770 889 
Q 3016 1369 3016 2328 
Q 3016 3291 2770 3770 
Q 2525 4250 2034 4250 
z
M 2034 4750 
Q 2819 4750 3233 4129 
Q 3647 3509 3647 2328 
Q 3647 1150 3233 529 
Q 2819 -91 2034 -91 
Q 1250 -91 836 529 
Q 422 1150 422 2328 
Q 422 3509 836 4129 
Q 1250 4750 2034 4750 
z
" transform="scale(0.015625)"/>
       </defs>
       <use xlink:href="#DejaVuSans-13"/>
      </g>
     </g>
    </g>
    <g id="xtick_2">
     <g id="line2d_2">
      <g>
       <use xlink:href="#m6570157936" x="102.388972" y="169.948594" style="stroke: #000000; stroke-width: 0.8"/>
      </g>
     </g>
     <g id="text_2">
      <!-- 10 -->
      <g transform="translate(96.026472 184.54625) scale(0.1 -0.1)">
       <defs>
        <path id="DejaVuSans-14" d="M 794 531 
L 1825 531 
L 1825 4091 
L 703 3866 
L 703 4441 
L 1819 4666 
L 2450 4666 
L 2450 531 
L 3481 531 
L 3481 0 
L 794 0 
L 794 531 
z
" transform="scale(0.015625)"/>
       </defs>
       <use xlink:href="#DejaVuSans-14"/>
       <use xlink:href="#DejaVuSans-13" transform="translate(63.625 0)"/>
      </g>
     </g>
    </g>
    <g id="xtick_3">
     <g id="line2d_3">
      <g>
       <use xlink:href="#m6570157936" x="149.806841" y="169.948594" style="stroke: #000000; stroke-width: 0.8"/>
      </g>
     </g>
     <g id="text_3">
      <!-- 20 -->
      <g transform="translate(143.444341 184.54625) scale(0.1 -0.1)">
       <defs>
        <path id="DejaVuSans-15" d="M 1228 531 
L 3431 531 
L 3431 0 
L 469 0 
L 469 531 
Q 828 903 1448 1529 
Q 2069 2156 2228 2338 
Q 2531 2678 2651 2914 
Q 2772 3150 2772 3378 
Q 2772 3750 2511 3984 
Q 2250 4219 1831 4219 
Q 1534 4219 1204 4116 
Q 875 4013 500 3803 
L 500 4441 
Q 881 4594 1212 4672 
Q 1544 4750 1819 4750 
Q 2544 4750 2975 4387 
Q 3406 4025 3406 3419 
Q 3406 3131 3298 2873 
Q 3191 2616 2906 2266 
Q 2828 2175 2409 1742 
Q 1991 1309 1228 531 
z
" transform="scale(0.015625)"/>
       </defs>
       <use xlink:href="#DejaVuSans-15"/>
       <use xlink:href="#DejaVuSans-13" transform="translate(63.625 0)"/>
      </g>
     </g>
    </g>
    <g id="xtick_4">
     <g id="line2d_4">
      <g>
       <use xlink:href="#m6570157936" x="197.22471" y="169.948594" style="stroke: #000000; stroke-width: 0.8"/>
      </g>
     </g>
     <g id="text_4">
      <!-- 30 -->
      <g transform="translate(190.86221 184.54625) scale(0.1 -0.1)">
       <defs>
        <path id="DejaVuSans-16" d="M 2597 2516 
Q 3050 2419 3304 2112 
Q 3559 1806 3559 1356 
Q 3559 666 3084 287 
Q 2609 -91 1734 -91 
Q 1441 -91 1130 -33 
Q 819 25 488 141 
L 488 750 
Q 750 597 1062 519 
Q 1375 441 1716 441 
Q 2309 441 2620 675 
Q 2931 909 2931 1356 
Q 2931 1769 2642 2001 
Q 2353 2234 1838 2234 
L 1294 2234 
L 1294 2753 
L 1863 2753 
Q 2328 2753 2575 2939 
Q 2822 3125 2822 3475 
Q 2822 3834 2567 4026 
Q 2313 4219 1838 4219 
Q 1578 4219 1281 4162 
Q 984 4106 628 3988 
L 628 4550 
Q 988 4650 1302 4700 
Q 1616 4750 1894 4750 
Q 2613 4750 3031 4423 
Q 3450 4097 3450 3541 
Q 3450 3153 3228 2886 
Q 3006 2619 2597 2516 
z
" transform="scale(0.015625)"/>
       </defs>
       <use xlink:href="#DejaVuSans-16"/>
       <use xlink:href="#DejaVuSans-13" transform="translate(63.625 0)"/>
      </g>
     </g>
    </g>
    <g id="xtick_5">
     <g id="line2d_5">
      <g>
       <use xlink:href="#m6570157936" x="244.642578" y="169.948594" style="stroke: #000000; stroke-width: 0.8"/>
      </g>
     </g>
     <g id="text_5">
      <!-- 40 -->
      <g transform="translate(238.280078 184.54625) scale(0.1 -0.1)">
       <defs>
        <path id="DejaVuSans-17" d="M 2419 4116 
L 825 1625 
L 2419 1625 
L 2419 4116 
z
M 2253 4666 
L 3047 4666 
L 3047 1625 
L 3713 1625 
L 3713 1100 
L 3047 1100 
L 3047 0 
L 2419 0 
L 2419 1100 
L 313 1100 
L 313 1709 
L 2253 4666 
z
" transform="scale(0.015625)"/>
       </defs>
       <use xlink:href="#DejaVuSans-17"/>
       <use xlink:href="#DejaVuSans-13" transform="translate(63.625 0)"/>
      </g>
     </g>
    </g>
    <g id="text_6">
     <!-- eval run -->
     <g transform="translate(131.706641 198.547031) scale(0.1 -0.1)">
      <defs>
       <path id="DejaVuSans-48" d="M 3597 1894 
L 3597 1613 
L 953 1613 
Q 991 1019 1311 708 
Q 1631 397 2203 397 
Q 2534 397 2845 478 
Q 3156 559 3463 722 
L 3463 178 
Q 3153 47 2828 -22 
Q 2503 -91 2169 -91 
Q 1331 -91 842 396 
Q 353 884 353 1716 
Q 353 2575 817 3079 
Q 1281 3584 2069 3584 
Q 2775 3584 3186 3129 
Q 3597 2675 3597 1894 
z
M 3022 2063 
Q 3016 2534 2758 2815 
Q 2500 3097 2075 3097 
Q 1594 3097 1305 2825 
Q 1016 2553 972 2059 
L 3022 2063 
z
" transform="scale(0.015625)"/>
       <path id="DejaVuSans-59" d="M 191 3500 
L 800 3500 
L 1894 563 
L 2988 3500 
L 3597 3500 
L 2284 0 
L 1503 0 
L 191 3500 
z
" transform="scale(0.015625)"/>
       <path id="DejaVuSans-44" d="M 2194 1759 
Q 1497 1759 1228 1600 
Q 959 1441 959 1056 
Q 959 750 1161 570 
Q 1363 391 1709 391 
Q 2188 391 2477 730 
Q 2766 1069 2766 1631 
L 2766 1759 
L 2194 1759 
z
M 3341 1997 
L 3341 0 
L 2766 0 
L 2766 531 
Q 2569 213 2275 61 
Q 1981 -91 1556 -91 
Q 1019 -91 701 211 
Q 384 513 384 1019 
Q 384 1609 779 1909 
Q 1175 2209 1959 2209 
L 2766 2209 
L 2766 2266 
Q 2766 2663 2505 2880 
Q 2244 3097 1772 3097 
Q 1472 3097 1187 3025 
Q 903 2953 641 2809 
L 641 3341 
Q 956 3463 1253 3523 
Q 1550 3584 1831 3584 
Q 2591 3584 2966 3190 
Q 3341 2797 3341 1997 
z
" transform="scale(0.015625)"/>
       <path id="DejaVuSans-4f" d="M 603 4863 
L 1178 4863 
L 1178 0 
L 603 0 
L 603 4863 
z
" transform="scale(0.015625)"/>
       <path id="DejaVuSans-3" transform="scale(0.015625)"/>
       <path id="DejaVuSans-55" d="M 2631 2963 
Q 2534 3019 2420 3045 
Q 2306 3072 2169 3072 
Q 1681 3072 1420 2755 
Q 1159 2438 1159 1844 
L 1159 0 
L 581 0 
L 581 3500 
L 1159 3500 
L 1159 2956 
Q 1341 3275 1631 3429 
Q 1922 3584 2338 3584 
Q 2397 3584 2469 3576 
Q 2541 3569 2628 3553 
L 2631 2963 
z
" transform="scale(0.015625)"/>
       <path id="DejaVuSans-58" d="M 544 1381 
L 544 3500 
L 1119 3500 
L 1119 1403 
Q 1119 906 1312 657 
Q 1506 409 1894 409 
Q 2359 409 2629 706 
Q 2900 1003 2900 1516 
L 2900 3500 
L 3475 3500 
L 3475 0 
L 2900 0 
L 2900 538 
Q 2691 219 2414 64 
Q 2138 -91 1772 -91 
Q 1169 -91 856 284 
Q 544 659 544 1381 
z
M 1991 3584 
L 1991 3584 
z
" transform="scale(0.015625)"/>
       <path id="DejaVuSans-51" d="M 3513 2113 
L 3513 0 
L 2938 0 
L 2938 2094 
Q 2938 2591 2744 2837 
Q 2550 3084 2163 3084 
Q 1697 3084 1428 2787 
Q 1159 2491 1159 1978 
L 1159 0 
L 581 0 
L 581 3500 
L 1159 3500 
L 1159 2956 
Q 1366 3272 1645 3428 
Q 1925 3584 2291 3584 
Q 2894 3584 3203 3211 
Q 3513 2838 3513 2113 
z
" transform="scale(0.015625)"/>
      </defs>
      <use xlink:href="#DejaVuSans-48"/>
      <use xlink:href="#DejaVuSans-59" transform="translate(61.53125 0)"/>
      <use xlink:href="#DejaVuSans-44" transform="translate(120.71875 0)"/>
      <use xlink:href="#DejaVuSans-4f" transform="translate(182 0)"/>
      <use xlink:href="#DejaVuSans-3" transform="translate(209.78125 0)"/>
      <use xlink:href="#DejaVuSans-55" transform="translate(241.5625 0)"/>
      <use xlink:href="#DejaVuSans-58" transform="translate(282.671875 0)"/>
      <use xlink:href="#DejaVuSans-51" transform="translate(346.046875 0)"/>
     </g>
    </g>
   </g>
   <g id="matplotlib.axis_2">
    <g id="ytick_1">
     <g id="line2d_6">
      <defs>
       <path id="mba8d3f1569" d="M 0 0 
L -3.5 0 
" style="stroke: #000000; stroke-width: 0.8"/>
      </defs>
      <g>
       <use xlink:href="#mba8d3f1569" x="50.466406" y="154.850023" style="stroke: #000000; stroke-width: 0.8"/>
      </g>
     </g>
     <g id="text_7">
      <!-- 0.74 -->
      <g transform="translate(21.200781 158.648851) scale(0.1 -0.1)">
       <defs>
        <path id="DejaVuSans-11" d="M 684 794 
L 1344 794 
L 1344 0 
L 684 0 
L 684 794 
z
" transform="scale(0.015625)"/>
        <path id="DejaVuSans-1a" d="M 525 4666 
L 3525 4666 
L 3525 4397 
L 1831 0 
L 1172 0 
L 2766 4134 
L 525 4134 
L 525 4666 
z
" transform="scale(0.015625)"/>
       </defs>
       <use xlink:href="#DejaVuSans-13"/>
       <use xlink:href="#DejaVuSans-11" transform="translate(63.625 0)"/>
       <use xlink:href="#DejaVuSans-1a" transform="translate(95.40625 0)"/>
       <use xlink:href="#DejaVuSans-17" transform="translate(159.03125 0)"/>
      </g>
     </g>
    </g>
    <g id="ytick_2">
     <g id="line2d_7">
      <g>
       <use xlink:href="#mba8d3f1569" x="50.466406" y="121.297644" style="stroke: #000000; stroke-width: 0.8"/>
      </g>
     </g>
     <g id="text_8">
      <!-- 0.76 -->
      <g transform="translate(21.200781 125.096472) scale(0.1 -0.1)">
       <defs>
        <path id="DejaVuSans-19" d="M 2113 2584 
Q 1688 2584 1439 2293 
Q 1191 2003 1191 1497 
Q 1191 994 1439 701 
Q 1688 409 2113 409 
Q 2538 409 2786 701 
Q 3034 994 3034 1497 
Q 3034 2003 2786 2293 
Q 2538 2584 2113 2584 
z
M 3366 4563 
L 3366 3988 
Q 3128 4100 2886 4159 
Q 2644 4219 2406 4219 
Q 1781 4219 1451 3797 
Q 1122 3375 1075 2522 
Q 1259 2794 1537 2939 
Q 1816 3084 2150 3084 
Q 2853 3084 3261 2657 
Q 3669 2231 3669 1497 
Q 3669 778 3244 343 
Q 2819 -91 2113 -91 
Q 1303 -91 875 529 
Q 447 1150 447 2328 
Q 447 3434 972 4092 
Q 1497 4750 2381 4750 
Q 2619 4750 2861 4703 
Q 3103 4656 3366 4563 
z
" transform="scale(0.015625)"/>
       </defs>
       <use xlink:href="#DejaVuSans-13"/>
       <use xlink:href="#DejaVuSans-11" transform="translate(63.625 0)"/>
       <use xlink:href="#DejaVuSans-1a" transform="translate(95.40625 0)"/>
       <use xlink:href="#DejaVuSans-19" transform="translate(159.03125 0)"/>
      </g>
     </g>
    </g>
    <g id="ytick_3">
     <g id="line2d_8">
      <g>
       <use xlink:href="#mba8d3f1569" x="50.466406" y="87.745265" style="stroke: #000000; stroke-width: 0.8"/>
      </g>
     </g>
     <g id="text_9">
      <!-- 0.78 -->
      <g transform="translate(21.200781 91.544093) scale(0.1 -0.1)">
       <defs>
        <path id="DejaVuSans-1b" d="M 2034 2216 
Q 1584 2216 1326 1975 
Q 1069 1734 1069 1313 
Q 1069 891 1326 650 
Q 1584 409 2034 409 
Q 2484 409 2743 651 
Q 3003 894 3003 1313 
Q 3003 1734 2745 1975 
Q 2488 2216 2034 2216 
z
M 1403 2484 
Q 997 2584 770 2862 
Q 544 3141 544 3541 
Q 544 4100 942 4425 
Q 1341 4750 2034 4750 
Q 2731 4750 3128 4425 
Q 3525 4100 3525 3541 
Q 3525 3141 3298 2862 
Q 3072 2584 2669 2484 
Q 3125 2378 3379 2068 
Q 3634 1759 3634 1313 
Q 3634 634 3220 271 
Q 2806 -91 2034 -91 
Q 1263 -91 848 271 
Q 434 634 434 1313 
Q 434 1759 690 2068 
Q 947 2378 1403 2484 
z
M 1172 3481 
Q 1172 3119 1398 2916 
Q 1625 2713 2034 2713 
Q 2441 2713 2670 2916 
Q 2900 3119 2900 3481 
Q 2900 3844 2670 4047 
Q 2441 4250 2034 4250 
Q 1625 4250 1398 4047 
Q 1172 3844 1172 3481 
z
" transform="scale(0.015625)"/>
       </defs>
       <use xlink:href="#DejaVuSans-13"/>
       <use xlink:href="#DejaVuSans-11" transform="translate(63.625 0)"/>
       <use xlink:href="#DejaVuSans-1a" transform="translate(95.40625 0)"/>
       <use xlink:href="#DejaVuSans-1b" transform="translate(159.03125 0)"/>
      </g>
     </g>
    </g>
    <g id="ytick_4">
     <g id="line2d_9">
      <g>
       <use xlink:href="#mba8d3f1569" x="50.466406" y="54.192885" style="stroke: #000000; stroke-width: 0.8"/>
      </g>
     </g>
     <g id="text_10">
      <!-- 0.80 -->
      <g transform="translate(21.200781 57.991713) scale(0.1 -0.1)">
       <use xlink:href="#DejaVuSans-13"/>
       <use xlink:href="#DejaVuSans-11" transform="translate(63.625 0)"/>
       <use xlink:href="#DejaVuSans-1b" transform="translate(95.40625 0)"/>
       <use xlink:href="#DejaVuSans-13" transform="translate(159.03125 0)"/>
      </g>
     </g>
    </g>
    <g id="text_11">
     <!-- candidate pass rate -->
     <g transform="translate(14.798438 145.735703) rotate(-90) scale(0.1 -0.1)">
      <defs>
       <path id="DejaVuSans-46" d="M 3122 3366 
L 3122 2828 
Q 2878 2963 2633 3030 
Q 2388 3097 2138 3097 
Q 1578 3097 1268 2742 
Q 959 2388 959 1747 
Q 959 1106 1268 751 
Q 1578 397 2138 397 
Q 2388 397 2633 464 
Q 2878 531 3122 666 
L 3122 134 
Q 2881 22 2623 -34 
Q 2366 -91 2075 -91 
Q 1284 -91 818 406 
Q 353 903 353 1747 
Q 353 2603 823 3093 
Q 1294 3584 2113 3584 
Q 2378 3584 2631 3529 
Q 2884 3475 3122 3366 
z
" transform="scale(0.015625)"/>
       <path id="DejaVuSans-47" d="M 2906 2969 
L 2906 4863 
L 3481 4863 
L 3481 0 
L 2906 0 
L 2906 525 
Q 2725 213 2448 61 
Q 2172 -91 1784 -91 
Q 1150 -91 751 415 
Q 353 922 353 1747 
Q 353 2572 751 3078 
Q 1150 3584 1784 3584 
Q 2172 3584 2448 3432 
Q 2725 3281 2906 2969 
z
M 947 1747 
Q 947 1113 1208 752 
Q 1469 391 1925 391 
Q 2381 391 2643 752 
Q 2906 1113 2906 1747 
Q 2906 2381 2643 2742 
Q 2381 3103 1925 3103 
Q 1469 3103 1208 2742 
Q 947 2381 947 1747 
z
" transform="scale(0.015625)"/>
       <path id="DejaVuSans-4c" d="M 603 3500 
L 1178 3500 
L 1178 0 
L 603 0 
L 603 3500 
z
M 603 4863 
L 1178 4863 
L 1178 4134 
L 603 4134 
L 603 4863 
z
" transform="scale(0.015625)"/>
       <path id="DejaVuSans-57" d="M 1172 4494 
L 1172 3500 
L 2356 3500 
L 2356 3053 
L 1172 3053 
L 1172 1153 
Q 1172 725 1289 603 
Q 1406 481 1766 481 
L 2356 481 
L 2356 0 
L 1766 0 
Q 1100 0 847 248 
Q 594 497 594 1153 
L 594 3053 
L 172 3053 
L 172 3500 
L 594 3500 
L 594 4494 
L 1172 4494 
z
" transform="scale(0.015625)"/>
       <path id="DejaVuSans-53" d="M 1159 525 
L 1159 -1331 
L 581 -1331 
L 581 3500 
L 1159 3500 
L 1159 2969 
Q 1341 3281 1617 3432 
Q 1894 3584 2278 3584 
Q 2916 3584 3314 3078 
Q 3713 2572 3713 1747 
Q 3713 922 3314 415 
Q 2916 -91 2278 -91 
Q 1894 -91 1617 61 
Q 1341 213 1159 525 
z
M 3116 1747 
Q 3116 2381 2855 2742 
Q 2594 3103 2138 3103 
Q 1681 3103 1420 2742 
Q 1159 2381 1159 1747 
Q 1159 1113 1420 752 
Q 1681 391 2138 391 
Q 2594 391 2855 752 
Q 3116 1113 3116 1747 
z
" transform="scale(0.015625)"/>
       <path id="DejaVuSans-56" d="M 2834 3397 
L 2834 2853 
Q 2591 2978 2328 3040 
Q 2066 3103 1784 3103 
Q 1356 3103 1142 2972 
Q 928 2841 928 2578 
Q 928 2378 1081 2264 
Q 1234 2150 1697 2047 
L 1894 2003 
Q 2506 1872 2764 1633 
Q 3022 1394 3022 966 
Q 3022 478 2636 193 
Q 2250 -91 1575 -91 
Q 1294 -91 989 -36 
Q 684 19 347 128 
L 347 722 
Q 666 556 975 473 
Q 1284 391 1588 391 
Q 1994 391 2212 530 
Q 2431 669 2431 922 
Q 2431 1156 2273 1281 
Q 2116 1406 1581 1522 
L 1381 1569 
Q 847 1681 609 1914 
Q 372 2147 372 2553 
Q 372 3047 722 3315 
Q 1072 3584 1716 3584 
Q 2034 3584 2315 3537 
Q 2597 3491 2834 3397 
z
" transform="scale(0.015625)"/>
      </defs>
      <use xlink:href="#DejaVuSans-46"/>
      <use xlink:href="#DejaVuSans-44" transform="translate(54.984375 0)"/>
      <use xlink:href="#DejaVuSans-51" transform="translate(116.265625 0)"/>
      <use xlink:href="#DejaVuSans-47" transform="translate(179.640625 0)"/>
      <use xlink:href="#DejaVuSans-4c" transform="translate(243.125 0)"/>
      <use xlink:href="#DejaVuSans-47" transform="translate(270.90625 0)"/>
      <use xlink:href="#DejaVuSans-44" transform="translate(334.390625 0)"/>
      <use xlink:href="#DejaVuSans-57" transform="translate(395.671875 0)"/>
      <use xlink:href="#DejaVuSans-48" transform="translate(434.875 0)"/>
      <use xlink:href="#DejaVuSans-3" transform="translate(496.40625 0)"/>
      <use xlink:href="#DejaVuSans-53" transform="translate(528.1875 0)"/>
      <use xlink:href="#DejaVuSans-44" transform="translate(591.671875 0)"/>
      <use xlink:href="#DejaVuSans-56" transform="translate(652.953125 0)"/>
      <use xlink:href="#DejaVuSans-56" transform="translate(705.046875 0)"/>
      <use xlink:href="#DejaVuSans-3" transform="translate(757.140625 0)"/>
      <use xlink:href="#DejaVuSans-55" transform="translate(788.921875 0)"/>
      <use xlink:href="#DejaVuSans-44" transform="translate(830.03125 0)"/>
      <use xlink:href="#DejaVuSans-57" transform="translate(891.3125 0)"/>
      <use xlink:href="#DejaVuSans-48" transform="translate(930.515625 0)"/>
     </g>
    </g>
   </g>
   <g id="line2d_10">
    <path d="M 59.712891 70.969075 
L 64.454677 96.133359 
L 69.196464 104.521454 
L 73.938251 138.073833 
L 78.680038 104.521454 
L 83.421825 112.909549 
L 88.163612 129.685739 
L 92.905399 104.521454 
L 97.647185 112.909549 
L 102.388972 87.745265 
L 107.130759 163.238118 
L 111.872546 104.521454 
L 116.614333 87.745265 
L 121.35612 79.35717 
L 126.097907 96.133359 
L 130.839694 96.133359 
L 135.58148 104.521454 
L 140.323267 79.35717 
L 145.065054 112.909549 
L 149.806841 96.133359 
L 154.548628 70.969075 
L 159.290415 154.850023 
L 164.032202 121.297644 
L 168.773988 112.909549 
L 173.515775 87.745265 
L 178.257562 121.297644 
L 182.999349 70.969075 
L 187.741136 112.909549 
L 192.482923 104.521454 
L 197.22471 70.969075 
L 201.966496 54.192885 
L 206.708283 29.028601 
L 211.45007 96.133359 
L 216.191857 146.461928 
L 220.933644 70.969075 
L 225.675431 129.685739 
L 230.417218 79.35717 
L 235.159004 45.80479 
L 239.900791 129.685739 
L 244.642578 112.909549 
" clip-path="url(#p8f3a4cb508)" style="fill: none; stroke: #b13f3f; stroke-width: 1.5; stroke-linecap: square"/>
    <defs>
     <path id="m549cc5a308" d="M 0 1.5 
C 0.397805 1.5 0.77937 1.341951 1.06066 1.06066 
C 1.341951 0.77937 1.5 0.397805 1.5 0 
C 1.5 -0.397805 1.341951 -0.77937 1.06066 -1.06066 
C 0.77937 -1.341951 0.397805 -1.5 0 -1.5 
C -0.397805 -1.5 -0.77937 -1.341951 -1.06066 -1.06066 
C -1.341951 -0.77937 -1.5 -0.397805 -1.5 0 
C -1.5 0.397805 -1.341951 0.77937 -1.06066 1.06066 
C -0.77937 1.341951 -0.397805 1.5 0 1.5 
z
" style="stroke: #b13f3f"/>
    </defs>
    <g clip-path="url(#p8f3a4cb508)">
     <use xlink:href="#m549cc5a308" x="59.712891" y="70.969075" style="fill: #b13f3f; stroke: #b13f3f"/>
     <use xlink:href="#m549cc5a308" x="64.454677" y="96.133359" style="fill: #b13f3f; stroke: #b13f3f"/>
     <use xlink:href="#m549cc5a308" x="69.196464" y="104.521454" style="fill: #b13f3f; stroke: #b13f3f"/>
     <use xlink:href="#m549cc5a308" x="73.938251" y="138.073833" style="fill: #b13f3f; stroke: #b13f3f"/>
     <use xlink:href="#m549cc5a308" x="78.680038" y="104.521454" style="fill: #b13f3f; stroke: #b13f3f"/>
     <use xlink:href="#m549cc5a308" x="83.421825" y="112.909549" style="fill: #b13f3f; stroke: #b13f3f"/>
     <use xlink:href="#m549cc5a308" x="88.163612" y="129.685739" style="fill: #b13f3f; stroke: #b13f3f"/>
     <use xlink:href="#m549cc5a308" x="92.905399" y="104.521454" style="fill: #b13f3f; stroke: #b13f3f"/>
     <use xlink:href="#m549cc5a308" x="97.647185" y="112.909549" style="fill: #b13f3f; stroke: #b13f3f"/>
     <use xlink:href="#m549cc5a308" x="102.388972" y="87.745265" style="fill: #b13f3f; stroke: #b13f3f"/>
     <use xlink:href="#m549cc5a308" x="107.130759" y="163.238118" style="fill: #b13f3f; stroke: #b13f3f"/>
     <use xlink:href="#m549cc5a308" x="111.872546" y="104.521454" style="fill: #b13f3f; stroke: #b13f3f"/>
     <use xlink:href="#m549cc5a308" x="116.614333" y="87.745265" style="fill: #b13f3f; stroke: #b13f3f"/>
     <use xlink:href="#m549cc5a308" x="121.35612" y="79.35717" style="fill: #b13f3f; stroke: #b13f3f"/>
     <use xlink:href="#m549cc5a308" x="126.097907" y="96.133359" style="fill: #b13f3f; stroke: #b13f3f"/>
     <use xlink:href="#m549cc5a308" x="130.839694" y="96.133359" style="fill: #b13f3f; stroke: #b13f3f"/>
     <use xlink:href="#m549cc5a308" x="135.58148" y="104.521454" style="fill: #b13f3f; stroke: #b13f3f"/>
     <use xlink:href="#m549cc5a308" x="140.323267" y="79.35717" style="fill: #b13f3f; stroke: #b13f3f"/>
     <use xlink:href="#m549cc5a308" x="145.065054" y="112.909549" style="fill: #b13f3f; stroke: #b13f3f"/>
     <use xlink:href="#m549cc5a308" x="149.806841" y="96.133359" style="fill: #b13f3f; stroke: #b13f3f"/>
     <use xlink:href="#m549cc5a308" x="154.548628" y="70.969075" style="fill: #b13f3f; stroke: #b13f3f"/>
     <use xlink:href="#m549cc5a308" x="159.290415" y="154.850023" style="fill: #b13f3f; stroke: #b13f3f"/>
     <use xlink:href="#m549cc5a308" x="164.032202" y="121.297644" style="fill: #b13f3f; stroke: #b13f3f"/>
     <use xlink:href="#m549cc5a308" x="168.773988" y="112.909549" style="fill: #b13f3f; stroke: #b13f3f"/>
     <use xlink:href="#m549cc5a308" x="173.515775" y="87.745265" style="fill: #b13f3f; stroke: #b13f3f"/>
     <use xlink:href="#m549cc5a308" x="178.257562" y="121.297644" style="fill: #b13f3f; stroke: #b13f3f"/>
     <use xlink:href="#m549cc5a308" x="182.999349" y="70.969075" style="fill: #b13f3f; stroke: #b13f3f"/>
     <use xlink:href="#m549cc5a308" x="187.741136" y="112.909549" style="fill: #b13f3f; stroke: #b13f3f"/>
     <use xlink:href="#m549cc5a308" x="192.482923" y="104.521454" style="fill: #b13f3f; stroke: #b13f3f"/>
     <use xlink:href="#m549cc5a308" x="197.22471" y="70.969075" style="fill: #b13f3f; stroke: #b13f3f"/>
     <use xlink:href="#m549cc5a308" x="201.966496" y="54.192885" style="fill: #b13f3f; stroke: #b13f3f"/>
     <use xlink:href="#m549cc5a308" x="206.708283" y="29.028601" style="fill: #b13f3f; stroke: #b13f3f"/>
     <use xlink:href="#m549cc5a308" x="211.45007" y="96.133359" style="fill: #b13f3f; stroke: #b13f3f"/>
     <use xlink:href="#m549cc5a308" x="216.191857" y="146.461928" style="fill: #b13f3f; stroke: #b13f3f"/>
     <use xlink:href="#m549cc5a308" x="220.933644" y="70.969075" style="fill: #b13f3f; stroke: #b13f3f"/>
     <use xlink:href="#m549cc5a308" x="225.675431" y="129.685739" style="fill: #b13f3f; stroke: #b13f3f"/>
     <use xlink:href="#m549cc5a308" x="230.417218" y="79.35717" style="fill: #b13f3f; stroke: #b13f3f"/>
     <use xlink:href="#m549cc5a308" x="235.159004" y="45.80479" style="fill: #b13f3f; stroke: #b13f3f"/>
     <use xlink:href="#m549cc5a308" x="239.900791" y="129.685739" style="fill: #b13f3f; stroke: #b13f3f"/>
     <use xlink:href="#m549cc5a308" x="244.642578" y="112.909549" style="fill: #b13f3f; stroke: #b13f3f"/>
    </g>
   </g>
   <g id="line2d_11">
    <path d="M 50.466406 70.969075 
L 253.889063 70.969075 
" clip-path="url(#p8f3a4cb508)" style="fill: none; stroke-dasharray: 5.55,2.4; stroke-dashoffset: 0; stroke: #4c4c4c; stroke-width: 1.5"/>
   </g>
   <g id="patch_3">
    <path d="M 50.466406 169.948594 
L 50.466406 22.318125 
" style="fill: none; stroke: #000000; stroke-width: 0.8; stroke-linejoin: miter; stroke-linecap: square"/>
   </g>
   <g id="patch_4">
    <path d="M 253.889063 169.948594 
L 253.889063 22.318125 
" style="fill: none; stroke: #000000; stroke-width: 0.8; stroke-linejoin: miter; stroke-linecap: square"/>
   </g>
   <g id="patch_5">
    <path d="M 50.466406 169.948594 
L 253.889063 169.948594 
" style="fill: none; stroke: #000000; stroke-width: 0.8; stroke-linejoin: miter; stroke-linecap: square"/>
   </g>
   <g id="patch_6">
    <path d="M 50.466406 22.318125 
L 253.889063 22.318125 
" style="fill: none; stroke: #000000; stroke-width: 0.8; stroke-linejoin: miter; stroke-linecap: square"/>
   </g>
   <g id="text_12">
    <!-- ship threshold -->
    <g style="fill: #4c4c4c" transform="translate(59.712891 67.613837) scale(0.07 -0.07)">
     <defs>
      <path id="DejaVuSans-4b" d="M 3513 2113 
L 3513 0 
L 2938 0 
L 2938 2094 
Q 2938 2591 2744 2837 
Q 2550 3084 2163 3084 
Q 1697 3084 1428 2787 
Q 1159 2491 1159 1978 
L 1159 0 
L 581 0 
L 581 4863 
L 1159 4863 
L 1159 2956 
Q 1366 3272 1645 3428 
Q 1925 3584 2291 3584 
Q 2894 3584 3203 3211 
Q 3513 2838 3513 2113 
z
" transform="scale(0.015625)"/>
      <path id="DejaVuSans-52" d="M 1959 3097 
Q 1497 3097 1228 2736 
Q 959 2375 959 1747 
Q 959 1119 1226 758 
Q 1494 397 1959 397 
Q 2419 397 2687 759 
Q 2956 1122 2956 1747 
Q 2956 2369 2687 2733 
Q 2419 3097 1959 3097 
z
M 1959 3584 
Q 2709 3584 3137 3096 
Q 3566 2609 3566 1747 
Q 3566 888 3137 398 
Q 2709 -91 1959 -91 
Q 1206 -91 779 398 
Q 353 888 353 1747 
Q 353 2609 779 3096 
Q 1206 3584 1959 3584 
z
" transform="scale(0.015625)"/>
     </defs>
     <use xlink:href="#DejaVuSans-56"/>
     <use xlink:href="#DejaVuSans-4b" transform="translate(52.09375 0)"/>
     <use xlink:href="#DejaVuSans-4c" transform="translate(115.46875 0)"/>
     <use xlink:href="#DejaVuSans-53" transform="translate(143.25 0)"/>
     <use xlink:href="#DejaVuSans-3" transform="translate(206.734375 0)"/>
     <use xlink:href="#DejaVuSans-57" transform="translate(238.515625 0)"/>
     <use xlink:href="#DejaVuSans-4b" transform="translate(277.71875 0)"/>
     <use xlink:href="#DejaVuSans-55" transform="translate(341.09375 0)"/>
     <use xlink:href="#DejaVuSans-48" transform="translate(380 0)"/>
     <use xlink:href="#DejaVuSans-56" transform="translate(441.53125 0)"/>
     <use xlink:href="#DejaVuSans-4b" transform="translate(493.625 0)"/>
     <use xlink:href="#DejaVuSans-52" transform="translate(557 0)"/>
     <use xlink:href="#DejaVuSans-4f" transform="translate(618.1875 0)"/>
     <use xlink:href="#DejaVuSans-47" transform="translate(645.96875 0)"/>
    </g>
   </g>
   <g id="text_13">
    <!-- absolute pass-rate gate -->
    <g transform="translate(80.948359 16.318125) scale(0.12 -0.12)">
     <defs>
      <path id="DejaVuSans-45" d="M 3116 1747 
Q 3116 2381 2855 2742 
Q 2594 3103 2138 3103 
Q 1681 3103 1420 2742 
Q 1159 2381 1159 1747 
Q 1159 1113 1420 752 
Q 1681 391 2138 391 
Q 2594 391 2855 752 
Q 3116 1113 3116 1747 
z
M 1159 2969 
Q 1341 3281 1617 3432 
Q 1894 3584 2278 3584 
Q 2916 3584 3314 3078 
Q 3713 2572 3713 1747 
Q 3713 922 3314 415 
Q 2916 -91 2278 -91 
Q 1894 -91 1617 61 
Q 1341 213 1159 525 
L 1159 0 
L 581 0 
L 581 4863 
L 1159 4863 
L 1159 2969 
z
" transform="scale(0.015625)"/>
      <path id="DejaVuSans-10" d="M 313 2009 
L 1997 2009 
L 1997 1497 
L 313 1497 
L 313 2009 
z
" transform="scale(0.015625)"/>
      <path id="DejaVuSans-4a" d="M 2906 1791 
Q 2906 2416 2648 2759 
Q 2391 3103 1925 3103 
Q 1463 3103 1205 2759 
Q 947 2416 947 1791 
Q 947 1169 1205 825 
Q 1463 481 1925 481 
Q 2391 481 2648 825 
Q 2906 1169 2906 1791 
z
M 3481 434 
Q 3481 -459 3084 -895 
Q 2688 -1331 1869 -1331 
Q 1566 -1331 1297 -1286 
Q 1028 -1241 775 -1147 
L 775 -588 
Q 1028 -725 1275 -790 
Q 1522 -856 1778 -856 
Q 2344 -856 2625 -561 
Q 2906 -266 2906 331 
L 2906 616 
Q 2728 306 2450 153 
Q 2172 0 1784 0 
Q 1141 0 747 490 
Q 353 981 353 1791 
Q 353 2603 747 3093 
Q 1141 3584 1784 3584 
Q 2172 3584 2450 3431 
Q 2728 3278 2906 2969 
L 2906 3500 
L 3481 3500 
L 3481 434 
z
" transform="scale(0.015625)"/>
     </defs>
     <use xlink:href="#DejaVuSans-44"/>
     <use xlink:href="#DejaVuSans-45" transform="translate(61.28125 0)"/>
     <use xlink:href="#DejaVuSans-56" transform="translate(124.765625 0)"/>
     <use xlink:href="#DejaVuSans-52" transform="translate(176.859375 0)"/>
     <use xlink:href="#DejaVuSans-4f" transform="translate(238.046875 0)"/>
     <use xlink:href="#DejaVuSans-58" transform="translate(265.828125 0)"/>
     <use xlink:href="#DejaVuSans-57" transform="translate(329.203125 0)"/>
     <use xlink:href="#DejaVuSans-48" transform="translate(368.40625 0)"/>
     <use xlink:href="#DejaVuSans-3" transform="translate(429.9375 0)"/>
     <use xlink:href="#DejaVuSans-53" transform="translate(461.71875 0)"/>
     <use xlink:href="#DejaVuSans-44" transform="translate(525.203125 0)"/>
     <use xlink:href="#DejaVuSans-56" transform="translate(586.484375 0)"/>
     <use xlink:href="#DejaVuSans-56" transform="translate(638.578125 0)"/>
     <use xlink:href="#DejaVuSans-10" transform="translate(690.671875 0)"/>
     <use xlink:href="#DejaVuSans-55" transform="translate(726.75 0)"/>
     <use xlink:href="#DejaVuSans-44" transform="translate(767.859375 0)"/>
     <use xlink:href="#DejaVuSans-57" transform="translate(829.140625 0)"/>
     <use xlink:href="#DejaVuSans-48" transform="translate(868.34375 0)"/>
     <use xlink:href="#DejaVuSans-3" transform="translate(929.875 0)"/>
     <use xlink:href="#DejaVuSans-4a" transform="translate(961.65625 0)"/>
     <use xlink:href="#DejaVuSans-44" transform="translate(1025.140625 0)"/>
     <use xlink:href="#DejaVuSans-57" transform="translate(1086.421875 0)"/>
     <use xlink:href="#DejaVuSans-48" transform="translate(1125.625 0)"/>
    </g>
   </g>
  </g>
  <g id="axes_2">
   <g id="patch_7">
    <path d="M 315.591406 169.948594 
L 519.014063 169.948594 
L 519.014063 22.318125 
L 315.591406 22.318125 
z
" style="fill: #ffffff"/>
   </g>
   <g id="matplotlib.axis_3">
    <g id="xtick_6">
     <g id="line2d_12">
      <g>
       <use xlink:href="#m6570157936" x="320.096104" y="169.948594" style="stroke: #000000; stroke-width: 0.8"/>
      </g>
     </g>
     <g id="text_14">
      <!-- 0 -->
      <g transform="translate(316.914854 184.54625) scale(0.1 -0.1)">
       <use xlink:href="#DejaVuSans-13"/>
      </g>
     </g>
    </g>
    <g id="xtick_7">
     <g id="line2d_13">
      <g>
       <use xlink:href="#m6570157936" x="367.513972" y="169.948594" style="stroke: #000000; stroke-width: 0.8"/>
      </g>
     </g>
     <g id="text_15">
      <!-- 10 -->
      <g transform="translate(361.151472 184.54625) scale(0.1 -0.1)">
       <use xlink:href="#DejaVuSans-14"/>
       <use xlink:href="#DejaVuSans-13" transform="translate(63.625 0)"/>
      </g>
     </g>
    </g>
    <g id="xtick_8">
     <g id="line2d_14">
      <g>
       <use xlink:href="#m6570157936" x="414.931841" y="169.948594" style="stroke: #000000; stroke-width: 0.8"/>
      </g>
     </g>
     <g id="text_16">
      <!-- 20 -->
      <g transform="translate(408.569341 184.54625) scale(0.1 -0.1)">
       <use xlink:href="#DejaVuSans-15"/>
       <use xlink:href="#DejaVuSans-13" transform="translate(63.625 0)"/>
      </g>
     </g>
    </g>
    <g id="xtick_9">
     <g id="line2d_15">
      <g>
       <use xlink:href="#m6570157936" x="462.34971" y="169.948594" style="stroke: #000000; stroke-width: 0.8"/>
      </g>
     </g>
     <g id="text_17">
      <!-- 30 -->
      <g transform="translate(455.98721 184.54625) scale(0.1 -0.1)">
       <use xlink:href="#DejaVuSans-16"/>
       <use xlink:href="#DejaVuSans-13" transform="translate(63.625 0)"/>
      </g>
     </g>
    </g>
    <g id="xtick_10">
     <g id="line2d_16">
      <g>
       <use xlink:href="#m6570157936" x="509.767578" y="169.948594" style="stroke: #000000; stroke-width: 0.8"/>
      </g>
     </g>
     <g id="text_18">
      <!-- 40 -->
      <g transform="translate(503.405078 184.54625) scale(0.1 -0.1)">
       <use xlink:href="#DejaVuSans-17"/>
       <use xlink:href="#DejaVuSans-13" transform="translate(63.625 0)"/>
      </g>
     </g>
    </g>
    <g id="text_19">
     <!-- eval run -->
     <g transform="translate(396.831641 198.547031) scale(0.1 -0.1)">
      <use xlink:href="#DejaVuSans-48"/>
      <use xlink:href="#DejaVuSans-59" transform="translate(61.53125 0)"/>
      <use xlink:href="#DejaVuSans-44" transform="translate(120.71875 0)"/>
      <use xlink:href="#DejaVuSans-4f" transform="translate(182 0)"/>
      <use xlink:href="#DejaVuSans-3" transform="translate(209.78125 0)"/>
      <use xlink:href="#DejaVuSans-55" transform="translate(241.5625 0)"/>
      <use xlink:href="#DejaVuSans-58" transform="translate(282.671875 0)"/>
      <use xlink:href="#DejaVuSans-51" transform="translate(346.046875 0)"/>
     </g>
    </g>
   </g>
   <g id="matplotlib.axis_4">
    <g id="ytick_5">
     <g id="line2d_17">
      <g>
       <use xlink:href="#mba8d3f1569" x="315.591406" y="163.238118" style="stroke: #000000; stroke-width: 0.8"/>
      </g>
     </g>
     <g id="text_20">
      <!-- −0.02 -->
      <g transform="translate(277.946094 167.036946) scale(0.1 -0.1)">
       <defs>
        <path id="DejaVuSans-c9c" d="M 678 2272 
L 4684 2272 
L 4684 1741 
L 678 1741 
L 678 2272 
z
" transform="scale(0.015625)"/>
       </defs>
       <use xlink:href="#DejaVuSans-c9c"/>
       <use xlink:href="#DejaVuSans-13" transform="translate(83.796875 0)"/>
       <use xlink:href="#DejaVuSans-11" transform="translate(147.421875 0)"/>
       <use xlink:href="#DejaVuSans-13" transform="translate(179.203125 0)"/>
       <use xlink:href="#DejaVuSans-15" transform="translate(242.828125 0)"/>
      </g>
     </g>
    </g>
    <g id="ytick_6">
     <g id="line2d_18">
      <g>
       <use xlink:href="#mba8d3f1569" x="315.591406" y="129.448002" style="stroke: #000000; stroke-width: 0.8"/>
      </g>
     </g>
     <g id="text_21">
      <!-- −0.01 -->
      <g transform="translate(277.946094 133.24683) scale(0.1 -0.1)">
       <use xlink:href="#DejaVuSans-c9c"/>
       <use xlink:href="#DejaVuSans-13" transform="translate(83.796875 0)"/>
       <use xlink:href="#DejaVuSans-11" transform="translate(147.421875 0)"/>
       <use xlink:href="#DejaVuSans-13" transform="translate(179.203125 0)"/>
       <use xlink:href="#DejaVuSans-14" transform="translate(242.828125 0)"/>
      </g>
     </g>
    </g>
    <g id="ytick_7">
     <g id="line2d_19">
      <g>
       <use xlink:href="#mba8d3f1569" x="315.591406" y="95.657887" style="stroke: #000000; stroke-width: 0.8"/>
      </g>
     </g>
     <g id="text_22">
      <!-- 0.00 -->
      <g transform="translate(286.325781 99.456715) scale(0.1 -0.1)">
       <use xlink:href="#DejaVuSans-13"/>
       <use xlink:href="#DejaVuSans-11" transform="translate(63.625 0)"/>
       <use xlink:href="#DejaVuSans-13" transform="translate(95.40625 0)"/>
       <use xlink:href="#DejaVuSans-13" transform="translate(159.03125 0)"/>
      </g>
     </g>
    </g>
    <g id="ytick_8">
     <g id="line2d_20">
      <g>
       <use xlink:href="#mba8d3f1569" x="315.591406" y="61.867771" style="stroke: #000000; stroke-width: 0.8"/>
      </g>
     </g>
     <g id="text_23">
      <!-- 0.01 -->
      <g transform="translate(286.325781 65.666599) scale(0.1 -0.1)">
       <use xlink:href="#DejaVuSans-13"/>
       <use xlink:href="#DejaVuSans-11" transform="translate(63.625 0)"/>
       <use xlink:href="#DejaVuSans-13" transform="translate(95.40625 0)"/>
       <use xlink:href="#DejaVuSans-14" transform="translate(159.03125 0)"/>
      </g>
     </g>
    </g>
    <g id="ytick_9">
     <g id="line2d_21">
      <g>
       <use xlink:href="#mba8d3f1569" x="315.591406" y="28.077656" style="stroke: #000000; stroke-width: 0.8"/>
      </g>
     </g>
     <g id="text_24">
      <!-- 0.02 -->
      <g transform="translate(286.325781 31.876484) scale(0.1 -0.1)">
       <use xlink:href="#DejaVuSans-13"/>
       <use xlink:href="#DejaVuSans-11" transform="translate(63.625 0)"/>
       <use xlink:href="#DejaVuSans-13" transform="translate(95.40625 0)"/>
       <use xlink:href="#DejaVuSans-15" transform="translate(159.03125 0)"/>
      </g>
     </g>
    </g>
    <g id="text_25">
     <!-- candidate − baseline -->
     <g transform="translate(271.54375 149.264609) rotate(-90) scale(0.1 -0.1)">
      <use xlink:href="#DejaVuSans-46"/>
      <use xlink:href="#DejaVuSans-44" transform="translate(54.984375 0)"/>
      <use xlink:href="#DejaVuSans-51" transform="translate(116.265625 0)"/>
      <use xlink:href="#DejaVuSans-47" transform="translate(179.640625 0)"/>
      <use xlink:href="#DejaVuSans-4c" transform="translate(243.125 0)"/>
      <use xlink:href="#DejaVuSans-47" transform="translate(270.90625 0)"/>
      <use xlink:href="#DejaVuSans-44" transform="translate(334.390625 0)"/>
      <use xlink:href="#DejaVuSans-57" transform="translate(395.671875 0)"/>
      <use xlink:href="#DejaVuSans-48" transform="translate(434.875 0)"/>
      <use xlink:href="#DejaVuSans-3" transform="translate(496.40625 0)"/>
      <use xlink:href="#DejaVuSans-c9c" transform="translate(528.1875 0)"/>
      <use xlink:href="#DejaVuSans-3" transform="translate(611.984375 0)"/>
      <use xlink:href="#DejaVuSans-45" transform="translate(643.765625 0)"/>
      <use xlink:href="#DejaVuSans-44" transform="translate(707.25 0)"/>
      <use xlink:href="#DejaVuSans-56" transform="translate(768.53125 0)"/>
      <use xlink:href="#DejaVuSans-48" transform="translate(820.625 0)"/>
      <use xlink:href="#DejaVuSans-4f" transform="translate(882.15625 0)"/>
      <use xlink:href="#DejaVuSans-4c" transform="translate(909.9375 0)"/>
      <use xlink:href="#DejaVuSans-51" transform="translate(937.71875 0)"/>
      <use xlink:href="#DejaVuSans-48" transform="translate(1001.09375 0)"/>
     </g>
    </g>
   </g>
   <g id="line2d_22">
    <path d="M 324.837891 29.028601 
L 329.579677 63.783527 
L 334.321464 29.028601 
L 339.063251 29.028601 
L 343.805038 63.783527 
L 348.546825 63.783527 
L 353.288612 29.028601 
L 358.030399 29.028601 
L 362.772185 29.028601 
L 367.513972 29.028601 
L 372.255759 29.028601 
L 376.997546 29.028601 
L 381.739333 63.783527 
L 386.48112 29.028601 
L 391.222907 29.028601 
L 395.964694 29.028601 
L 400.70648 63.783527 
L 405.448267 29.028601 
L 410.190054 98.317865 
L 414.931841 29.028601 
L 419.673628 29.028601 
L 424.415415 29.028601 
L 429.157202 63.783527 
L 433.898988 29.028601 
L 438.640775 63.783527 
L 443.382562 63.783527 
L 448.124349 29.028601 
L 452.866136 29.028601 
L 457.607923 132.636325 
L 462.34971 29.028601 
L 467.091496 63.783527 
L 471.833283 63.783527 
L 476.57507 29.028601 
L 481.316857 29.028601 
L 486.058644 63.783527 
L 490.800431 63.783527 
L 495.542218 63.783527 
L 500.284004 29.028601 
L 505.025791 29.028601 
L 509.767578 29.028601 
" clip-path="url(#pecc3637386)" style="fill: none; stroke: #2a7f9e; stroke-width: 1.5; stroke-linecap: square"/>
    <defs>
     <path id="m2670ef637f" d="M -1.5 1.5 
L 1.5 1.5 
L 1.5 -1.5 
L -1.5 -1.5 
z
" style="stroke: #2a7f9e; stroke-linejoin: miter"/>
    </defs>
    <g clip-path="url(#pecc3637386)">
     <use xlink:href="#m2670ef637f" x="324.837891" y="29.028601" style="fill: #2a7f9e; stroke: #2a7f9e; stroke-linejoin: miter"/>
     <use xlink:href="#m2670ef637f" x="329.579677" y="63.783527" style="fill: #2a7f9e; stroke: #2a7f9e; stroke-linejoin: miter"/>
     <use xlink:href="#m2670ef637f" x="334.321464" y="29.028601" style="fill: #2a7f9e; stroke: #2a7f9e; stroke-linejoin: miter"/>
     <use xlink:href="#m2670ef637f" x="339.063251" y="29.028601" style="fill: #2a7f9e; stroke: #2a7f9e; stroke-linejoin: miter"/>
     <use xlink:href="#m2670ef637f" x="343.805038" y="63.783527" style="fill: #2a7f9e; stroke: #2a7f9e; stroke-linejoin: miter"/>
     <use xlink:href="#m2670ef637f" x="348.546825" y="63.783527" style="fill: #2a7f9e; stroke: #2a7f9e; stroke-linejoin: miter"/>
     <use xlink:href="#m2670ef637f" x="353.288612" y="29.028601" style="fill: #2a7f9e; stroke: #2a7f9e; stroke-linejoin: miter"/>
     <use xlink:href="#m2670ef637f" x="358.030399" y="29.028601" style="fill: #2a7f9e; stroke: #2a7f9e; stroke-linejoin: miter"/>
     <use xlink:href="#m2670ef637f" x="362.772185" y="29.028601" style="fill: #2a7f9e; stroke: #2a7f9e; stroke-linejoin: miter"/>
     <use xlink:href="#m2670ef637f" x="367.513972" y="29.028601" style="fill: #2a7f9e; stroke: #2a7f9e; stroke-linejoin: miter"/>
     <use xlink:href="#m2670ef637f" x="372.255759" y="29.028601" style="fill: #2a7f9e; stroke: #2a7f9e; stroke-linejoin: miter"/>
     <use xlink:href="#m2670ef637f" x="376.997546" y="29.028601" style="fill: #2a7f9e; stroke: #2a7f9e; stroke-linejoin: miter"/>
     <use xlink:href="#m2670ef637f" x="381.739333" y="63.783527" style="fill: #2a7f9e; stroke: #2a7f9e; stroke-linejoin: miter"/>
     <use xlink:href="#m2670ef637f" x="386.48112" y="29.028601" style="fill: #2a7f9e; stroke: #2a7f9e; stroke-linejoin: miter"/>
     <use xlink:href="#m2670ef637f" x="391.222907" y="29.028601" style="fill: #2a7f9e; stroke: #2a7f9e; stroke-linejoin: miter"/>
     <use xlink:href="#m2670ef637f" x="395.964694" y="29.028601" style="fill: #2a7f9e; stroke: #2a7f9e; stroke-linejoin: miter"/>
     <use xlink:href="#m2670ef637f" x="400.70648" y="63.783527" style="fill: #2a7f9e; stroke: #2a7f9e; stroke-linejoin: miter"/>
     <use xlink:href="#m2670ef637f" x="405.448267" y="29.028601" style="fill: #2a7f9e; stroke: #2a7f9e; stroke-linejoin: miter"/>
     <use xlink:href="#m2670ef637f" x="410.190054" y="98.317865" style="fill: #2a7f9e; stroke: #2a7f9e; stroke-linejoin: miter"/>
     <use xlink:href="#m2670ef637f" x="414.931841" y="29.028601" style="fill: #2a7f9e; stroke: #2a7f9e; stroke-linejoin: miter"/>
     <use xlink:href="#m2670ef637f" x="419.673628" y="29.028601" style="fill: #2a7f9e; stroke: #2a7f9e; stroke-linejoin: miter"/>
     <use xlink:href="#m2670ef637f" x="424.415415" y="29.028601" style="fill: #2a7f9e; stroke: #2a7f9e; stroke-linejoin: miter"/>
     <use xlink:href="#m2670ef637f" x="429.157202" y="63.783527" style="fill: #2a7f9e; stroke: #2a7f9e; stroke-linejoin: miter"/>
     <use xlink:href="#m2670ef637f" x="433.898988" y="29.028601" style="fill: #2a7f9e; stroke: #2a7f9e; stroke-linejoin: miter"/>
     <use xlink:href="#m2670ef637f" x="438.640775" y="63.783527" style="fill: #2a7f9e; stroke: #2a7f9e; stroke-linejoin: miter"/>
     <use xlink:href="#m2670ef637f" x="443.382562" y="63.783527" style="fill: #2a7f9e; stroke: #2a7f9e; stroke-linejoin: miter"/>
     <use xlink:href="#m2670ef637f" x="448.124349" y="29.028601" style="fill: #2a7f9e; stroke: #2a7f9e; stroke-linejoin: miter"/>
     <use xlink:href="#m2670ef637f" x="452.866136" y="29.028601" style="fill: #2a7f9e; stroke: #2a7f9e; stroke-linejoin: miter"/>
     <use xlink:href="#m2670ef637f" x="457.607923" y="132.636325" style="fill: #2a7f9e; stroke: #2a7f9e; stroke-linejoin: miter"/>
     <use xlink:href="#m2670ef637f" x="462.34971" y="29.028601" style="fill: #2a7f9e; stroke: #2a7f9e; stroke-linejoin: miter"/>
     <use xlink:href="#m2670ef637f" x="467.091496" y="63.783527" style="fill: #2a7f9e; stroke: #2a7f9e; stroke-linejoin: miter"/>
     <use xlink:href="#m2670ef637f" x="471.833283" y="63.783527" style="fill: #2a7f9e; stroke: #2a7f9e; stroke-linejoin: miter"/>
     <use xlink:href="#m2670ef637f" x="476.57507" y="29.028601" style="fill: #2a7f9e; stroke: #2a7f9e; stroke-linejoin: miter"/>
     <use xlink:href="#m2670ef637f" x="481.316857" y="29.028601" style="fill: #2a7f9e; stroke: #2a7f9e; stroke-linejoin: miter"/>
     <use xlink:href="#m2670ef637f" x="486.058644" y="63.783527" style="fill: #2a7f9e; stroke: #2a7f9e; stroke-linejoin: miter"/>
     <use xlink:href="#m2670ef637f" x="490.800431" y="63.783527" style="fill: #2a7f9e; stroke: #2a7f9e; stroke-linejoin: miter"/>
     <use xlink:href="#m2670ef637f" x="495.542218" y="63.783527" style="fill: #2a7f9e; stroke: #2a7f9e; stroke-linejoin: miter"/>
     <use xlink:href="#m2670ef637f" x="500.284004" y="29.028601" style="fill: #2a7f9e; stroke: #2a7f9e; stroke-linejoin: miter"/>
     <use xlink:href="#m2670ef637f" x="505.025791" y="29.028601" style="fill: #2a7f9e; stroke: #2a7f9e; stroke-linejoin: miter"/>
     <use xlink:href="#m2670ef637f" x="509.767578" y="29.028601" style="fill: #2a7f9e; stroke: #2a7f9e; stroke-linejoin: miter"/>
    </g>
   </g>
   <g id="line2d_23">
    <path d="M 315.591406 163.238118 
L 519.014063 163.238118 
" clip-path="url(#pecc3637386)" style="fill: none; stroke-dasharray: 5.55,2.4; stroke-dashoffset: 0; stroke: #4c4c4c; stroke-width: 1.5"/>
   </g>
   <g id="patch_8">
    <path d="M 315.591406 169.948594 
L 315.591406 22.318125 
" style="fill: none; stroke: #000000; stroke-width: 0.8; stroke-linejoin: miter; stroke-linecap: square"/>
   </g>
   <g id="patch_9">
    <path d="M 519.014063 169.948594 
L 519.014063 22.318125 
" style="fill: none; stroke: #000000; stroke-width: 0.8; stroke-linejoin: miter; stroke-linecap: square"/>
   </g>
   <g id="patch_10">
    <path d="M 315.591406 169.948594 
L 519.014063 169.948594 
" style="fill: none; stroke: #000000; stroke-width: 0.8; stroke-linejoin: miter; stroke-linecap: square"/>
   </g>
   <g id="patch_11">
    <path d="M 315.591406 22.318125 
L 519.014063 22.318125 
" style="fill: none; stroke: #000000; stroke-width: 0.8; stroke-linejoin: miter; stroke-linecap: square"/>
   </g>
   <g id="text_26">
    <!-- allowed loss (−margin) -->
    <g style="fill: #4c4c4c" transform="translate(324.837891 153.101083) scale(0.07 -0.07)">
     <defs>
      <path id="DejaVuSans-5a" d="M 269 3500 
L 844 3500 
L 1563 769 
L 2278 3500 
L 2956 3500 
L 3675 769 
L 4391 3500 
L 4966 3500 
L 4050 0 
L 3372 0 
L 2619 2869 
L 1863 0 
L 1184 0 
L 269 3500 
z
" transform="scale(0.015625)"/>
      <path id="DejaVuSans-b" d="M 1984 4856 
Q 1566 4138 1362 3434 
Q 1159 2731 1159 2009 
Q 1159 1288 1364 580 
Q 1569 -128 1984 -844 
L 1484 -844 
Q 1016 -109 783 600 
Q 550 1309 550 2009 
Q 550 2706 781 3412 
Q 1013 4119 1484 4856 
L 1984 4856 
z
" transform="scale(0.015625)"/>
      <path id="DejaVuSans-50" d="M 3328 2828 
Q 3544 3216 3844 3400 
Q 4144 3584 4550 3584 
Q 5097 3584 5394 3201 
Q 5691 2819 5691 2113 
L 5691 0 
L 5113 0 
L 5113 2094 
Q 5113 2597 4934 2840 
Q 4756 3084 4391 3084 
Q 3944 3084 3684 2787 
Q 3425 2491 3425 1978 
L 3425 0 
L 2847 0 
L 2847 2094 
Q 2847 2600 2669 2842 
Q 2491 3084 2119 3084 
Q 1678 3084 1418 2786 
Q 1159 2488 1159 1978 
L 1159 0 
L 581 0 
L 581 3500 
L 1159 3500 
L 1159 2956 
Q 1356 3278 1631 3431 
Q 1906 3584 2284 3584 
Q 2666 3584 2933 3390 
Q 3200 3197 3328 2828 
z
" transform="scale(0.015625)"/>
      <path id="DejaVuSans-c" d="M 513 4856 
L 1013 4856 
Q 1481 4119 1714 3412 
Q 1947 2706 1947 2009 
Q 1947 1309 1714 600 
Q 1481 -109 1013 -844 
L 513 -844 
Q 928 -128 1133 580 
Q 1338 1288 1338 2009 
Q 1338 2731 1133 3434 
Q 928 4138 513 4856 
z
" transform="scale(0.015625)"/>
     </defs>
     <use xlink:href="#DejaVuSans-44"/>
     <use xlink:href="#DejaVuSans-4f" transform="translate(61.28125 0)"/>
     <use xlink:href="#DejaVuSans-4f" transform="translate(89.0625 0)"/>
     <use xlink:href="#DejaVuSans-52" transform="translate(116.84375 0)"/>
     <use xlink:href="#DejaVuSans-5a" transform="translate(178.03125 0)"/>
     <use xlink:href="#DejaVuSans-48" transform="translate(259.8125 0)"/>
     <use xlink:href="#DejaVuSans-47" transform="translate(321.34375 0)"/>
     <use xlink:href="#DejaVuSans-3" transform="translate(384.828125 0)"/>
     <use xlink:href="#DejaVuSans-4f" transform="translate(416.609375 0)"/>
     <use xlink:href="#DejaVuSans-52" transform="translate(444.390625 0)"/>
     <use xlink:href="#DejaVuSans-56" transform="translate(505.578125 0)"/>
     <use xlink:href="#DejaVuSans-56" transform="translate(557.671875 0)"/>
     <use xlink:href="#DejaVuSans-3" transform="translate(609.765625 0)"/>
     <use xlink:href="#DejaVuSans-b" transform="translate(641.546875 0)"/>
     <use xlink:href="#DejaVuSans-c9c" transform="translate(680.5625 0)"/>
     <use xlink:href="#DejaVuSans-50" transform="translate(764.359375 0)"/>
     <use xlink:href="#DejaVuSans-44" transform="translate(861.765625 0)"/>
     <use xlink:href="#DejaVuSans-55" transform="translate(923.046875 0)"/>
     <use xlink:href="#DejaVuSans-4a" transform="translate(962.40625 0)"/>
     <use xlink:href="#DejaVuSans-4c" transform="translate(1025.890625 0)"/>
     <use xlink:href="#DejaVuSans-51" transform="translate(1053.671875 0)"/>
     <use xlink:href="#DejaVuSans-c" transform="translate(1117.046875 0)"/>
    </g>
   </g>
   <g id="text_27">
    <!-- paired delta, lower CI bound -->
    <g transform="translate(332.325859 16.318125) scale(0.12 -0.12)">
     <defs>
      <path id="DejaVuSans-f" d="M 750 794 
L 1409 794 
L 1409 256 
L 897 -744 
L 494 -744 
L 750 256 
L 750 794 
z
" transform="scale(0.015625)"/>
      <path id="DejaVuSans-26" d="M 4122 4306 
L 4122 3641 
Q 3803 3938 3442 4084 
Q 3081 4231 2675 4231 
Q 1875 4231 1450 3742 
Q 1025 3253 1025 2328 
Q 1025 1406 1450 917 
Q 1875 428 2675 428 
Q 3081 428 3442 575 
Q 3803 722 4122 1019 
L 4122 359 
Q 3791 134 3420 21 
Q 3050 -91 2638 -91 
Q 1578 -91 968 557 
Q 359 1206 359 2328 
Q 359 3453 968 4101 
Q 1578 4750 2638 4750 
Q 3056 4750 3426 4639 
Q 3797 4528 4122 4306 
z
" transform="scale(0.015625)"/>
      <path id="DejaVuSans-2c" d="M 628 4666 
L 1259 4666 
L 1259 0 
L 628 0 
L 628 4666 
z
" transform="scale(0.015625)"/>
     </defs>
     <use xlink:href="#DejaVuSans-53"/>
     <use xlink:href="#DejaVuSans-44" transform="translate(63.484375 0)"/>
     <use xlink:href="#DejaVuSans-4c" transform="translate(124.765625 0)"/>
     <use xlink:href="#DejaVuSans-55" transform="translate(152.546875 0)"/>
     <use xlink:href="#DejaVuSans-48" transform="translate(191.453125 0)"/>
     <use xlink:href="#DejaVuSans-47" transform="translate(252.984375 0)"/>
     <use xlink:href="#DejaVuSans-3" transform="translate(316.46875 0)"/>
     <use xlink:href="#DejaVuSans-47" transform="translate(348.25 0)"/>
     <use xlink:href="#DejaVuSans-48" transform="translate(411.734375 0)"/>
     <use xlink:href="#DejaVuSans-4f" transform="translate(473.265625 0)"/>
     <use xlink:href="#DejaVuSans-57" transform="translate(501.046875 0)"/>
     <use xlink:href="#DejaVuSans-44" transform="translate(540.25 0)"/>
     <use xlink:href="#DejaVuSans-f" transform="translate(601.53125 0)"/>
     <use xlink:href="#DejaVuSans-3" transform="translate(633.3125 0)"/>
     <use xlink:href="#DejaVuSans-4f" transform="translate(665.09375 0)"/>
     <use xlink:href="#DejaVuSans-52" transform="translate(692.875 0)"/>
     <use xlink:href="#DejaVuSans-5a" transform="translate(754.0625 0)"/>
     <use xlink:href="#DejaVuSans-48" transform="translate(835.84375 0)"/>
     <use xlink:href="#DejaVuSans-55" transform="translate(897.375 0)"/>
     <use xlink:href="#DejaVuSans-3" transform="translate(938.484375 0)"/>
     <use xlink:href="#DejaVuSans-26" transform="translate(970.265625 0)"/>
     <use xlink:href="#DejaVuSans-2c" transform="translate(1040.09375 0)"/>
     <use xlink:href="#DejaVuSans-3" transform="translate(1069.59375 0)"/>
     <use xlink:href="#DejaVuSans-45" transform="translate(1101.375 0)"/>
     <use xlink:href="#DejaVuSans-52" transform="translate(1164.859375 0)"/>
     <use xlink:href="#DejaVuSans-58" transform="translate(1226.046875 0)"/>
     <use xlink:href="#DejaVuSans-51" transform="translate(1289.421875 0)"/>
     <use xlink:href="#DejaVuSans-47" transform="translate(1352.796875 0)"/>
    </g>
   </g>
  </g>
 </g>
 <defs>
  <clipPath id="p8f3a4cb508">
   <rect x="50.466406" y="22.318125" width="203.422656" height="147.630469"/>
  </clipPath>
  <clipPath id="pecc3637386">
   <rect x="315.591406" y="22.318125" width="203.422656" height="147.630469"/>
  </clipPath>
 </defs>
</svg>
